<?xml version="1.0" encoding="UTF-8"?>
<svg id="_レイヤー_2" data-name="レイヤー 2" xmlns="http://www.w3.org/2000/svg" viewBox="0 0 548.2055664 139.2053612">
  <defs>
    <style>
      .cls-1 {
        fill: #4d516a;
        stroke-width: 0px;
      }
    </style>
  </defs>
  <g id="_フレーム" data-name="フレーム">
    <g>
      <g>
        <path class="cls-1" d="m145.0605469,20.1040039l-5.1220703-19.0629883h2.684082c1.4790039,6.2446289,3.5332031,14.1328125,3.8896484,16.296875h.0273438c.4926758-2.4379883,3.1220703-11.421875,4.3549805-16.296875h2.4648438c1.1503906,4.2724609,3.7524414,13.940918,4.1630859,16.2143555h.0273438c.6303711-3.2866211,3.2871094-12.2978516,4.3276367-16.2143555h2.4926758l-5.5600586,19.0629883h-2.7119141c-1.1503906-4.3823242-3.5878906-13.4755859-4.0537109-15.7490234h-.0273438c-.5751953,2.8486328-3.0400391,11.3666992-4.2451172,15.7490234h-2.7114258Z"/>
        <path class="cls-1" d="m169.8188477,13.5854492c.0273438,2.8208008,1.4516602,4.8476562,3.8071289,4.8476562,2.190918,0,2.9033203-1.1503906,3.3413086-2.1635742h2.4379883c-.5478516,1.7802734-2.0541992,4.1630859-5.8613281,4.1630859-4.3549805,0-6.1352539-3.5605469-6.1352539-7.1210938,0-4.1357422,2.081543-7.4228516,6.2993164-7.4228516,4.4921875,0,5.9438477,3.5883789,5.9438477,6.5463867,0,.4379883,0,.7939453-.027832,1.1503906h-9.8051758Zm7.3950195-1.6708984c-.0273438-2.3007812-1.1777344-4.1357422-3.5332031-4.1357422-2.4648438,0-3.5332031,1.6982422-3.7797852,4.1357422h7.3129883Z"/>
        <path class="cls-1" d="m184.0874023,20.1040039V0h2.4101562v20.1040039h-2.4101562Z"/>
        <path class="cls-1" d="m202.9038086,15.8583984c-.5751953,2.3833008-2.1914062,4.5742188-5.7246094,4.5742188-3.8344727,0-6.1899414-2.7387695-6.1899414-7.2036133,0-3.9165039,2.2182617-7.340332,6.3540039-7.340332,3.9990234,0,5.3959961,2.8486328,5.5605469,4.6289062h-2.3833008c-.3286133-1.3969727-1.2050781-2.6293945-3.2319336-2.6293945-2.4375,0-3.8344727,2.1088867-3.8344727,5.2587891,0,3.1772461,1.3422852,5.2861328,3.7524414,5.2861328,1.7255859,0,2.7387695-.9311523,3.3139648-2.574707h2.3833008Z"/>
        <path class="cls-1" d="m219.1166992,13.1196289c0,4.0263672-2.3007812,7.3129883-6.5458984,7.3129883-3.9716797,0-6.3818359-3.0673828-6.3818359-7.2583008,0-4.1083984,2.3554688-7.2856445,6.5458984-7.2856445,3.8618164,0,6.3818359,2.8759766,6.3818359,7.230957Zm-10.4628906.0273438c0,3.0678711,1.5336914,5.2861328,4.0263672,5.2861328,2.5195312,0,3.9711914-2.1088867,3.9711914-5.2587891,0-3.1220703-1.4238281-5.2861328-4.0258789-5.2861328s-3.9716797,2.1088867-3.9716797,5.2587891Z"/>
        <path class="cls-1" d="m223.6074219,9.8056641c0-1.2050781,0-2.465332-.0273438-3.5883789h2.3007812c.0546875.4111328.109375,1.4243164.109375,2.1367188.6298828-1.2324219,1.8349609-2.465332,4.0263672-2.465332,1.972168,0,3.3139648.9863281,3.8618164,2.4926758.7397461-1.314938,2.0541992-2.4926758,4.409668-2.4926758,2.2734375,0,4.3823242,1.3422852,4.3823242,5.0947266v9.1206055h-2.3554688v-8.8466797c0-1.5888672-.5751953-3.2871094-2.7387695-3.2871094-2.2734375,0-3.2592773,1.6982422-3.2592773,4.1635742v7.9702148h-2.3554688v-8.7646484c0-1.7802734-.4931641-3.3691406-2.6845703-3.3691406-2.2182617,0-3.2866211,1.8081055-3.2866211,4.4375v7.6962891h-2.3828125v-10.2983398Z"/>
        <path class="cls-1" d="m249.5708008,13.5854492c.0273438,2.8208008,1.4516602,4.8476562,3.8071289,4.8476562,2.190918,0,2.9033203-1.1503906,3.3413086-2.1635742h2.4379883c-.5478516,1.7802734-2.0541992,4.1630859-5.8613281,4.1630859-4.3549805,0-6.1352539-3.5605469-6.1352539-7.1210938,0-4.1357422,2.081543-7.4228516,6.2993164-7.4228516,4.4921875,0,5.9438477,3.5883789,5.9438477,6.5463867,0,.4379883,0,.7939453-.027832,1.1503906h-9.8051758Zm7.3950195-1.6708984c-.0273438-2.3007812-1.1777344-4.1357422-3.5332031-4.1357422-2.4648438,0-3.5332031,1.6982422-3.7797852,4.1357422h7.3129883Z"/>
        <path class="cls-1" d="m278.6547852,6.2172852h2.4111328V2.1088867h2.3828125v4.1083984h3.0673828v1.9448242h-3.0673828v8.1347656c0,1.3696289.328125,2.0541992,1.5878906,2.0541992.3291016,0,.8222656-.0273438,1.2050781-.109375v1.8076172c-.5751953.2192383-1.3964844.246582-2.0810547.246582-2.1640625,0-3.0947266-1.1230469-3.0947266-3.4238281v-8.7099609h-2.4111328v-1.9448242Z"/>
        <path class="cls-1" d="m302.4838867,13.1196289c0,4.0263672-2.3007812,7.3129883-6.5458984,7.3129883-3.9716797,0-6.3818359-3.0673828-6.3818359-7.2583008,0-4.1083984,2.3554688-7.2856445,6.5458984-7.2856445,3.8623047,0,6.3818359,2.8759766,6.3818359,7.230957Zm-10.4628906.0273438c0,3.0678711,1.5341797,5.2861328,4.0263672,5.2861328,2.5195312,0,3.9716797-2.1088867,3.9716797-5.2587891,0-3.1220703-1.4248047-5.2861328-4.0263672-5.2861328-2.6025391,0-3.9716797,2.1088867-3.9716797,5.2587891Z"/>
        <path class="cls-1" d="m324.034668,20.1040039V1.0410156h3.3417969c2.7392578,4.4643555,8.6826172,13.940918,9.7509766,15.9951172h.0273438c-.1923828-2.4375-.1650391-5.4501953-.1650391-8.5454102V1.0410156h2.3837891v19.0629883h-3.1503906c-2.5195312-4.1357422-8.7099609-14.324707-9.8876953-16.4609375h-.0546875c.1367188,2.1635742.1367188,5.3955078.1367188,8.8466797v7.6142578h-2.3828125Z"/>
        <path class="cls-1" d="m357.2573242,13.1196289c0,4.0263672-2.3007812,7.3129883-6.5458984,7.3129883-3.9716797,0-6.3818359-3.0673828-6.3818359-7.2583008,0-4.1083984,2.3554688-7.2856445,6.5458984-7.2856445,3.8623047,0,6.3818359,2.8759766,6.3818359,7.230957Zm-10.4628906.0273438c0,3.0678711,1.5341797,5.2861328,4.0263672,5.2861328,2.5195312,0,3.9716797-2.1088867,3.9716797-5.2587891,0-3.1220703-1.4248047-5.2861328-4.0263672-5.2861328-2.6025391,0-3.9716797,2.1088867-3.9716797,5.2587891Z"/>
        <path class="cls-1" d="m361.7475586,9.9970703c0-1.9443359-.0283203-3.0400391-.0283203-3.7797852h2.3564453c.0273438.3837891.0820312,1.4794922.0820312,2.8212891.7119141-1.8623047,2.3554688-3.0947266,4.65625-3.1499023v2.3828125c-2.8486328.0825195-4.65625,1.5888672-4.65625,5.0947266v6.737793h-2.4101562v-10.1069336Z"/>
        <path class="cls-1" d="m384.3149414,0v16.1875c0,1.2871094,0,2.5742188.0273438,3.9165039h-2.3007812c-.0820312-.355957-.1367188-1.4243164-.1367188-1.972168-.6845703,1.4516602-2.0810547,2.3007812-4.3544922,2.3007812-3.5878906,0-5.7792969-2.9033203-5.7792969-7.1210938,0-4.2729492,2.3828125-7.4228516,6.2167969-7.4228516,2.4658203,0,3.5615234.9863281,3.9169922,1.7802734V0h2.4101562Zm-6.2714844,18.4057617c3.2314453,0,3.9707031-2.4101562,3.9707031-5.4501953,0-3.0952148-.6572266-5.0400391-3.7792969-5.0400391-2.4648438,0-3.9716797,1.9448242-3.9716797,5.3134766,0,3.3417969,1.5888672,5.1767578,3.7802734,5.1767578Z"/>
        <path class="cls-1" d="m389.7651367,2.9853516V0h2.4101562v2.9853516h-2.4101562Zm0,3.2319336h2.4101562v13.8867188h-2.4101562V6.2172852Z"/>
        <path class="cls-1" d="m408.581543,15.8583984c-.5751953,2.3833008-2.1904297,4.5742188-5.7246094,4.5742188-3.8339844,0-6.1894531-2.7387695-6.1894531-7.2036133,0-3.9165039,2.21875-7.340332,6.3544922-7.340332,3.9990234,0,5.3955078,2.8486328,5.5595703,4.6289062h-2.3828125c-.328125-1.3969727-1.2050781-2.6293945-3.2314453-2.6293945-2.4384766,0-3.8349609,2.1088867-3.8349609,5.2587891,0,3.1772461,1.3417969,5.2861328,3.7529297,5.2861328,1.7246094,0,2.7382812-.9311523,3.3134766-2.574707h2.3828125Z"/>
      </g>
      <g>
        <path class="cls-1" d="m36.8779297,68.8818359c-1.6972656-.4130859-5.5961914-.5507812-10.2744141-.5507812-1.3305664,0-2.706543.0458984-4.128418.0458984,0,1.0092773-.0458984,2.1103516-.0458984,3.1650391,0,1.5136719.0458984,3.0273438.0917969,4.3574219,1.0551758,1.3300781,1.6513672,3.4858398,1.6513672,6.0087891,0,5.3666992-2.84375,12.3383789-10.5039062,16.2832031-.7797852-1.0551758-2.1098633-2.2475586-3.5776367-3.0273438,6.4213867-1.8808594,9.7700195-6.972168,10.2744141-11.0083008-.9174805,1.5595703-2.8896484,2.5229492-5.0454102,2.5229492-5.0454102,0-6.1005859-4.2202148-6.1005859-6.8344727,0-5.7333984,3.8530273-7.3847656,6.7426758-7.3847656,1.1469727,0,2.3393555.2749023,3.3486328.8256836,0-.9633789-.0458984-2.7978516-.0917969-4.8164062-6.559082.1835938-14.081543.6420898-16.3291016,1.0551758-1.3759766.2749023-1.8803711.5961914-2.1098633.5961914-.0917969,0-.0917969-.0458984-.1376953-.1835938-.1835938-1.0546875-.4584961-2.9814453-.6420898-4.1279297v-.1376953c0-.0917969.0458984-.1376953.1376953-.1376953.2290039,0,.871582.2753906,2.1557617.3212891h.9628906c3.1191406,0,9.5410156-.2753906,15.824707-.4130859-.0917969-1.972168-.1835938-3.7607422-.3212891-4.7241211-.0458984-.3671875-.3666992-.6420898-.3666992-.8256836,0-.0917969.0917969-.1376953.3666992-.1376953h.1376953c2.3393555.0917969,4.4492188.3671875,4.4492188.7797852,0,.1376953-.0917969.3212891-.2294922.550293-.4584961.7338867-.5043945,1.3759766-.5043945,4.2661133,5.9628906-.1376953,10.5498047-.1835938,14.3110352-.3212891l-.0458984,3.8530273Zm-17.7509766,9.953125c0-2.84375-2.1557617-3.394043-3.1650391-3.394043-2.2475586,0-3.5317383,2.2016602-3.5317383,4.3574219,0,1.8803711.9174805,3.6694336,3.2109375,3.6694336,3.1186523,0,3.4858398-3.7612305,3.4858398-4.6328125Zm10.2744141-14.1728516c-1.1928711-1.3764648-2.7519531-2.8901367-4.128418-4.0366211l1.8349609-1.6513672c1.3759766,1.0551758,3.0273438,2.4770508,4.3115234,3.7612305l-2.0180664,1.9267578Zm4.3574219-1.6972656c-1.2382812-1.3300781-2.7519531-2.7519531-4.2197266-3.8989258l1.8344727-1.6513672c1.3759766,1.0092773,3.1191406,2.3852539,4.3574219,3.6694336l-1.972168,1.8808594Z"/>
        <path class="cls-1" d="m53.2583008,89.1552734c.4584961,0,.9169922.0458984,1.3759766.0458984,10.0908203,0,18.2553711-3.9448242,18.2553711-9.7700195,0-3.2104492-1.7890625-6.2836914-8.8525391-6.2836914-6.7885742,0-15.5952148,2.9355469-17.0170898,4.0820312-.3666992.2753906-.6420898.5048828-.871582.5048828-.550293,0-1.6967773-3.3027344-1.8803711-3.8530273-.0458984-.0917969-.0458984-.1376953-.0458984-.2294922,0-.3666992.6879883-.0917969,1.7890625-.3666992,4.9077148-1.1469727,12.0629883-3.1650391,18.2094727-3.1650391,10.7329102,0,12.0170898,6.6049805,12.0170898,9.5405273,0,6.8803711-7.8891602,12.2924805-21.3286133,13.0722656-.2749023-1.0087891-1.0087891-2.6142578-1.6508789-3.5776367Z"/>
        <path class="cls-1" d="m112.387207,74.5234375c-4.1279297,0-20.640625,4.3115234-20.640625,12.2924805,0,.3671875.0458984.7338867.1376953,1.1010742.5961914,2.4765625,4.265625,3.8984375,9.5405273,3.8984375,3.715332,0,8.2563477-.7333984,13.1181641-2.2929688-.1831055,1.6508789-.1831055,3.3481445-.1831055,4.6782227-4.6328125.6879883-8.7148438,1.0551758-12.1552734,1.0551758-6.6967773,0-14.0356445-1.3759766-14.0356445-8.4858398,0-4.3115234,3.3027344-8.2099609,9.1279297-11.2373047-1.8808594-.5961914-2.7519531-2.84375-2.9814453-6.1923828-.1376953-2.4311523-.0917969-6.6049805-.3212891-8.9902344-.0458984-.5043945-.2749023-.9169922-.2749023-1.1464844,0-.0917969.0917969-.1835938.2749023-.1835938h.0917969c2.5229492.0917969,4.4951172.2753906,4.4951172.6879883,0,.0917969-.0458984.2753906-.1376953.4589844-.2749023.7338867-.5961914,1.7426758-.5961914,7.0634766,0,4.9995117,1.3759766,6.4213867,2.3852539,6.9262695,3.0273438-1.284668,6.4213867-2.4311523,9.402832-3.2568359,1.0551758-.3212891,1.421875-.8256836,1.6972656-.8256836.1835938,0,.4584961.0917969,1.4677734,3.715332.0917969.2294922.1376953.4125977.1376953.5043945,0,.1835938-.0917969.2294922-.3671875.2294922h-.1835938Z"/>
        <path class="cls-1" d="m163.5585938,70.4863281c-2.6572266-.1000977-5.3647461-.1503906-8.1728516-.2006836.4013672,3.7104492,1.1533203,7.0200195,2.2563477,9.9780273,3.4599609-2.2060547,5.9165039-4.8637695,7.0698242-6.4682617.2006836-.2504883.2006836-.5512695.5014648-.5512695.050293,0,.2006836.050293.3510742.1000977,3.0585938,1.4541016,3.5097656,1.9052734,3.5097656,2.3569336,0,.2504883-.2006836.5009766-.5512695.5512695-.7524414.1000977-1.3037109.2006836-1.6044922.5517578-1.9057617,2.105957-4.6132812,4.4121094-7.9223633,6.4179688,2.6572266,5.0639648,6.71875,8.824707,12.4848633,11.4819336-1.6044922,1.5541992-2.7075195,3.359375-2.7075195,3.359375-10.078125-5.5151367-14.9921875-14.3398438-16.7470703-27.8276367h-2.105957c-.9023438.7519531-2.1557617,1.6542969-3.2587891,2.2563477,5.1645508,5.1640625,6.3676758,12.8359375,6.3676758,18.3510742,0,5.9165039-.5512695,8.925293-7.2705078,8.925293-1.253418,0-2.7075195-.1005859-4.3618164-.3012695,0,0-.2006836-2.2060547-1.2036133-4.0112305,2.3564453.4013672,4.1616211.5517578,5.465332.5517578,3.5097656,0,3.7104492-.9526367,3.7104492-5.7661133,0-1.4038086-.050293-2.7578125-.2006836-4.0112305-5.7661133,4.7631836-13.0864258,8.875-20.7080078,11.2314453,0,0-.6015625-2.0058594-1.9555664-3.5600586,7.9223633-2.2060547,15.3930664-5.9165039,21.9614258-11.3818359-.3007812-1.1030273-.6015625-2.1557617-1.0024414-3.1088867-5.1645508,3.409668-11.5825195,6.5185547-17.9003906,8.4238281,0,0-.4511719-1.8554688-1.7045898-3.409668,6.2675781-1.6044922,12.5849609-4.3623047,18.0004883-7.972168-.6020508-.8525391-1.3037109-1.6044922-2.0556641-2.2060547-4.4125977,2.456543-8.5742188,3.8608398-13.6884766,5.3144531,0,0-.5517578-1.9550781-1.7045898-3.5097656,6.0668945-1.253418,12.2338867-3.359375,16.4458008-5.815918-3.2592773.0498047-6.9697266.1000977-10.3789062.2504883v-3.6098633c5.1645508.2504883,10.1782227.3505859,14.9916992.3505859,4.8637695,0,9.5771484-.1000977,14.0893555-.3505859v3.6098633Zm2.0561523-2.15625c.2001953-1.8046875.2001953-3.6601562.2001953-4.5625v-.5517578h-33.4433594v.6020508c0,.9023438,0,2.8076172.2006836,4.7631836h-4.2119141c.2006836-1.8554688.2006836-4.612793.2006836-6.4682617v-2.1557617h18.2006836c0-.902832-.050293-1.7548828-.2006836-2.5073242-.1503906-.6518555-.3007812-1.1030273-.3007812-1.3535156,0-.1503906.1005859-.2509766.4013672-.2509766h.1503906c4.4121094.3510742,4.6630859.6020508,4.6630859.9526367,0,.2509766-.2006836.6020508-.4013672.9526367-.2504883.4516602-.3007812.7524414-.3510742,1.2036133-.0498047.4511719-.0498047,1.0029297-.0498047,1.0029297h18.953125v1.1030273c0,1.7045898,0,5.0141602.2001953,7.2700195h-4.2114258Z"/>
        <path class="cls-1" d="m206.8481445,95.0263672c-10.7329102,0-17.4755859-5.7333984-17.4755859-13.668457,0-6.5131836,4.6328125-12.6137695,9.2197266-14.8613281-14.6777344,2.3393555-15.4116211,2.5688477-17.8886719,3.4858398-.4125977.1376953-.6420898.2753906-.7797852.2753906-.2294922,0-.2749023-.1835938-.4125977-.5961914-.2753906-1.0092773-1.0092773-4.0366211-1.0092773-4.3115234,0-.0917969.0458984-.1376953.1376953-.1376953.2294922,0,.7338867.1376953,1.5595703.1376953h.1831055c2.5688477,0,19.9985352-1.7431641,27.612793-3.4863281,1.5595703-.3208008,2.293457-.7338867,2.7060547-.7338867.4130859,0,.4589844.1835938,1.6972656,3.5776367v.1376953c0,.3671875-.6879883.0917969-2.3852539.3671875-9.9072266,1.6508789-17.0170898,8.4394531-17.0170898,15.6865234,0,8.3481445,8.4399414,10.0454102,13.2558594,10.0454102.6879883,0,1.3759766-.0458984,2.0639648-.0917969-.4125977,1.2841797-.8251953,3.1191406-.9169922,4.1738281h-.5507812Zm4.4492188-20.4570312c-.9169922-1.5595703-2.2016602-3.3481445-3.3481445-4.7246094l2.1098633-1.2841797c1.1923828,1.2841797,2.5229492,2.9814453,3.5776367,4.4951172l-2.3393555,1.5136719Zm3.6694336-2.0639648c-.9628906-1.5136719-2.2016602-3.2109375-3.394043-4.5869141l2.0639648-1.2841797c1.1928711,1.2382812,2.6606445,2.8896484,3.6235352,4.4033203l-2.293457,1.4677734Z"/>
        <path class="cls-1" d="m229.6958008,77.65625h-.7021484c-1.1533203,0-3.4594727,0-5.6660156.2006836v-3.9609375c1.8554688.2006836,5.1645508.2006836,7.5214844.2006836h2.7075195v16.1953125c2.8579102,4.0610352,6.6181641,4.2114258,16.6967773,4.2114258,5.9663086,0,12.2338867-.2504883,17.3984375-.6518555-1.0527344,2.15625-1.5039062,4.3125-1.5039062,4.3125,0,0-3.8608398.0498047-8.7246094.0498047-4.9140625,0-10.8305664-.0498047-15.0419922-.1503906-4.5126953-.1000977-8.0224609-1.8051758-10.4291992-4.8632812-1.7050781,1.6542969-3.8608398,3.5097656-5.0644531,4.4121094-.5512695.4511719-.8022461.6518555-1.1533203,1.203125-.3007812.5517578-.5512695.902832-.8520508.902832-.2006836,0-.3510742-.1000977-.6020508-.4511719-.5512695-1.0029297-1.7548828-3.5097656-1.7548828-3.6103516,0-.2006836.2509766-.2504883.8022461-.4511719,1.8554688-.7021484,4.2119141-2.4067383,6.3681641-4.4125977v-13.1367188Zm2.9082031-10.4291992c-2.5073242-3.2089844-4.8637695-5.6655273-7.8222656-8.1225586l2.4570312-2.3564453c2.8579102,2.2563477,5.3149414,4.4624023,8.2231445,7.7216797l-2.8579102,2.7573242Zm28.980957,6.3178711h-20.9086914v3.8105469c0,3.9614258.050293,10.2285156.2509766,14.7412109h-4.0615234c.2504883-4.9638672.3007812-12.8857422.3007812-17.6494141v-3.9609375h3.8105469v-12.5351562h20.4575195v12.5351562h3.7104492v16.0952148c0,4.0112305-.7524414,5.6655273-6.5683594,5.6655273-.6020508,0-1.2036133,0-1.9052734-.0498047,0,0-.2006836-1.5043945-1.1035156-3.359375.953125.0498047,1.7050781.1000977,2.4067383.1000977,3.3095703,0,3.6103516-.7021484,3.6103516-2.4067383v-12.9863281Zm-7.1201172,13.8886719c0-.5009766.050293-1.0527344.050293-1.5541992h-6.8193359c0,.902832.050293,1.8051758.050293,2.7075195h-3.409668c.1005859-2.5068359.1503906-5.5654297.1503906-8.0224609,0-2.456543-.0498047-4.3120117-.0498047-4.3120117h13.3374023v2.6074219c0,2.3564453,0,5.8164062.1000977,8.5737305h-3.409668Zm3.5600586-26.5239258h-13.6381836v9.5766602h4.4125977v-6.5683594h9.2255859v-3.0083008Zm-3.4594727,18.2509766h-6.9194336v3.8105469h6.9194336v-3.8105469Zm3.4594727-12.4350586h-6.1171875v3.7607422h6.1171875v-3.7607422Z"/>
        <path class="cls-1" d="m308.0981445,92.1826172c-5.7792969.9174805-11.2382812,1.2841797-15.5498047,1.2841797-2.2470703,0-4.2197266-.0917969-5.7792969-.2749023-5.6875-.5507812-8.8525391-3.5776367-8.8525391-7.3847656,0-2.1557617,1.0097656-4.5410156,3.1191406-6.8803711l2.6601562,1.7431641c-1.4677734,1.7885742-2.2470703,3.4858398-2.2470703,4.8618164,0,3.9907227,5.4580078,4.4033203,11.5126953,4.4033203,4.1738281,0,9.2197266-.4584961,14.9990234-2.0639648l.1376953,4.3115234Zm-18.2099609-21.2827148c1.8349609-1.2382812,3.4863281-2.2475586,5.0917969-3.4858398-3.7158203.2290039-6.5136719.3208008-9.1279297.3208008-1.3300781,0-2.6142578-.0458984-3.8994141-.0458984l-.3662109-4.0361328c.7333984.4584961,4.1279297.6879883,7.8886719.6879883,3.578125,0,7.4765625-.2294922,9.8164062-.6879883.7333984-.1376953,1.0087891-.3671875,1.1923828-.3671875.2753906,0,2.2470703,3.3027344,2.2470703,3.5322266,0,.3208008-.6416016.1831055-1.4677734.550293-1.7421875.7797852-6.4208984,3.4399414-8.7607422,5.4580078l-2.6142578-1.9262695Zm13.4853516,5.0913086c-.9169922-1.5595703-2.2021484-3.3481445-3.3486328-4.7246094l2.1103516-1.2841797c1.1923828,1.2841797,2.5224609,2.9814453,3.5771484,4.4951172l-2.3388672,1.5136719Zm3.6689453-2.0639648c-.9628906-1.5136719-2.2011719-3.2109375-3.3935547-4.5869141l2.0634766-1.2841797c1.1923828,1.2382812,2.6601562,2.8896484,3.6240234,4.4033203l-2.2939453,1.4677734Z"/>
        <path class="cls-1" d="m324.340332,88.237793c.0917969-4.9995117.3212891-13.9438477.3212891-20.6860352,0-2.3852539,0-4.4951172-.0917969-6.0546875-.0458984-.3671875-.2294922-.6879883-.2294922-.871582,0-.1376953.0917969-.1835938.2753906-.1835938h.0917969c.7792969.0458984,3.5322266.1376953,4.1738281.1835938.3671875.0458984.5507812.1376953.5507812.3666992,0,.1376953-.0917969.3671875-.2294922.6425781-.2753906.550293-.3212891.8710938-.3671875,1.6508789-.7333984,8.8984375-.8710938,17.7509766-.8710938,24.7231445,0,3.2563477,1.9716797,5.0454102,5.2285156,5.0454102,6.1923828,0,13.1181641-5.4584961,15.5957031-10.1367188.4580078,1.6967773,1.3300781,3.6694336,2.0634766,4.4033203-7.109375,7.8891602-14.3564453,9.3569336-18.0722656,9.3569336-4.953125,0-8.4394531-2.6601562-8.4394531-8.1186523v-.3212891Z"/>
        <path class="cls-1" d="m361.637207,94.246582c2.4306641-4.265625,5.9628906-14.8154297,8.0263672-23.6679688-2.0634766.0917969-4.1738281.1376953-6.5585938.1376953l-.3212891-3.6694336c1.5136719.1835938,3.3945312.3212891,5.5039062.3212891.6884766,0,1.3759766-.0458984,2.1103516-.0458984.5957031-2.84375.9628906-5.1831055,1.0546875-7.1552734v-.0458984c0-.3212891-.1376953-.6420898-.1376953-.871582,0-.1376953.0458984-.2294922.2753906-.2294922h.1376953c.9169922.0917969,2.7060547.4130859,3.8525391.6879883.3671875.0917969.5507812.2294922.5507812.4130859,0,.1376953-.0917969.2749023-.2753906.4584961-.3671875.3671875-.4589844.6420898-1.8349609,6.4672852,3.0732422-.3208008,6.1464844-.9628906,8.6230469-1.9262695l-.1826172,3.7612305c-3.2109375.7338867-6.1923828,1.1923828-9.265625,1.4677734-2.2939453,8.9443359-4.9082031,17.7509766-7.5224609,25.5942383l-4.0361328-1.6972656Zm34.859375-.1376953c-3.7148438.5507812-7.0175781.871582-9.8613281.871582-7.109375,0-10.5957031-1.972168-10.5957031-6.1918945,0-.871582.1376953-1.8349609.4589844-2.8896484l3.1191406.4584961c-.1835938.5961914-.2753906,1.1464844-.2753906,1.6513672,0,2.8896484,3.0273438,3.4858398,6.1464844,3.4858398,2.9814453,0,7.2011719-.4584961,10.640625-1.6972656l.3671875,4.3115234Zm-3.0273438-16.6958008c-1.3759766-.1835938-3.0732422-.2753906-4.8623047-.2753906-3.0722656,0-6.4667969.2753906-9.1269531.8256836l-.2294922-3.5776367c4.4492188-.4584961,9.7236328-.7338867,14.1269531-.7338867l.0917969,3.7612305Z"/>
        <path class="cls-1" d="m428.1977539,98.0078125c-4.5410156-6.4213867-10.1826172-11.8798828-15.4121094-15.5493164-1.8798828-1.3300781-2.8896484-3.0273438-2.8896484-4.7241211,0-1.6513672.9179688-3.3486328,2.7978516-4.8164062,5.4130859-4.2197266,11.0087891-9.6782227,12.5683594-12.8427734.3212891-.6420898.3671875-1.1928711.6416016-1.1928711.0458984,0,.1376953.0458984.2753906.1376953.8720703.6879883,3.8076172,3.3027344,3.8076172,3.9907227,0,.0917969-.0458984.1835938-.0917969.2290039-.0458984.0917969-.1835938.1376953-.4130859.1835938-.6425781.1376953-.8710938.2294922-1.5595703.871582-5.1367188,4.815918-8.7607422,7.4765625-13.0722656,11.375-.9169922.8256836-1.2841797,1.5136719-1.2841797,2.1103516,0,.7338867.4589844,1.3300781,1.3300781,1.9262695,5.0449219,3.7612305,11.9257812,9.402832,16.8330078,14.9072266l-3.53125,3.394043Z"/>
        <path class="cls-1" d="m445.5405273,87.9628906c2.9814453-3.3945312,6.9257812-11.6962891,9.3574219-18.9892578-1.7890625.137207-3.5322266.2290039-5.2753906.2290039-.8251953,0-1.6503906,0-2.4306641-.0458984l-.2753906-3.715332c1.3300781.2294922,2.8896484.3671875,4.6787109.3671875,1.3300781,0,2.7978516-.0917969,4.3115234-.2294922.5507812-2.0639648.9169922-3.8984375,1.0546875-5.4580078v-.7797852c0-.2753906.0458984-.4130859.2294922-.4130859h.0917969c4.0361328.7797852,4.4033203.9174805,4.4033203,1.284668,0,.137207-.1376953.3666992-.3671875.5961914-.5039062.5043945-.7333984.9628906-1.6962891,4.3115234,2.0634766-.3671875,4.1279297-.8256836,6.0078125-1.421875l-.3662109,3.715332c-2.2939453.5043945-4.5869141.871582-6.7890625,1.1923828-2.4765625,7.3388672-5.7792969,15.3198242-9.1269531,21.6040039l-3.8076172-2.2475586Zm32.8876953,6.1918945c-2.0644531-1.8344727-4.1738281-3.1645508-6.1464844-4.1279297v.3208008c0,4.0825195-4.0361328,6.0087891-8.2558594,6.0087891-4.4033203,0-8.9443359-2.1557617-8.9443359-6.1000977,0-.9633789.3203125-5.9169922,7.796875-5.9169922,1.5136719,0,3.2568359.2290039,5.1376953.6879883-.4130859-2.2475586-.9638672-4.6328125-.9638672-6.8803711,0-5.3208008,3.1191406-7.3847656,6.1923828-7.3847656.1376953,0,.3212891.0458984.4589844.0458984-1.4677734-.6879883-4.8164062-1.9262695-6.6513672-2.4311523l2.1103516-2.5683594c3.6240234,1.1464844,8.0732422,2.9814453,12.2011719,5.137207l-2.0644531,3.3022461c-1.5595703-.9628906-2.9355469-1.3759766-4.1738281-1.3759766-.6884766,0-4.7246094.2294922-4.7246094,5.2749023,0,2.3852539.7802734,5.2749023,1.3759766,8.1186523,2.6601562,1.0551758,6.0546875,2.7519531,8.9443359,4.4951172l-2.2929688,3.394043Zm-9.953125-5.6875c-2.2939453-.7338867-4.2207031-1.1005859-5.7802734-1.1005859-2.4765625,0-3.9443359.8710938-4.1279297,2.2475586,0,.137207-.0458984.2290039-.0458984.3666992,0,1.8344727,2.7060547,3.0273438,5.3212891,3.0273438,2.2929688,0,4.5410156-.9633789,4.6328125-3.2568359v-1.2841797Z"/>
        <path class="cls-1" d="m525.402832,84.0639648c0,7.7973633-7.7519531,11.237793-14.8154297,11.237793-5.9169922,0-11.375-2.3852539-11.375-6.6967773,0-2.9355469,2.2929688-5.2290039,5.4121094-5.2290039,3.7158203,0,8.0273438,2.9814453,8.1191406,8.4853516,4.4033203-.5961914,8.6689453-2.9814453,8.6689453-7.980957,0-3.8071289-3.8535156-6.4672852-9.0820312-6.4672852-5.1376953,0-11.6044922,2.5229492-17.0625,9.0361328l-3.0732422-3.1650391c5.7792969-4.5410156,14.2646484-12.5678711,18.7138672-18.3930664-10.0908203,1.5595703-11.6962891,2.1557617-12.7050781,2.6606445-.3212891.1831055-.5048828.3208008-.6425781.3208008-.4589844,0-1.2841797-3.9448242-1.3759766-4.4492188-.0458984-.0917969-.0458984-.1376953-.0458984-.1835938,0-.0913086.0458984-.137207.1376953-.137207.1835938,0,.6416016.1831055,1.2382812.1831055,2.5683594,0,12.0634766-.7797852,15.5488281-1.8344727.7802734-.1835938,1.0097656-.4130859,1.1933594-.4130859.4121094,0,3.2099609,3.4863281,3.2099609,3.578125,0,.3208008-.6875.2749023-1.5595703,1.0546875-3.1640625,2.6147461-7.3847656,6.8803711-11.3291016,10.4121094,3.3486328-1.1923828,6.3300781-1.6972656,8.9443359-1.6972656,7.4765625,0,11.7421875,4.265625,11.8798828,9.402832v.2753906Zm-20.5947266,2.3393555c-.9628906,0-1.7890625.550293-2.0185547,1.6513672-.0458984.137207-.0458984.2749023-.0458984.4125977,0,1.972168,2.8896484,3.3027344,6.421875,3.5776367-.0458984-3.6694336-2.5224609-5.6416016-4.3574219-5.6416016Z"/>
        <path class="cls-1" d="m535.2250977,90.3022461c0-3.578125,2.9355469-6.4677734,6.5126953-6.4677734,3.5322266,0,6.4677734,2.8896484,6.4677734,6.4677734,0,3.5776367-2.9355469,6.5131836-6.4677734,6.5131836-3.5771484,0-6.5126953-2.9355469-6.5126953-6.5131836Zm10.9619141,0c0-2.4770508-2.0185547-4.4951172-4.4951172-4.4951172-2.5224609,0-4.5410156,2.0180664-4.5410156,4.4951172,0,2.5224609,2.0185547,4.5405273,4.5410156,4.5405273,2.4765625,0,4.4951172-2.0180664,4.4951172-4.5405273Z"/>
      </g>
      <g>
        <path class="cls-1" d="m80.7880604,132.1381641c-.9326213,0-2.0395758.363702-3.08273.8854823-.0158485,1.2174874-.0158485,2.4032778-.0316969,3.6366136-.0158485.8220884-.6168711,1.3751593-1.5494924,1.3751593-.9013308,0-2.8141188-.6798586-2.8141188-1.9761819,0-1.5494924,2.4979622-3.1619723,3.2725052-3.6362072.0158485-.9171792.0316969-1.8498005.0316969-2.7511313-.774543.1105329-1.7551161.1739268-2.671889.2056237l-.1580783-1.2491843c.2844597.0316969.6481617.0475454,1.0594091.0475454.5372224,0,1.1540935-.0316969,1.7705582-.0792423v-.6481617c0-.5689193-.0158485-1.0594091-.0316969-1.4860986-.0158485-.1739268-.0629875-.3161566-.0629875-.3953989,0-.047139.0312906-.078836.0946844-.078836h.0316969c.3161566.0158485,1.0435606.0946844,1.3914141.1422298.1422298.0158485.1897752.0633939.1897752.1422298,0,.0633939-.0316969.1580783-.0950908.2531691-.1580783.2369143-.2527627.9167729-.3161566,1.912788.8854823-.1263814,1.7075707-.3161566,2.2451995-.5376288l-.0316969,1.2333358c-.6798586.1580783-1.454808.2844597-2.2610479.3953989-.0158485.80624-.0316969,1.5649345-.0475454,2.308187.8854823-.3953989,1.9607398-.727404,3.1148333-.727404h.2844597c2.4349747.1109393,3.6837526,1.8026615,3.6837526,3.5573713,0,1.6758738-1.169942,3.4309899-3.3988866,3.4309899-1.3438687,0-2.5772045-.774543-2.5772045-2.4032778,0-.1897752.0158485-.410841.0633939-.6323132.3791441-.0633939.7903915-.1422298,1.217081-.2686112-.078836.2844597-.1105329.5213739-.1105329.7428461,0,.9643183.6481617,1.3755657,1.3755657,1.3755657,1.0594091,0,2.2135025-.8220884,2.2135025-2.3557324,0-1.2174874-.9013308-2.308187-2.5772045-2.4191262h-.2214722Zm-6.2451087,3.6683105c0,.047139-.0158485.078836-.0158485.1105329,0,.727404,1.4389595.8696338,1.454808.8696338.2686112,0,.4900834-.1109393.5059318-.4900834.0158485-.7432525.0475454-1.6287348.0629875-2.5772045-.9484698.6481617-1.9286365,1.6917223-2.0078788,2.0871212Zm9.8817223-4.7748586c-.8537854-1.0118637-1.7709646-1.8022551-2.9726035-2.5138107l.8224948-.80624c1.0118637.5847678,2.1501087,1.4227047,3.035591,2.3557324l-.8854823.9643183Z"/>
        <path class="cls-1" d="m91.1464559,135.8064746c.0312906-1.7234192.1105329-4.8065556.1105329-7.130591,0-.8220884,0-1.5494924-.0316969-2.0871212-.0158485-.1263814-.078836-.2369143-.078836-.3003081,0-.0475454.0312906-.0633939.0946844-.0633939h.0316969c.2686112.0158485,1.2174874.0475454,1.4385532.0633939.1267877.0158485.1897752.0475454.1897752.1263814,0,.0475454-.0316969.1267877-.078836.2214722-.0950908.1897752-.1109393.3003081-.1267877.5693257-.2527627,3.0668815-.3003081,6.118321-.3003081,8.5215988,0,1.1223966.6798586,1.7392677,1.8026615,1.7392677,2.1342602,0,4.5216895-1.8814975,5.3754749-3.4943838.1580783.5851742.4583864,1.2650328.7111492,1.5177955-2.4504168,2.7194344-4.948379,3.2253662-6.2292602,3.2253662-1.7071643,0-2.9088032-.9167729-2.9088032-2.7982703v-.1105329Z"/>
        <path class="cls-1" d="m110.0418921,139.0001439c-.5059318-1.9765883-1.4068562-4.5692349-2.2923385-6.6563561-.2373206.1105329-1.2491843.5851742-1.7234192,1.0594091-.1580783.1580783-.2527627.2369143-.3320051.2369143-.1105329,0-.6164647-.6006163-.9326213-1.0906996-.0316969-.0316969-.0316969-.0633939-.0316969-.0950908,0-.0946844.2369143-.0629875.6323132-.2369143.5376288-.2214722,1.2174874-.5217803,1.9603334-.8379369-.3632956-.80624-.7111492-1.4860986-1.0273058-1.9448914-.1109393-.1580783-.2531691-.2686112-.2531691-.3320051,0-.1105329,1.2491843-.3949926,1.3597172-.3949926s.1263814.047139.1263814.1422298v.2210658c.0316969.2373206.0792423.3795505.2056237.6327196.1897752.3949926.3953989.80624.5851742,1.2646264.6953007-.2844597,1.4227047-.5530709,2.1342602-.774543-.363702-.5217803-.774543-.9960152-1.1857904-1.3914141l.9326213-.4742349c.4746413.4742349.9330277.9801667,1.3914141,1.5494924.6010226-.1422298,1.1540935-.1739268,1.4389595-.1739268,1.9920304,0,3.003894,1.2174874,3.003894,2.4821137,0,1.4389595-1.2650328,2.9409065-3.8259825,2.9409065-.2056237,0-.4429443-.0158485-.6798586-.0316969-.0633939-.3320051-.2056237-.8537854-.363702-1.2174874.4266895.0792423.80624.1263814,1.1540935.1263814,1.7547097,0,2.6243436-.9326213,2.6243436-1.8181036,0-.774543-.6798586-1.5177955-2.0078788-1.5177955-.0946844,0-.1897752.0158485-.2844597.0158485-.1263814.0158485-.2690176.0316969-.4112474.0475454.284866.410841.5693257.8537854.8379369,1.3280203l-1.1223966.5689193c-.2844597-.5530709-.6006163-1.0906996-.9171792-1.5966314-.7269976.2214722-1.549086.5217803-2.308187.8537854.8537854,1.9603334,1.7551161,4.2843689,2.5455076,6.6401013l-1.2333358.4746413Z"/>
        <path class="cls-1" d="m123.0721765,138.7628233c.0158485-1.4860986.0629875-3.0514394.1105329-4.6480709-.6481617.7428461-1.2804749,1.5649345-1.8181036,2.4345683-.2373206.3478535-.2686112.5693257-.3320051.5693257-.1263814,0-.9330277-1.1540935-.9330277-1.3280203,0-.1109393.1897752-.1109393.4429443-.3953989.7428461-.80624,1.7705582-2.2135025,2.7511313-4.1579875.0154421-.4587928.047139-.9330277.0629875-1.4072626-.6323132.1739268-1.912788.6006163-2.27649.8379369-.1267877.0792423-.1580783.1105329-.1897752.1105329-.0792423,0-.4112474-1.4227047-.4112474-1.5649345,0-.0316969.0158485-.0475454.0475454-.0475454.0633939,0,.1897752.0475454.4112474.0475454.3320051,0,1.4385532-.1897752,2.4821137-.4587928.0316969-.8850759.0629875-1.6758738.0629875-2.1976541v-.3003081c0-.2369143-.078836-.3949926-.078836-.4742349,0-.0475454.0316969-.0633939.1263814-.0633939h.0316969c1.501947.0792423,1.6283284.0950908,1.6283284.2214722,0,.0633939-.047139.1422298-.1105329.2056237-.1580783.2214722-.2686112.4900834-.442538,2.1818056.1580783-.0792423.2210658-.1263814.2844597-.1263814.1263814,0,.9643183.774543.9643183.8537854,0,.078836-.1580783.1263814-.3478535.3320051-.363702.3949926-.7428461.9167729-1.138245,1.533644-.0158485.2210658-.0316969.4266895-.0475454.6481617,2.671889-2.9726035,3.9844671-3.320457,4.6956163-3.320457,1.0435606,0,1.81851.7749494,1.81851,2.3085933v.2210658c-.2373206,4.9170885-.2373206,4.9487854-.2373206,5.0434698,0,.5693257.1897752.8696338.5693257.8696338.4742349,0,1.2016389-.442538,2.2135025-1.4544016.078836.4742349.2686112,1.0277121.4583864,1.4231111-1.2174874,1.0431542-2.1818056,1.4544016-2.9092096,1.4544016-1.0752575,0-1.6124799-.9013308-1.6124799-2.0237273v-.0950908c.047139-1.3438687.2052173-3.2408083.2844597-5.2962325v-.1105329c0-.648568-.1422298-1.2016389-.6798586-1.2016389-.9801667,0-3.3358991,2.1501087-4.6480709,3.4939774-.0158485.5059318-.0316969,1.0118637-.0316969,1.533644,0,1.4544016.078836,2.9246517.2527627,4.2843689l-1.4544016.0633939Z"/>
        <path class="cls-1" d="m136.0862061,135.7113838c1.0277121-1.169942,2.3874293-4.0316062,3.2253662-6.5454168-.6164647.0475454-1.217081.078836-1.8181036.078836-.2844597,0-.5693257,0-.8379369-.0154421l-.0946844-1.2808812c.4583864.0792423.9960152.1263814,1.6124799.1263814.4583864,0,.9643183-.0312906,1.4860986-.078836.1897752-.7115555.3161566-1.3438687.363702-1.8814975v-.2686112c0-.0950908.0158485-.1426362.0792423-.1426362h.0312906c1.3914141.2690176,1.5177955.316563,1.5177955.4429443,0,.0475454-.047139.1263814-.1263814.2056237-.1739268.1739268-.2527627.3320051-.5847678,1.4860986.7111492-.1263814,1.4227047-.2844597,2.0708663-.4900834l-.1263814,1.2804749c-.7903915.1739268-1.580783.3003081-2.3398839.4112474-.8537854,2.5296591-1.9920304,5.2803841-3.1461239,7.4467476l-1.3125782-.7749494Zm11.3361239,2.1342602c-.7115555-.6323132-1.4385532-1.0906996-2.1184117-1.4227047v.1105329c0,1.4072626-1.3914141,2.0712727-2.8458157,2.0712727-1.5177955,0-3.0831364-.7432525-3.0831364-2.1029696,0-.3320051.1105329-2.0391694,2.6877374-2.0391694.5217803,0,1.1223966.078836,1.7709646.2369143-.1426362-.774543-.3320051-1.5966314-.3320051-2.3715808,0-1.8339521,1.0748512-2.5455076,2.1342602-2.5455076.0475454,0,.1105329.0158485.1580783.0158485-.5059318-.2369143-1.6600253-.6640101-2.2923385-.8379369l.7269976-.8854823c1.2491843.3953989,2.7828282,1.0277121,4.2055329,1.7709646l-.7115555,1.138245c-.5372224-.3320051-1.0118637-.4742349-1.4385532-.4742349-.2373206,0-1.6283284.0792423-1.6283284,1.8181036,0,.8220884.2686112,1.8181036.4742349,2.7986767.9167729.3632956,2.0867148.9484698,3.0831364,1.549086l-.7907979,1.169942Zm-3.4305835-1.9603334c-.7907979-.2527627-1.454808-.3795505-1.9924368-.3795505-.8537854,0-1.3597172.3007145-1.4227047.7749494,0,.047139-.0158485.078836-.0158485.1263814,0,.6323132.9326213,1.0435606,1.8339521,1.0435606.7903915,0,1.5653409-.3320051,1.5970378-1.1228029v-.442538Z"/>
        <path class="cls-1" d="m153.9071976,134.1460429v2.5296591c0,.5059318.2527627.7115555.9167729.7591009,1.169942.0633939,2.4979622.1105329,3.8259825.1105329,1.3284266,0,2.6564469-.047139,3.762995-.1105329.8379369-.0633939,1.1540935-.5534772,1.3597172-2.9092096.5217803.363702,1.2016389.6010226,1.2016389.6010226-.363702,2.7507249-.8379369,3.3517476-2.2135025,3.4305835-1.2491843.0792423-2.7035859.1109393-4.1262906.1109393-1.5023534,0-2.9884519-.0316969-4.1742424-.1109393-1.3121718-.078836-1.7547097-.7269976-1.7547097-1.7388613v-6.6246592c-.4429443.363702-.9330277.727404-1.4706565,1.0748512,0,0-.1422298-.7269976-.4900834-1.2487779,2.3244418-1.3121718,3.9686187-3.4309899,4.3636112-4.4270051.0792423-.2056237.0633939-.3320051.1739268-.3320051.0158485,0,.0475454,0,.0792423.0158485.1105329.0316969,1.2963233.3003081,1.2963233.5534772,0,.0629875-.047139.1263814-.1580783.1897752-.2369143.1263814-.363702.2527627-.5059318.4900834h3.8576794c.1739268,0,.3161566-.0475454.4429443-.1422298.047139-.0316969.078836-.0475454.1263814-.0475454.078836,0,1.0906996.6640101,1.0906996.8220884,0,.1897752-.442538.3478535-.5530709.5059318-.4429443.5847678-.9171792,1.1857904-1.4231111,1.7392677h3.6996011v4.7586038h-9.3278387Zm1.4068562-6.6401013c-.4266895.6323132-1.0590027,1.3597172-1.7234192,1.8814975h4.490399c.6323132-.6168711,1.1857904-1.2491843,1.6124799-1.8814975h-4.3794597Zm1.9448914,2.8933611h-3.3517476v2.719028h3.3517476v-2.719028Zm4.7744523,0h-3.6362072v2.719028h3.6362072v-2.719028Z"/>
        <path class="cls-1" d="m168.2809444,139.1106768c.0633939-2.5296591.1105329-4.7431617.1105329-6.4190355,0-.6164647,0-1.1540935-.0154421-1.6124799-.3953989.7269976-.8383433,1.4227047-1.2808812,2.0237273,0,0-.1422298-.727404-.5376288-1.2967297,1.3755657-1.865649,2.3244418-3.9365154,2.8933611-6.0077881.0792423-.2686112,0-.5217803.1422298-.5217803h.0316969c1.2963233.2844597,1.3121718.4112474,1.3121718.4742349,0,.0792423-.078836.1739268-.1580783.2531691-.1580783.1422298-.2844597.3478535-.3478535.5376288-.2686112.7269976-.6481617,1.6758738-1.1065481,2.671889,0,0,.1739268.0312906.3320051.0629875.1105329.0158485.1422298.0633939.1422298.1267877,0,.078836-.0633939.1893689-.1422298.3161566-.1105329.1739268-.1580783.7428461-.1580783,3.1144269,0,1.4860986.0316969,3.5890682.1105329,6.2768056h-1.3280203Zm7.6048259-5.5018562c-.1422298,1.169942-.5059318,2.1025633-1.0435606,2.8458157,1.533644.9960152,3.3517476,1.1857904,5.9448006,1.2804749-.4270959.6323132-.5693257,1.2016389-.5693257,1.2016389-2.3874293-.2056237-4.3160658-.442538-6.0711819-1.6758738-.9009244.8220884-2.0867148,1.3914141-3.4939774,1.8339521,0,0-.1580783-.6640101-.6957071-1.1857904,1.454808-.3003081,2.5138107-.7903915,3.2570631-1.3914141-.5217803-.5059318-1.1540935-1.2804749-1.6600253-2.0395758l.8379369-.5847678c.4900834.7903915,1.0118637,1.3280203,1.533644,1.8181036.4266895-.5847678.6640101-1.2963233.7903915-2.1025633h-3.367596v-4.5533865h3.5415228c0-.4429443-.0158485-.9647246-.0158485-1.3438687-1.4231111,0-2.8616642.0312906-4.2372299.0629875v-1.1857904c.6957071.0158485,1.3914141.0475454,2.0871212.0633939s1.4068562.0158485,2.1025633.0316969c-.0316969-.4587928-.047139-.727404-.1105329-.9330277-.0475454-.1739268-.0950908-.3003081-.0950908-.363702,0-.078836.0475454-.1105329.1584847-.1105329h.0629875c.3953989.0316969.8854823.0792423,1.3280203.1580783.0950908.0158485.1422298.0633939.1422298.1422298,0,.0792423-.047139.1897752-.1105329.3161566-.1422298.3007145-.1422298.5059318-.1422298.7907979,1.4860986,0,2.9880456-.0316969,4.5216895-.0950908v1.1857904c-1.533644-.0475454-3.035591-.0629875-4.5216895-.0629875v1.3438687h3.5256743v4.5533865h-3.6996011Zm-1.0752575-1.0435606c.0475454-.727404.0633939-1.5811894.0792423-2.4666716h-2.4191262v2.4666716h2.3398839Zm3.6524621-2.4666716h-2.4191262c-.0158485.8854823-.0475454,1.7551161-.0633939,2.4666716h2.4825201v-2.4666716Z"/>
        <path class="cls-1" d="m186.3071532,137.6875657c-1.7234192,0-2.308187-2.7982703-2.308187-5.6282376,0-1.2333358.1105329-2.671889.3161566-4.3164722,0-.047139.0158485-.0946844.0158485-.1263814,0-.1422298-.0316969-.2369143-.0316969-.3003081,0-.0475454.0158485-.0792423.078836-.0792423.0316969,0,.0633939,0,.1109393.0158485.3320051.0633939,1.4860986.3478535,1.4860986.5059318,0,.0633939-.0475454.1422298-.1105329.2214722-.5059318.7432525-.6957071,3.0197425-.6957071,4.1108485,0,.8220884.2210658,4.2843689,1.1540935,4.2843689.2056237,0,.8379369-.1105329,2.4662653-2.4504168.2214722.410841.5059318.8696338.7432525,1.138245-1.5494924,1.9761819-2.3240354,2.6243436-3.2253662,2.6243436Zm8.1737452-2.2606416v-.1109393c0-2.0078788-.80624-4.4582957-1.9920304-5.9919396l1.1857904-.3161566c1.2333358,1.7547097,2.0554242,3.9052248,2.1659571,6.1028789l-1.3597172.3161566Z"/>
        <path class="cls-1" d="m204.7287609,139.0631314c-.6010226-2.4028714-1.7075707-5.5494016-2.7986767-8.0949093-1.2804749.6168711-1.8814975,1.0118637-2.1342602,1.2967297-.2056237.2052173-.3003081.2844597-.3795505.2844597-.0633939,0-.1263814-.0633939-.2214722-.1897752-.3161566-.3161566-.9167729-1.091106-.9167729-1.2174874,0-.1105329.2686112-.0629875.774543-.2686112.6798586-.2690176,1.4860986-.6323132,2.3874293-1.0118637-.4583864-.9960152-.9013308-1.865649-1.2650328-2.4191262-.1263814-.2056237-.2686112-.3003081-.2686112-.3795505,0-.0946844,1.533644-.4583864,1.5811894-.4583864.0946844,0,.1263814.0475454.1263814.1263814,0,.0633939-.0158485.1426362-.0158485.2373206v.078836c.0475454.2531691.1105329.4429443.2373206.7115555.2527627.5217803.5059318,1.0594091.7586946,1.6287348.8854823-.363702,1.8181036-.7115555,2.6877374-.9805731-.4742349-.6323132-.9643183-1.2012325-1.4702501-1.6917223l1.0752575-.5530709c.5689193.5689193,1.1223966,1.2016389,1.6758738,1.8969396.80624-.1735204,1.4385532-.2369143,1.8181036-.2369143,2.3715808,0,3.5890682,1.4544016,3.5890682,2.9880456,0,1.7234192-1.5177955,3.5415228-4.6484773,3.5415228-.2527627,0-.5059318,0-.774543-.0316969-.0792423-.3949926-.2214722-.9484698-.3953989-1.3751593.4742349.0946844.9171792.1263814,1.3280203.1263814,2.1818056,0,3.2412147-1.169942,3.2412147-2.2768964,0-.9643183-.8220884-1.865649-2.4349747-1.865649-.3791441,0-.6481617.0475454-.9960152.0950908.363702.5059318.7115555,1.0435606,1.0594091,1.6283284l-1.2963233.6481617c-.3478535-.6640101-.727404-1.3121718-1.1228029-1.9286365-.9326213.2844597-1.9286365.6640101-2.8616642,1.0748512,1.0594091,2.4666716,2.150515,5.3124874,3.0831364,8.0790608l-1.4227047.5376288Z"/>
        <path class="cls-1" d="m217.8061844,138.8103687c-1.0277121-1.2333358-2.2927449-2.4825201-3.4151414-3.4785353l.8220884-.7586946c1.2016389.9167729,2.593053,2.1818056,3.6679042,3.1619723l-1.0748512,1.0752575Z"/>
        <path class="cls-1" d="m240.6702393,139.1106768c.0158485-.3003081.0158485-.6481617.0158485-1.0277121h-7.573129c.0158485.3795505.0158485.727404.0316969,1.0277121h-1.3442751c.0633939-1.865649.0633939-5.7391769.0633939-8.5374472v-3.2570631h3.5256743c.4429443-.6323132.7432525-1.2808812.8379369-1.6917223.0475454-.2844597.0158485-.363702.1267877-.363702h.0629875c1.3121718.2056237,1.3597172.3320051,1.3597172.4112474,0,.0629875-.0475454.1422298-.1422298.2210658-.2531691.2056237-.3161566.3161566-.3795505.4429443-.1580783.3003081-.363702.6481617-.5689193.9801667h5.2645356v3.2412147c0,2.7982703,0,6.6717982.0633939,8.5532957h-1.3438687Zm.0633939-7.7470557h-7.6682198c.0158485.6481617.0158485,1.3755657.0158485,2.1025633h7.6523713v-2.1025633Zm0-2.9250581h-7.6523713v1.8339521h7.6523713v-1.8339521Zm-7.6523713,6.1187273c0,.8220884,0,1.6441769.0158485,2.4032778h7.6048259c.0158485-.7432525.0158485-1.5653409.0316969-2.4032778h-7.6523713Z"/>
        <path class="cls-1" d="m259.5026881,129.7352927c-.7115555-.0158485-1.8339521-.0316969-2.9880456-.0475454.5217803,1.9131944,1.580783,3.5573713,3.3358991,4.6322224-.5376288.5376288-.7432525,1.2016389-.7432525,1.2016389-1.533644-1.3121718-2.8616642-2.9721971-3.5415228-5.5177047-.6640101,2.6560405-1.8181036,4.1421391-4.0633031,5.3754749,0,0-.1893689-.5693257-.6640101-1.0752575,2.0871212-.9326213,3.1936693-2.3870229,3.6683105-4.6322224h-2.1663635c-1.1853841,2.3715808-2.8299673,4.2055329-6.0553335,5.7867223,0,0-.1580783-.6168711-.6640101-1.1228029,1.3597172-.4742349,2.4032778-1.2016389,3.1778208-1.9286365-.80624-1.091106-1.8022551-1.8498005-1.8022551-1.8498005l.7903915-.6327196s.9964216.7907979,1.81851,1.7392677c.3161566-.2686112.6481617-.6481617.8696338-1.0594091-.8066463-.9009244-1.9131944-1.6124799-1.9131944-1.6124799l.7428461-.6957071s.8854823.5693257,1.7709646,1.3755657c.442538-.6323132.6640101-1.2333358.8537854-1.8814975h-3.035591c-.6481617.9960152-1.5494924,2.0078788-2.5772045,2.7669798,0,0-.2056237-.6481617-.6164647-1.1069545,1.6283284-.9326213,2.8458157-2.9721971,3.035591-3.8259825.0475454-.2686112-.0158485-.363702.1422298-.363702.0475454,0,.0792423,0,.1422298.0158485,1.169942.1580783,1.1857904.3161566,1.1857904.363702s-.0475454.1263814-.1580783.2056237c-.1422298.1105329-.2373206.2369143-.2686112.3161566-.0792423.2056237-.1897752.410841-.3007145.6164647h2.4191262c.1739268,0,.3003081-.0475454.4270959-.1422298.0312906-.0316969.078836-.0475454.1105329-.0475454.0475454,0,.0946844.0158485.1422298.0475454.8696338.4742349.9801667.5693257.9801667.6957071,0,.1739268-.3320051.3478535-.3791441.4742349-.1109393.2686112-.2531691.5693257-.363702.8220884h1.8498005c.0629875-.6164647.078836-1.2333358.078836-1.7547097,0-.5693257-.0158485-1.0118637-.0475454-1.1703483-.0312906-.1263814-.047139-.2369143-.047139-.3003081,0-.0946844.0316969-.1263814.1263814-.1263814.2531691,0,1.0594091.1422298,1.3121718.2056237.0792423.0316969.1267877.0629875.1267877.1263814s-.0475454.1422298-.1109393.2373206c-.1422298.2052173-.1897752.3791441-.1897752.5847678-.0158485.4112474-.0316969,1.2808812-.1263814,2.1976541,1.3914141-.0158485,2.8458157-.0316969,3.7154496-.078836v1.1857904Zm-11.4625053,5.3754749c.3320051.0629875.7115555.1422298,1.0277121.2527627.1263814.0316969.2056237.0950908.2056237.1739268,0,.0475454-.0475454.1263814-.1267877.2056237-.2210658.2214722-.2527627.2527627-.3320051.442538-.410841,1.0435606-.9326213,1.8814975-1.8022551,2.9250581,0,0-.4900834-.442538-1.0752575-.727404,1.0277121-.9009244,1.7234192-2.1501087,1.8973459-2.8933611.0792423-.2844597.0316969-.3791441.1422298-.3791441h.0633939Zm2.5772045,3.8735279c.0158485-.3953989.0312906-.7907979.0312906-1.1540935,0-.7591009-.047139-1.4865049-.1263814-2.2610479l1.1069545-.0475454c.1422298.9960152.2210658,1.9765883.2210658,3.0989848v.3161566l-1.2329295.0475454Zm3.6679042-.0158485c-.1422298-1.2016389-.3953989-2.2610479-.8220884-3.3358991l1.1223966-.1580783c.4270959,1.0118637.727404,2.0708663.9171792,3.3200506l-1.2174874.1739268Zm4.173836.1422298c-.6164647-1.3755657-1.169942-2.3874293-1.9761819-3.5732197l1.0594091-.3953989c.8379369,1.1069545,1.4702501,2.2135025,2.0550179,3.4309899l-1.138245.5376288Zm-.2844597-10.861889s-.6481617-1.0906996-1.6758738-1.9761819l.774543-.5534772c.9171792.7749494,1.7392677,1.8343585,1.7392677,1.8343585l-.8379369.6953007Z"/>
        <path class="cls-1" d="m268.8175229,136.6915505c3.2408083,0,4.8536946-2.1976541,4.8536946-4.4111566,0-1.9920304-1.3438687-3.9999092-4.0316062-4.3319143-.6168711,4.458702-2.6405984,9.80248-4.7273132,9.80248-1.1540935,0-2.6247499-1.8181036-2.6247499-4.3477628,0-3.0989848,2.1501087-6.5612653,6.5141263-6.5612653,3.9206669,0,6.1341694,2.5613561,6.1341694,5.5177047,0,2.640192-1.8498005,5.3279295-5.5018562,5.7233284-.1422298-.4266895-.4112474-.9326213-.7749494-1.3914141h.1584847Zm-5.3283359-3.3517476c0,1.6441769.7432525,2.9726035,1.4389595,2.9726035.3003081,0,.6006163-.2056237.8850759-.6327196,1.169942-1.8022551,2.2610479-4.9642275,2.6089015-7.7941948-3.2253662.2210658-4.9329369,2.9405002-4.9329369,5.4543108Z"/>
        <path class="cls-1" d="m279.6968859,131.8854014c-.6957071-.8537854-1.6124799-1.7234192-2.4504168-2.3398839l.7907979-.7432525c.8696338.6164647,1.8181036,1.3914141,2.5455076,2.2135025l-.8858887.8696338Zm1.454808,1.8022551c-.7907979,1.7075707-1.7864067,3.5890682-2.308187,4.458702-.1105329.1739268-.1901816.3003081-.2690176.5376288-.0633939.2052173-.1105329.3003081-.1893689.3003081-.1901816,0-.9964216-.9647246-.9964216-1.1069545,0-.0629875.0950908-.0946844.2056237-.2210658.7591009-.7907979,2.0399822-3.1936693,2.7194344-4.9963308l.8379369,1.0277121Zm-.4900834-5.2332451c-.727404-.8854823-1.5970378-1.6917223-2.4032778-2.308187l.7907979-.727404c.774543.5217803,1.7392677,1.3438687,2.4975558,2.1659571l-.8850759.8696338Zm10.8143436,10.1503335c-1.7392677-.0475454-3.5573713-.0633939-5.3600328-.0633939-1.9757755,0-3.9206669.0158485-5.6916315.0633939v-1.1857904c.4583864.0158485.9964216.0316969,1.4702501.0475454v-4.9487854h8.4744597v4.9329369c.3641084-.0158485.7591009-.0316969,1.1069545-.0316969v1.1857904Zm-9.0596339-7.2569724v-5.4230203h7.0676035v5.4230203h-7.0676035Zm1.8977523,2.1976541h-1.3125782v3.9527702c.4266895,0,.8850759,0,1.3125782.0154421v-3.9682123Zm4.0628967-6.6088107h-4.8536946v1.2016389h4.8536946v-1.2016389Zm0,2.1029696h-4.8536946v1.2963233h4.8536946v-1.2963233Zm-1.6287348,4.5058411h-1.4068562v3.9682123h1.4068562v-3.9682123Zm2.5146234,0h-1.4865049v3.9527702c.4900834,0,1.0118637,0,1.4865049-.0158485v-3.9369217Z"/>
        <path class="cls-1" d="m301.691307,134.4150605c-.3007145.0316969-.648568.0475454-1.0118637.0475454-.5689193,0-1.2174874-.0475454-1.8969396-.1267877-.0950908.727404-.1105329.9488762-.1105329,1.0435606,0,1.3914141,1.0590027,2.3240354,2.2602352,2.3240354,1.6921286,0,2.7194344-1.2016389,2.7194344-2.640192,0-.9960152-.4738285-2.0871212-1.5653409-2.9880456.3641084-.0950908.8696338-.2690176,1.1857904-.4270959,1.1069545,1.1069545,1.5970378,2.3715808,1.5970378,3.5098259,0,2.0395758-1.533644,3.731298-3.9206669,3.731298-1.9603334,0-3.4313963-1.3597172-3.4313963-3.4622805,0-.1897752,0-.3795505.0316969-.5851742.0316969-.2369143.0633939-.4900834.0950908-.7586946-1.8498005-.5217803-2.1342602-1.4860986-2.1342602-2.0871212,0-.6006163.3161566-1.2174874.8696338-1.6917223l.7428461.6168711c-.3161566.2210658-.5689193.6006163-.5689193.9643183,0,.4583864.3478535.80624,1.2646264,1.0277121.1422298-1.0277121.3161566-2.150515.4746413-3.2412147-.6640101-.2686112-1.2337422-.5851742-1.7392677-.9960152l.2844597-1.2808812c.3478535.3953989.9167729.7749494,1.6124799,1.091106.1267877-.9013308.2218785-1.7234192.2690176-2.3557324v-.0950908c0-.1422298-.0316969-.2527627-.0316969-.3161566,0-.047139.0154421-.0629875.0633939-.0629875.0316969,0,.047139,0,.078836.0158485.2527627.0629875,1.0590027.3003081,1.3751593.3949926.1584847.0316969.2218785.0950908.2218785.1422298,0,.0633939-.0633939.1267877-.1267877.2056237-.2373206.284866-.3315987.7749494-.6957071,2.5138107.5697321.1739268,1.1540935.284866,1.7075707.284866.0950908,0,.1901816-.0158485.2844597-.0158485l-.1893689,1.2487779c-.7111492-.0946844-1.375972-.2210658-1.9920304-.3949926-.1739268,1.0118637-.3478535,2.0867148-.4746413,3.08273.4746413.0633939.9801667.1109393,1.4702501.1109393.5217803,0,1.0281185-.0475454,1.4710628-.1422298l-.1901816,1.3121718Z"/>
        <path class="cls-1" d="m312.4763919,134.84175c-.4112474-.9643183-.5217803-2.308187-.5217803-3.6679042,0-1.7392677.1893689-3.5098259.2844597-4.5058411v-.0792423c0-.0946844-.0154421-.1739268-.0154421-.2210658,0-.0475454.0154421-.0633939.0633939-.0633939.0154421,0,.047139,0,.078836.0158485,1.5173891.363702,1.549086.442538,1.549086.5376288,0,.047139-.0316969.0946844-.0950908.1422298-.173114.1422298-.2682048.3003081-.3315987.6006163-.2056237.9171792-.3949926,2.1818056-.3949926,3.3358991,0,.4746413.0316969.9330277.1105329,1.3284266l1.1695356-2.1029696.648568.4583864c-.9484698,1.865649-1.1386514,2.8933611-1.2020453,3.9844671l-1.3434623.2369143Zm6.0711819-2.1025633c.0154421-.2531691.0316969-.5851742.0316969-.9647246,0-1.6283284-.1739268-4.0787452-.3478535-4.948379-.047139-.2056237-.1584847-.363702-.1584847-.4583864,0-.0316969.0316969-.0633939.1113456-.0633939,1.7547097,0,1.7864067.1580783,1.7864067.2373206,0,.047139-.0316969.1105329-.0633939.1893689-.1267877.3161566-.1267877.4587928-.1267877,1.2650328,0,1.0594091.0950908,2.4032778.0950908,3.6837526,0,1.4385532,0,5.9131036-5.1698512,7.5255836-.2527627-.4583864-.6640101-.9167729-1.0752575-1.2804749,2.877919-.442538,4.6797678-2.4349747,4.9170885-5.1856997Z"/>
        <path class="cls-1" d="m330.771212,137.513639c-.1267877-.2686112-.2373206-.5372224-.3315987-.8220884-1.2020453.8696338-2.3398839,1.4072626-3.1623787,1.4072626s-1.2646264-.6006163-1.2646264-1.6124799c0-1.5811894,1.1540935-3.9369217,3.7467401-5.1227122.0316969-.80624.078836-1.6283284.1422298-2.3874293-.5534772.0316969-1.0906996.0475454-1.5970378.0475454-.5689193,0-1.0906996-.0158485-1.533644-.0633939l-.0942781-1.2487779c.6477553.1580783,1.4856922.2210658,2.4032778.2210658.2999018,0,.6006163,0,.9167729-.0158485.0633939-.6640101.1105329-1.2329295.1105329-1.6124799v-.1580783c-.0154421-.2056237-.0633939-.363702-.0633939-.4429443,0-.047139.0316969-.078836.0950908-.078836.0154421,0,.047139,0,.0950908.0158485.8216821.1422298,1.580783.2844597,1.580783.410841,0,.0633939-.047139.1267877-.1105329.2214722-.1901816.2056237-.3161566.5376288-.5063382,1.5653409,1.4702501-.1263814,2.909616-.3953989,3.8418309-.7749494l-.047139,1.2967297c-.9330277.2210658-2.27649.410841-3.9523638.5376288-.078836.6323132-.1584847,1.3438687-.1739268,2.0550179.6957071-.2052173,1.3914141-.3003081,2.1976541-.3320051h.2690176c3.1778208,0,4.7114648,1.8814975,4.7114648,3.8422373,0,2.0708663-1.7075707,4.2213814-4.9967372,4.3636112-.125975-.3320051-.4421316-.8854823-.7428461-1.2491843.1739268.0158485.3324114.0158485.4900834.0158485,2.6722953,0,3.9686187-1.6124799,3.9686187-3.1619723,0-1.091106-.6640101-2.150515-1.9448914-2.5613561-1.0273058,1.5177955-2.2610479,3.003894-3.3517476,3.9840608.1422298.4112474.3324114.7749494.5534772,1.091106l-1.2491843.5689193Zm-1.0118637-4.9642275c-1.8026615,1.0435606-2.5926466,2.9880456-2.5926466,3.8576794,0,.3478535.1422298.4900834.4112474.4900834.5217803,0,1.4539952-.4900834,2.5292528-1.3597172-.1739268-.7903915-.3161566-1.8814975-.3478535-2.9880456Zm3.6996011-.9330277c-.80624,0-1.9603334.1739268-2.6089015.4746413.0316969.8850759.1113456,1.7547097.2690176,2.5609497.8696338-.8220884,1.7864067-1.8969396,2.4504168-3.035591h-.1105329Z"/>
        <path class="cls-1" d="m345.7776783,133.3714999c-1.3280203,1.2491843-1.9603334,1.7392677-3.1461239,2.9250581-.1584847.1422298-.2218785.2210658-.3007145.4742349-.0316969.1105329-.078836.1580783-.1105329.1580783-.047139,0-.1105329-.0633939-.2056237-.1580783-.2690176-.3320051-.6168711-.7591009-.8696338-1.138245-.0316969-.0475454-.047139-.0792423-.047139-.0950908,0-.078836.1893689-.078836.4429443-.2527627.9639119-.5693257,2.3398839-1.7075707,3.6199524-2.9092096l.6168711.9960152Zm3.9206669-4.4428536c-.3315987-.1422298-.6794522-.2210658-1.0118637-.2210658-.8850759,0-1.7384549.4742349-1.7384549,1.4860986,0,.6164647.3478535,1.3755657,1.2483715,2.1501087,1.3125782,1.138245,2.0871212,2.2768964,2.0871212,3.367596,0,.9330277-.5851742,2.3874293-2.9250581,2.3874293-.727404,0-1.4702501-.1422298-1.9757755-.3003081-.0316969-.5217803-.0950908-1.1069545-.2218785-1.6600253.601429.410841,1.454808.6164647,2.182212.6164647.9956088,0,1.533644-.3320051,1.533644-1.0594091,0-.80624-.7428461-1.8022551-1.5182019-2.4979622-1.1223966-1.0118637-1.5173891-2.0395758-1.5173891-2.8933611,0-1.7234192,1.2491843-2.0867148,1.6596189-2.1342602-.7428461-.2056237-2.0391694-.5059318-3.1461239-.6798586l.4112474-1.0277121c1.4865049.2214722,3.7946919.7432525,5.3283359,1.2333358l-.3958053,1.2329295Zm3.4947901,6.8932704c-.6168711-1.3751593-1.8026615-2.9563486-2.7990831-3.9365154l.9647246-.5851742c1.0752575,1.0752575,2.2610479,2.5296591,3.0672879,3.8418309l-1.2329295.6798586Z"/>
        <path class="cls-1" d="m360.2623643,138.7628233c.0154421-1.4860986.0633939-3.0514394.1105329-4.6480709-.6477553.7428461-1.2808812,1.5649345-1.8181036,2.4345683-.2373206.3478535-.2690176.5693257-.3324114.5693257-.125975,0-.932215-1.1540935-.932215-1.3280203,0-.1109393.1893689-.1109393.4421316-.3953989.7436588-.80624,1.7709646-2.2135025,2.7511313-4.1579875.0162548-.4587928.0479518-.9330277.0633939-1.4072626-.6323132.1739268-1.9131944.6006163-2.27649.8379369-.1267877.0792423-.1584847.1105329-.1901816.1105329-.078836,0-.4104347-1.4227047-.4104347-1.5649345,0-.0316969.0154421-.0475454.047139-.0475454.0633939,0,.1893689.0475454.4112474.0475454.3315987,0,1.4385532-.1897752,2.4821137-.4587928.0316969-.8850759.0633939-1.6758738.0633939-2.1976541v-.3003081c0-.2369143-.0796487-.3949926-.0796487-.4742349,0-.0475454.0316969-.0633939.1267877-.0633939h.0316969c1.501947.0792423,1.6287348.0950908,1.6287348.2214722,0,.0633939-.0479518.1422298-.1113456.2056237-.1576719.2214722-.2682048.4900834-.4421316,2.1818056.1576719-.0792423.2210658-.1263814.2844597-.1263814.1267877,0,.9647246.774543.9647246.8537854,0,.078836-.1584847.1263814-.3478535.3320051-.3641084.3949926-.7436588.9167729-1.1386514,1.533644-.0154421.2210658-.0316969.4266895-.047139.6481617,2.6714826-2.9726035,3.9840608-3.320457,4.6952099-3.320457,1.0435606,0,1.8181036.7749494,1.8181036,2.3085933v.2210658c-.2365079,4.9170885-.2365079,4.9487854-.2365079,5.0434698,0,.5693257.1893689.8696338.5689193.8696338.4738285,0,1.2012325-.442538,2.2130962-1.4544016.0796487.4742349.2690176,1.0277121.4583864,1.4231111-1.2166746,1.0431542-2.1813992,1.4544016-2.9088032,1.4544016-1.0752575,0-1.6124799-.9013308-1.6124799-2.0237273v-.0950908c.047139-1.3438687.2056237-3.2408083.2844597-5.2962325v-.1105329c0-.648568-.1422298-1.2016389-.680265-1.2016389-.9801667,0-3.3354927,2.1501087-4.6480709,3.4939774-.0154421.5059318-.0316969,1.0118637-.0316969,1.533644,0,1.4544016.0796487,2.9246517.2535755,4.2843689l-1.454808.0633939Z"/>
        <path class="cls-1" d="m384.9924746,134.3675151c0,2.6877374-2.6722953,3.8735279-5.1072701,3.8735279-2.0391694,0-3.9206669-.8220884-3.9206669-2.308187,0-1.0118637.7899851-1.8026615,1.8652426-1.8026615,1.2808812,0,2.7673861,1.0277121,2.7982703,2.9250581,1.5182019-.2056237,2.9884519-1.0277121,2.9884519-2.7511313,0-1.3121718-1.3280203-2.2289446-3.1306818-2.2289446-1.7701518,0-3.9995029.8696338-5.8810003,3.1144269l-1.0598154-1.0906996c1.9928431-1.5653409,4.9170885-4.3323207,6.4507324-6.3401995-3.4777226.5376288-4.0311998.7432525-4.3790533.9171792-.1105329.0629875-.1739268.1105329-.2218785.1105329-.1576719,0-.4421316-1.3597172-.4738285-1.533644-.0162548-.0316969-.0162548-.047139-.0162548-.0629875,0-.0316969.0162548-.0475454.0479518-.0475454.0633939,0,.2210658.0633939.4266895.0633939.8850759,0,4.1579875-.2690176,5.3600328-.6327196.2682048-.0629875.3478535-.1422298.4104347-.1422298.1422298,0,1.1069545,1.2016389,1.1069545,1.2333358,0,.1105329-.2373206.0946844-.5372224.363702-1.0915124.9009244-2.5455076,2.3715808-3.9052248,3.5886618,1.1540935-.410841,2.1813992-.5847678,3.08273-.5847678,2.5772045,0,4.0474546,1.4702501,4.0954064,3.2412147v.0946844Zm-7.0993004.80624c-.3315987,0-.6168711.1897752-.6957071.5693257-.0154421.0475454-.0154421.0946844-.0154421.1422298,0,.6798586.9956088,1.138245,2.2130962,1.2333358-.0154421-1.2650328-.8696338-1.9448914-1.501947-1.9448914Z"/>
        <path class="cls-1" d="m392.5834839,139.1106768c.0316969-1.0277121.047139-2.1818056.078836-3.3517476-1.0752575.5059318-2.3398839.9960152-3.3200506,1.3438687-.2056237.078836-.3949926.1897752-.5217803.3478535-.0950908.1263814-.2056237.2214722-.3007145.2214722-.0625811,0-.125975-.0475454-.1576719-.1739268-.0950908-.3478535-.2690176-.9013308-.3795505-1.2491843-.0154421-.0475454-.0316969-.0950908-.0316969-.1105329,0-.0792423.078836-.0950908.2844597-.1109393.7119619-.0946844,2.8616642-.7586946,4.4432599-1.5494924.0154421-1.0118637.0154421-2.0867148.0154421-3.0668815v-1.1857904c-.8850759,0-2.8145252,0-4.0628967.047139v-1.217081c1.2166746.047139,3.1778208.047139,4.0628967.047139-.0154421-1.7705582-.047139-3.08273-.1267877-3.3517476-.047139-.1897752-.1105329-.3161566-.1105329-.3949926,0-.0633939.0479518-.0950908.1422298-.0950908h.0316969c1.407669.1105329,1.5182019.1580783,1.5182019.2844597,0,.0792423-.0633939.1897752-.1422298.316563-.1113456.1735204-.1584847.4742349-.1584847,4.7903007,0,2.5296591.0316969,5.7708738.1105329,8.4586113h-1.3751593Zm3.5256743-13.8499346c1.3434623.1105329,1.4068562.1422298,1.4068562.2690176,0,.0946844-.047139.2052173-.125975.3320051-.1113456.2052173-.1422298.3474472-.1422298.5847678-.0162548.7591009-.0162548,2.3715808-.0162548,4.0474546,1.4865049-.6957071,2.877919-1.865649,3.2883537-2.5296591.0479518-.078836.0633939-.1739268.1422298-.1739268.0162548,0,.0316969.0158485.0633939.0316969.2844597.1897752,1.0752575.7432525,1.0752575.9801667,0,.0633939-.047139.1105329-.1739268.1422298-.1105329.0158485-.2210658.0475454-.3007145.0950908-.078836.0312906-.125975.0629875-.1739268.1105329-.9801667.8854823-2.1976541,1.7709646-3.9206669,2.6243436,0,1.7234192.0162548,3.5732197.0162548,4.854101,0,.5059318.047139.7428461,1.4856922.7428461.3641084,0,.7591009-.0158485,1.1069545-.047139.6168711-.0633939.9013308-.7115555,1.1069545-3.5260807.5217803.3795505,1.2166746.5534772,1.2166746.5534772-.2844597,3.320457-.8216821,3.9369217-1.7701518,4.095-.4746413.078836-1.0915124.1263814-1.6758738.1263814-2.1659571,0-2.6722953-.3795505-2.6722953-1.6917223.0162548-1.8339521.0162548-4.5058411.0162548-6.7827375,0-2.2606416,0-4.1421391-.0479518-4.3636112-.0316969-.1897752-.078836-.3161566-.078836-.3791441,0-.0633939.0316969-.0950908.1105329-.0950908h.0633939Z"/>
        <path class="cls-1" d="m410.6255412,137.8614925c-1.6124799-.047139-3.9840608-.047139-5.1227122-.047139.0154421.3632956.0154421.7269976.0316969,1.0906996h-1.2963233c.078836-3.2883537.0942781-7.936831.0942781-10.6721138v-2.2606416s.9330277.0158485,2.1976541.0158485c1.4710628,0,3.4151414-.0158485,4.8853915-.0792423v1.2174874c-1.9440786-.0633939-4.1579875-.0633939-5.2641292-.0633939h-.7119619v1.4865049c0,1.8498005,0,5.1223058.047139,8.1737452.4429443,0,1.1069545.0158485,1.8343585.0158485,1.1857904,0,2.5926466-.0158485,3.6045103-.078836v.9801667c.8224948-.7432525,1.407669-1.6758738,1.8181036-2.6089015.4275022-.9801667.727404-2.9721971.727404-4.2530783,0-.2844597-.0154421-.5372224-.047139-.7269976s-.0633939-.3161566-.0633939-.3953989c0-.0633939.0316969-.0946844.1105329-.0946844h.0316969c1.3280203.0946844,1.3597172.2686112,1.3597172.3478535,0,.0946844-.0633939.2052173-.125975.3161566-.1113456.2052173-.1267877.3161566-.1267877.4742349v.1739268c.1422298,2.8299673,1.2963233,5.7074799,3.3671897,7.0830456-.4900834.4742349-.7111492,1.1540935-.7111492,1.1540935-1.6758738-1.501947-2.6089015-3.2729116-3.0989848-5.2807905-.2527627,1.1857904-.8379369,3.4943838-3.0510331,5.2807905,0,0-.2373206-.7115555-.680265-1.1065481l.1901816-.1426362Zm-.3161566-1.6600253c-.4429443-1.0594091-1.0118637-2.1976541-1.4865049-2.9721971-.5851742,1.0748512-1.3914141,2.2451995-2.27649,3.2883537,0,0-.3007145-.5689193-.7428461-.9167729,1.0906996-1.0277121,1.9286365-2.2768964,2.4658589-3.3517476-.7428461-1.3125782-1.5653409-2.5455076-2.4658589-3.6837526l.8379369-.5063382c.7582882,1.0594091,1.4856922,2.1188181,2.1342602,3.1306818.4266895-1.091106.6477553-2.4508232.6477553-3.0989848,0-.0946844,0-.1739268-.0154421-.2369143-.0162548-.0950908-.0316969-.1739268-.0316969-.2373206,0-.1105329.0316969-.1580783.1267877-.1580783h.047139c1.0590027.1897752,1.2808812.2373206,1.2808812.3795505,0,.0629875-.0479518.1263814-.1267877.2210658-.1576719.1739268-.2210658.284866-.2527627.4270959-.2844597,1.4231111-.6323132,2.5772045-1.0906996,3.6520557.6640101,1.1228029,1.3434623,2.2451995,1.9440786,3.4151414l-.9956088.6481617Zm2.9405002-7.5097351c-.3478535,1.1223966-.8379369,2.308187-1.4231111,3.2253662,0,0-.3315987-.5376288-.8216821-.9488762,1.0590027-1.4068562,1.7230128-3.9210733,1.7230128-5.1698512v-.3161566c0-.1422298.0154421-.2056237.1105329-.2056237h.0479518c1.2012325.1580783,1.2483715.2686112,1.2483715.363702,0,.0629875-.0625811.1580783-.1422298.2527627-.0942781.0950908-.1576719.2373206-.1739268.363702-.0154421.0316969-.0154421.0475454-.0154421.0792423-.0633939.3949926-.1422298.8379369-.2690176,1.3121718h2.8299673c.1739268,0,.2844597-.0475454.4112474-.1422298.047139-.0316969.078836-.0475454.1267877-.0475454.1576719,0,.853379.5693257.8850759.5851742.047139.047139.078836.078836.078836.1263814,0,.1580783-.3632956.3003081-.4421316.4583864-.3641084.9330277-.7907979,1.865649-1.2491843,2.7194344,0,0-.5217803-.3320051-.9330277-.5059318.3632956-.5851742.8224948-1.5177955,1.0435606-2.1501087h-3.035591Z"/>
        <path class="cls-1" d="m431.6397956,137.9565833c-1.1386514-1.3438687-2.956755-2.9880456-4.6009319-4.2847753-1.4385532,1.6441769-3.2249598,3.2095177-5.4705657,4.6326288-.3161566-.3003081-.8850759-.7907979-1.2329295-1.0435606,4.0945937-1.9603334,7.2252754-5.6599345,8.3793689-8.5532957-1.9131944.0158485-5.1227122.1263814-6.4344776.3320051l-.0479518-1.533644c.5534772.0629875,1.501947.0946844,2.5617624.0946844,1.3914141,0,2.9876392-.047139,4.1734296-.1422298.3007145-.0158485.3161566-.1739268.4266895-.1739268.1113456,0,1.375972.8379369,1.375972.9801667s-.3324114.2531691-.5534772.6798586c-.6323132,1.2650328-1.4385532,2.5455076-2.4032778,3.7788434,1.6921286,1.2174874,3.6679042,2.8141188,4.9959244,4.1579875l-1.1695356,1.0752575Z"/>
        <path class="cls-1" d="m441.6974765,131.110452c.9647246.5376288,1.8814975,1.1069545,2.8145252,1.7709646.9801667-1.2174874,1.6913159-2.5138107,2.0546115-3.6520557-1.2166746.0312906-3.2249598.047139-5.1698512.1263814-.9484698,1.138245-2.0871212,2.308187-3.4622805,3.4305835-.3478535-.3161566-.80624-.6640101-1.2012325-.9009244,2.1342602-1.2808812,4.1100358-3.5098259,5.0113665-5.5177047.1584847-.3324114.0316969-.5851742.1739268-.5851742.0316969,0,.0479518,0,.0796487.0158485.2527627.078836,1.627922.4900834,1.627922.6640101,0,.0633939-.0633939.1422298-.2056237.2373206-.1893689.1422298-.2373206.2052173-.4738285.5530709-.1901816.284866-.3795505.5693257-.601429.8696338,1.454808-.0158485,2.8145252-.0475454,4.3798661-.1263814.3324114-.0158485.3478535-.1739268.4583864-.1739268.1422298,0,1.3914141.9643183,1.3914141,1.1065481,0,.1739268-.3949926.2690176-.6957071.9171792-1.7230128,3.7471465-4.6480709,7.1464395-9.6122984,8.99624-.3007145-.3795505-.7436588-.8537854-1.0915124-1.1544999,2.5772045-.6323132,4.7594165-2.0708663,6.4035934-3.7784371-.80624-.727404-1.7864067-1.4389595-2.8462221-2.0554242l.9647246-.7432525Z"/>
        <path class="cls-1" d="m458.095357,138.5413511c.125975-.9167729.1893689-3.4147351.1893689-5.6599345,0-.7115555,0-1.4072626-.0154421-2.0078788-1.5970378,1.1540935-3.3517476,2.2606416-5.3754749,3.3200506-.2218785-.3161566-.680265-.80624-.9801667-1.1065481,3.3517476-1.4072626,7.8730307-4.6167803,9.6439953-6.9566642.1893689-.2686112.1893689-.5059318.3007145-.5059318.125975,0,1.5173891,1.1065481,1.5173891,1.2491843,0,.0946844-.1105329.1735204-.2844597.2210658-.3949926.1109393-.5380351.2214722-.8541917.5059318-.8216821.7591009-1.7075707,1.5177955-2.6397857,2.2610479-.0479518.5847678-.0633939,1.6600253-.0633939,2.8775127,0,2.1818056.0633939,4.8061492.1422298,5.7550253l-1.580783.047139Z"/>
        <path class="cls-1" d="m470.1605104,127.5847776c1.6132927.1739268,1.6287348.1739268,1.6287348.3007145,0,.0629875-.0316969.1580783-.0950908.2686112-.1105329.2056237-.125975.3161566-.1422298.5693257-.1105329,2.9088032.0316969,6.482023-2.7194344,9.3753841-.4738285-.3003081-1.0118637-.5534772-1.5173891-.7432525,2.4349747-1.7071643,2.8771063-4.9325306,2.8771063-7.3516568,0-.7432525-.047139-1.4231111-.078836-1.9448914-.0162548-.1893689-.078836-.3320051-.078836-.410841,0-.0475454.0154421-.0633939.078836-.0633939h.047139Zm3.3200506-.5059318c1.5815957.0633939,1.7075707.0792423,1.7075707.2056237,0,.0633939-.0316969.1422298-.0942781.2373206-.1739268.2844597-.2852724.4742349-.2852724,5.5494016,0,1.1065481.0162548,2.1342602.0162548,2.7665734,1.5970378-.9167729,4.0791516-3.0197425,5.5965407-4.8378461.2535755.3320051.5534772.6798586.8379369.9643183-1.6441769,1.8026615-3.7938792,3.7788434-6.0077881,5.2966389-.4583864.3320051-.5372224.6164647-.6957071.6164647-.2373206,0-1.2329295-1.169942-1.2329295-1.169942,0-.0946844.1576719-.1422298.1739268-.4583864.0154421-1.4389595.047139-3.1148333.047139-4.6480709,0-1.6604317-.0316969-3.1782272-.125975-4.1425454-.0162548-.1105329-.0796487-.2373206-.0796487-.3003081,0-.0475454.0316969-.0792423.1113456-.0792423h.0308842Z"/>
      </g>
    </g>
  </g>
</svg>