<?xml version="1.0" encoding="UTF-8"?>
<svg id="_レイヤー_2" data-name="レイヤー 2" xmlns="http://www.w3.org/2000/svg" xmlns:xlink="http://www.w3.org/1999/xlink" viewBox="0 0 300 108">
  <defs>
    <style>
      .cls-1 {
        fill: none;
      }

      .cls-1, .cls-2 {
        stroke-width: 0px;
      }

      .cls-3 {
        clip-path: url(#clippath);
      }

      .cls-2 {
        fill: #5a8190;
      }
    </style>
    <clipPath id="clippath">
      <rect class="cls-1" width="300" height="108"/>
    </clipPath>
  </defs>
  <g id="_フレーム" data-name="フレーム">
    <g class="cls-3">
      <g>
        <g>
          <path class="cls-2" d="m29.7709407,108c.0193071-.3625446.0193071-.7823977.0193071-1.2405585h-9.1426833c.0190006.4581608.0190006.8780139.0380013,1.2405585h-1.6221038c.0763091-2.2521898.0763091-6.9284948.0763091-10.3069328v-3.9319085h4.2561454c.5344699-.763397.897321-1.5461012,1.0116313-2.0422633.0573084-.343544.0193071-.4388537.1526181-.4388537h.0766155c1.5841025.2479278,1.6414109.4008524,1.6414109.4961621,0,.0763091-.0573084.1719252-.1719252.2672349-.3052362.2482343-.3815453.3818518-.4578544.5344699-.1909259.3625446-.4391602.7823977-.6873945,1.1832501h6.3560236v3.9129079c0,3.378438,0,8.0547429.0763091,10.3259334h-1.6224103Zm.0763091-9.3526099h-9.2569937c.0190006.7827042.0190006,1.660718.0190006,2.5387319h9.237993v-2.5387319Zm0-3.5310561h-9.237993v2.2141886h9.237993v-2.2141886Zm-9.237993,7.3866556c0,.9926307,0,1.9849549.0193071,2.9012765h9.1806846c.0190006-.8970145.0190006-1.8896452.0380013-2.9012765h-9.237993Z"/>
          <path class="cls-2" d="m52.5000076,96.6814359c-.8590132-.0190006-2.2141886-.0380013-3.6073652-.0573084.6297796,2.3098047,1.9086459,4.2947596,4.0272182,5.5926266-.6487802.6487802-.8970145,1.450485-.8970145,1.450485-1.8513374-1.5841025-3.4547471-3.5883645-4.2754525-6.6612598-.8017048,3.2065128-2.1948814,5.0008483-4.9052321,6.4896411,0,0-.2292336-.687088-.8017048-1.2978669,2.5194248-1.1262482,3.8555995-2.8822759,4.4280706-5.5926266h-2.6147345c-1.4317909,2.8629688-3.4167458,5.0771573-7.3103465,6.9858032,0,0-.1909259-.7443964-.8017048-1.3551753,1.6414109-.5724712,2.9012765-1.450485,3.8365988-2.3284989-.97363-1.317174-2.1758808-2.2331892-2.1758808-2.2331892l.9543229-.763397s1.2022508.9543229,2.1948814,2.0995717c.3818518-.3245433.7823977-.7827042,1.0496326-1.2788663-.9733236-1.0879404-2.3094983-1.9469536-2.3094983-1.9469536l.897321-.8397061s1.0686333.687088,2.137573,1.6604116c.5344699-.763397.8017048-1.4887928,1.030632-2.2711905h-3.6646736c-.7823977,1.2022508-1.8703381,2.4238086-3.1112031,3.3401302,0,0-.2479278-.7827042-.7443964-1.3361747,1.9659543-1.1259417,3.4357464-3.5883645,3.6646736-4.6189965.0573084-.3245433-.0190006-.4388537.1719252-.4388537.0573084,0,.0953097,0,.1719252.0190006,1.4121773.1909259,1.4314844.3818518,1.4314844.4388537,0,.0573084-.0573084.1529246-.1909259.2482343-.1719252.1336175-.2862356.2862356-.3245433.3818518-.0953097.2479278-.2289272.4961621-.3625446.7443964h2.9202772c.2099265,0,.3625446-.0573084.5151628-.1719252.0383078-.0380013.0956162-.0573084.1336175-.0573084.0573084,0,.1146168.0193071.1719252.0573084,1.0496326.5727776,1.1832501.687088,1.1832501.8400126,0,.2099265-.4008524.4198531-.4581608.5724712-.133311.3245433-.3052362.687088-.4388537.9926307h2.2331892c.0763091-.7443964.0953097-1.4887928.0953097-2.1188788,0-.687088-.0190006-1.2215579-.0570019-1.4121773-.0383078-.1529246-.0573084-.286542-.0573084-.3628511,0-.1143104.0380013-.1526181.1526181-.1526181.3052362,0,1.2788663.1719252,1.5841025.2482343.0956162.0380013.1526181.0763091.1526181.1526181s-.0570019.1716188-.133311.2862356c-.1719252.2482343-.2292336.4581608-.2292336.7063951-.0190006.4961621-.0380013,1.5457947-.1526181,2.6530423,1.6797187-.0193071,3.4357464-.0383078,4.4853791-.0956162v1.4314844Zm-13.8379889,6.4896411c.4008524.0763091.8590132.1716188,1.2405585.3052362.1529246.0383078.2482343.1146168.2482343.210233,0,.0570019-.0573084.1526181-.1526181.2479278-.2672349.2672349-.3055427.3055427-.4008524.5344699-.4961621,1.2598656-1.1262482,2.271497-2.1758808,3.5310561,0,0-.5917783-.5344699-1.2978669-.8780139,1.2405585-1.0879404,2.0802646-2.5957338,2.2901911-3.4927484.0956162-.343544.0383078-.4581608.1719252-.4581608h.0763091Zm3.1112031,4.6763049c.0190006-.4771615.0383078-.9543229.0383078-1.3934831,0-.9160152-.0573084-1.794029-.1529246-2.7293513l1.3361747-.0573084c.1716188,1.2025572.2672349,2.3858073.2672349,3.7409827v.3818518l-1.4887928.0573084Zm4.4280706-.0190006c-.1716188-1.4507915-.4771615-2.7296578-.9923242-4.0275247l1.3551753-.1909259c.5151628,1.2215579.8777074,2.5004241,1.106941,4.0082176l-1.4697922.210233Zm5.0388496.1716188c-.7443964-1.6604116-1.4121773-2.8819694-2.3858073-4.3134538l1.2788663-.4774679c1.0116313,1.3361747,1.7750284,2.6723494,2.4814235,4.1421415l-1.3744824.6487802Zm-.343544-13.1125932s-.7823977-1.317174-2.0229562-2.3858073l.9350158-.6680873c1.1072475.9353223,2.0995717,2.2141886,2.0995717,2.2141886l-1.0116313.8397061Z"/>
          <path class="cls-2" d="m61.2482742,104.5173649c2.9251806,0,4.3808755-1.9834226,4.3808755-3.9812489,0-1.798013-1.2129769-3.6101233-3.6389308-3.9098433-.5565351,4.0241536-2.3830492,8.8472539-4.2665651,8.8472539-1.0416646,0-2.3689519-1.6411045-2.3689519-3.924247,0-2.796773,1.9408244-5.9217668,5.8791686-5.9217668,3.5390241,0,5.536544,2.3116435,5.536544,4.9800089,0,2.3830492-1.669299,4.809003-4.9656051,5.1657249-.1284076-.3855293-.3711256-.8421578-.6993465-1.2558816h.1428113Zm-4.809003-3.0250872c0,1.4838894.6708455,2.6827691,1.2984798,2.6827691.2712189,0,.5424379-.185716.7992531-.5709389,1.0560683-1.6267007,2.0404246-4.4807821,2.3545482-7.0348371-2.9110833.1998133-4.4522811,2.6539616-4.4522811,4.9230069Z"/>
          <path class="cls-2" d="m71.2113565,102.483989c.0956162-.343544.0763091-.4964686.1909259-.4964686.0190006,0,.0573084,0,.0956162.0193071.3815453.1143104,1.3931766.4961621,1.3931766.7060886,0,.0763091-.0573084.1526181-.1716188.2672349-.2672349.2099265-.3628511.3818518-.4581608.5917783-.4391602.9543229-1.1452488,2.0039556-1.9659543,3.091896,0,0-.5344699-.5914718-1.2025572-.9733236,1.0689397-1.0879404,1.9659543-2.6340416,2.1185724-3.2065128Zm.630086-1.030632v-6.4706404h5.2297755c0-.343544-.0193071-.8587068-.0193071-1.1642495-2.481117.0190006-4.9435399.0383078-7.1957297.0956162v-1.4317909c2.2521898.0956162,4.6953056.1529246,7.1577284.1529246-.0193071-.3628511-.0383078-.630086-.0573084-.7443964-.0573084-.2482343-.1146168-.4198531-.1146168-.4964686,0-.0763091.0193071-.0953097.1146168-.0953097h.0953097c1.4887928.1526181,1.660718.2099265,1.660718.3625446,0,.0763091-.0573084.1909259-.1336175.3628511-.0956162.1906194-.1336175.4008524-.1526181.6107789,2.4238086-.0193071,4.8479237-.0763091,7.0811129-.1529246v1.4317909c-2.2331892-.0766155-4.6573043-.0956162-7.10042-.0956162v1.1642495h5.3443923v6.4706404h-11.9100359Zm5.2297755-5.2680832h-3.9129079v1.3934831h3.9129079v-1.3934831Zm-3.9129079,2.5004241v1.5651019h3.8746001c.0190006-.4198531.0190006-1.0116313.0383078-1.5651019h-3.9129079Zm.6680873,6.890187c0-.4388537.0190006-.9543229.0190006-1.4314844,0-.5724712-.0190006-1.106941-.0573084-1.374176-.0380013-.2289272-.1143104-.3818518-.1143104-.4771615,0-.0573084.0380013-.0953097.1336175-.0953097h.0763091c1.0879404.0953097,1.6604116.1526181,1.6604116.3242369,0,.0956162-.0763091.2099265-.1526181.3628511-.0956162.2289272-.1526181.4198531-.1526181,1.5077934,0,.3052362.0190006.6490867.0190006.9926307.0190006.6487802.0190006.8013983,2.6340416.8013983.6487802,0,1.3168676-.0380013,1.9086459-.0763091,1.0116313-.0763091,1.1452488-.4198531,1.4314844-2.6530423.6297796.5154692,1.3168676.8017048,1.3168676.8017048-.4771615,2.4241151-.8587068,3.1112031-2.1948814,3.1875121-.7827042.0383078-1.5651019.0573084-2.347806.0573084-3.1302037,0-4.1798364,0-4.1798364-1.8516439v-.0763091Zm5.0008483-.6677809c-.8210119-.9546294-1.5654083-1.6034096-2.5004241-2.2524963l.8780139-.8587068c.9160152.5724712,1.6604116,1.1642495,2.6147345,2.0995717l-.9923242,1.0116313Zm3.6073652-8.7228303h-4.0275247v1.3934831h4.0275247v-1.3934831Zm0,2.5004241h-4.0275247c.0193071.5344699.0193071,1.1259417.0193071,1.5651019h4.0082176v-1.5651019Zm2.5957338,7.6345834c-.763397-1.4121773-1.6414109-2.5767332-2.7103507-3.6836742l1.0879404-.7823977c1.1262482,1.1832501,1.9659543,2.2328827,2.8249675,3.5310561l-1.2025572.9350158Z"/>
          <path class="cls-2" d="m100.1358609,103.9608297c-.5136305-.5850361-1.1985732-1.0845693-1.9405179-1.5123904-.5280342,1.7266074-1.4982931,3.0391845-3.7673384,3.8240339-.2568152-.3423181-.6135371-.69904-.9561617-.9273543,2.2690453-.4995332,3.2822089-1.8124168,3.7388374-3.3821156-1.0845693-.4851295-2.2405443-.8133504-3.2822089-.970259-.3423181.8562551-.69904,1.6840091-1.0272609,2.2831425-.6420381,1.1700722-1.5981998,1.7551084-2.4259539,1.7551084-.1140039,0-1.640798,0-1.640798-2.0974265,0-2.3689519,2.4400511-3.01099,4.0808491-3.01099.1143104,0,.2283143.0144037.3426246.0144037.4995332-1.184476.970259-2.4115501,1.3413845-3.3107099-1.7839158.1998133-2.6971728.3567219-3.2678052.5709389-.0714057.028501-.1140039.0425982-.1428113.0425982-.1425049,0-.3567219-1.1556685-.3852228-1.3413845v-.0140973c0-.028501.0144037-.0429047.0429047-.0429047.0714057,0,.2283143.0570019.4137238.0570019.0999066,0,.1998133.0144037.3426246.0144037.8703523,0,2.4970531-.1284076,3.3533081-.3426246.1713123-.028501.2139105-.1140039.2853162-.1140039.1569086,0,1.0560683.7989467,1.0560683.8703523,0,.0858094-.185716.1284076-.3282209.3141236-.5136305.6276343-1.0701656,1.9834226-1.6411045,3.4103101.9846627.1428113,2.040731.4422248,3.1108966.8562551.0855029-.5850361.1140039-1.184476.1284076-1.7839158v-.028501c0-.1284076-.0570019-.2283143-.0570019-.2853162,0-.0429047.0140973-.0570019.0855029-.0570019h.0570019c.1428113.0140973,1.2984798.1428113,1.2984798.2568152,0,.0429047-.028501.0855029-.0570019.1428113-.0855029.1569086-.1140039.3282209-.1569086.5706324-.0999066.5850361-.1713123,1.1130703-.2853162,1.6411045.7989467.3708191,1.5552951.8274476,2.2687388,1.3413845l-.5850361,1.2555752Zm-7.4629647-3.0535882c-1.3983865,0-2.796773.6279408-2.796773,1.9690189,0,.2283143.0425982,1.0419711.670539,1.0419711.7848494,0,1.4268875-.9990664,2.2975462-3.01099h-.1713123Z"/>
          <path class="cls-2" d="m105.6420651,106.4293818c-.9276607-1.1127638-2.069232-2.2402378-3.0823956-3.1390911l.7419447-.6849428c1.0845693.8274476,2.3404509,1.9690189,3.3107099,2.8537749l-.970259.970259Z"/>
          <path class="cls-2" d="m123.816799,93.4507126c0-.0891805,0-.1247301.0714057-.1247301.0355496,0,.0533244,0,.088874.0177748,1.8010777.4992267,1.943889.6242633,1.943889.7489933,0,.0714057-.0714057.1602797-.1961357.2316853-.2319918.1428113-.3211723.2675414-.4814519.6064885-2.0863939,4.6720145-4.3689235,8.3988999-9.2015241,11.7335138-.4814519-.3744967-1.0698591-.7667681-1.5513111-1.0698591,6.5444978-3.5129749,9.3262541-10.8420156,9.3262541-12.0010552v-.1428113Z"/>
          <path class="cls-2" d="m132.8776569,94.4313913c1.8188525.1961357,1.8366273.1961357,1.8366273.3389471,0,.0714057-.0355496.1783609-.1069553.303091-.1247301.2319918-.1425049.3567219-.1605861.6420381-.1247301,3.2809831.0358561,7.3112659-3.0670725,10.5744742-.5347763-.3386406-1.1412648-.6242633-1.7118972-.8381738,2.7462067-1.9258077,3.2454335-5.5635127,3.2454335-8.2919446,0-.8381738-.0533244-1.6049419-.0891805-2.1933491-.0177748-.2139105-.0891805-.3744967-.0891805-.4636771,0-.0533244.0180813-.0714057.0891805-.0714057h.0536309Zm3.7446602-.5706324c1.7833029.0714057,1.9258077.0891805,1.9258077.2319918,0,.0714057-.0355496.1602797-.1069553.2675414-.1961357.3208658-.3208658.5347763-.3208658,6.2588751,0,1.2485265.0177748,2.4075661.0177748,3.1207034,1.8010777-1.0343095,4.6009153-3.4060196,6.3128125-5.4565574.2853162.3744967.6239568.7667681.9448226,1.0876339-1.8544021,2.0330695-4.2794365,4.2619682-6.7761831,5.9738654-.5170015.3744967-.606182.6953625-.7845429.6953625-.2675414,0-1.3910314-1.3193193-1.3910314-1.3193193,0-.1072617.1783609-.1605861.1961357-.517308.0180813-1.6227167.0536309-3.5129749.0536309-5.2426469,0-1.8724833-.0355496-3.5843805-.1425049-4.6720145-.0180813-.1247301-.0891805-.2675414-.0891805-.3389471,0-.0533244.0355496-.0891805.1247301-.0891805h.0355496Z"/>
          <path class="cls-2" d="m160.8230149,99.0500813c-.5350828-.0355496-1.6941224-.0536309-3.1381717-.0536309-.8023177,0-1.6763476,0-2.5859271.0180813-.0710992,3.762435-1.1768144,6.4908669-4.4933471,8.3988999-.3928844-.3389471-1.0523908-.8737234-1.5341492-1.1590396,3.5666057-1.3910314,4.4761852-4.1905625,4.4761852-6.7764896v-.4455959c-2.7998376.0533244-5.6171435.1425049-6.5622726.2316853l-.0177748-1.5690859c.5347763.0355496,1.7299785.0533244,3.1918026.0533244,3.7449667,0,9.3084793-.1069553,10.6458798-.2494601l.0177748,1.5513111Zm-2.853162-3.7982911c-.5350828-.0714057-1.6763476-.0891805-2.9598108-.0891805-2.1403312,0-4.6900957.0714057-5.61745.1961357l-.0355496-1.5513111c.517308.0533244,1.4979867.0714057,2.6392515.0714057,2.2114304,0,4.9928803-.0891805,5.9380093-.214217l.0355496,1.5871671Zm2.1041687,1.5513111c-.4100463-.5884072-.9629039-1.212364-1.4440493-1.729672l.7845429-.5528576c.4995332.4814519,1.0879404,1.0879404,1.5157615,1.640798l-.8562551.6417316Zm1.3551753-.8914982c-.4278211-.5706324-.9267413-1.2126705-1.4618241-1.6763476l.7845429-.5706324c.4811455.4459023,1.1057152,1.0520843,1.5335363,1.6049419l-.8562551.6420381Z"/>
          <path class="cls-2" d="m170.8645516,106.6288886c.1250365-.8381738.1783609-3.0851538.1783609-5.1356916,0-.6775877,0-1.3554818-.0177748-1.9261142-1.4624371,1.0701656-3.1026221,2.1041687-4.9395559,3.0492977-.2139105-.3208658-.6601193-.8023177-.9451291-1.0876339,3.1203969-1.2659949,7.2576351-4.2441934,8.9162079-6.4194613.1961357-.2497666.2316853-.4995332.3567219-.4995332.0177748,0,.0533244.0177748.088874.0358561,1.2307517.9270478,1.3551753,1.0520843,1.3551753,1.1768144,0,.0891805-.0710992.1425049-.2316853.1961357-.3744967.1069553-.606182.2139105-.8918047.4814519-.7489933.7134437-1.5513111,1.4088062-2.4069532,2.0863939-.0355496.7134437-.0539373,1.7474468-.0539373,2.8353872,0,2.0505378.0539373,4.2975178.1250365,5.1534664l-1.5335363.0536309Z"/>
          <path class="cls-2" d="m184.4015947,100.2268957c-.2850097-1.0698591-.9273543-2.5142149-1.4624371-3.3346139l1.2485265-.4636771c.5350828.820399,1.1945892,2.1577995,1.5868607,3.1921091l-1.3729501.606182Zm8.1138901-3.459344c.0533244-.2675414,0-.5706324.1421984-.5706324.0183877,0,.0539373,0,.0717121.0177748,1.6046355.5706324,1.6763476.6953625,1.6763476.7667681s-.0717121.1605861-.1605861.2319918c-.1605861.1425049-.2678479.2672349-.3922715.6239568-1.4979867,4.0658325-3.3882448,6.6336783-7.8104927,8.6845225-.2856227-.2675414-.8562551-.7489933-1.2307517-.9809851,4.4222479-1.3907249,7.2043107-5.2604217,7.7038438-8.7733965Zm-4.6545461,2.6748011c-.1605861-1.0876339-.6595064-2.5678458-1.0695527-3.3346139l1.2479136-.303091c.4817584.7845429.9806787,2.2111239,1.2485265,3.2632083l-1.4268875.3744967Z"/>
          <path class="cls-2" d="m199.489336,105.6479035c5.0823672-1.5157615,8.7917842-5.7240988,9.8257873-9.2726233-2.1219435.0533244-4.2083373.1069553-5.4213143.1783609-1.0517779,1.3907249-2.3536288,2.6925759-4.1544,4.0477512-.3744967-.3208658-.9273543-.7489933-1.3196257-.9984535,2.6392515-1.5516175,5.0284299-4.2975178,5.7418736-6.5622726.1066488-.3744967.0177748-.6064885.1783609-.6064885.0177748,0,.0533244,0,.088874.0180813.4995332.1602797,1.2307517.3922715,1.6585728.5525511.1783609.0536309.2672349.1250365.2672349.214217,0,.0710992-.088874.1602797-.2494601.2316853-.2494601.1247301-.4100463.2853162-.5884072.606182-.1961357.3567219-.4100463.7134437-.6239568,1.0701656,1.3374005-.0177748,3.3882448-.0714057,4.6183836-.1605861.3922715-.0355496.4278211-.1961357.5350828-.1961357.1066488,0,1.5157615.9806787,1.5157615,1.2126705,0,.1961357-.3922715.303091-.6601193.8914982-2.0146817,4.4936535-4.6006088,7.6499065-10.0752474,10.0396978-.3383341-.3922715-.9267413-.8918047-1.3374005-1.2663013Z"/>
          <path class="cls-2" d="m227.648298,106.1293554c-1.2834632-1.5157615-3.3343075-3.3701635-5.189016-4.8322941-1.6230232,1.8544021-3.6377049,3.6199301-6.1696947,5.2248721-.3567219-.3389471-.9990664-.8918047-1.3913379-1.1771209,4.6189965-2.2111239,8.1494397-6.3839117,9.4512906-9.6471199-2.1574931.0177748-5.7774232.1425049-7.2576351.3744967l-.0533244-1.7299785c.6239568.0714057,1.6935095.1072617,2.8887116.1072617,1.5690859,0,3.3698571-.0536309,4.7072576-.1605861.3389471-.0177748.3567219-.1961357.4817584-.1961357s1.5513111.9451291,1.5513111,1.1054087c0,.1605861-.3744967.2853162-.6239568.7667681-.7134437,1.4268875-1.6230232,2.8712433-2.7103507,4.2619682,1.9080329,1.3732566,4.1366252,3.1743343,5.6346119,4.6900957l-1.3196257,1.212364Z"/>
          <path class="cls-2" d="m238.0998809,98.4080433c1.0879404.6064885,2.1219435,1.2482201,3.1743343,1.9972134,1.1057152-1.3729501,1.9080329-2.8353872,2.3180792-4.1191569-1.3729501.0355496-3.6377049.0533244-5.8313605.1425049-1.0695527,1.2840761-2.3536288,2.6037019-3.9049399,3.8696967-.3922715-.3567219-.9095795-.7489933-1.3551753-1.0165347,2.4069532-1.4443558,4.6361584-3.9585707,5.6523867-6.2233255.1783609-.3744967.0361625-.6598129.1967487-.6598129.0355496,0,.0533244,0,.088874.0177748.2850097.0891805,1.8369337.5528576,1.8369337.7489933,0,.0714057-.0717121.1605861-.2322983.2675414-.2139105.1605861-.2672349.2316853-.5344699.6239568-.2145235.3211723-.428434.6420381-.6778941.9809851,1.640798-.0177748,3.1743343-.0536309,4.9395559-.1428113.3744967-.0177748.3922715-.1961357.517308-.1961357.1605861,0,1.5690859,1.0879404,1.5690859,1.2482201,0,.1961357-.4455959.3033975-.7845429,1.0343095-1.9435825,4.2264186-5.2429533,8.0602593-10.8420156,10.1466531-.3389471-.4281275-.8384803-.9629039-1.2307517-1.3018509,2.9070993-.7131373,5.3679899-2.335854,7.2220855-4.2619682-.9089665-.8200925-2.0146817-1.6227167-3.2098839-2.3180792l1.0879404-.8381738Z"/>
          <path class="cls-2" d="m255.7024501,106.7891683c.1421984-1.0343095.2139105-3.8516155.2139105-6.3839117,0-.8023177,0-1.5871671-.0177748-2.2647548-1.8013841,1.3018509-3.7805163,2.550071-6.0630459,3.7449667-.2494601-.3567219-.7667681-.9095795-1.1057152-1.2482201,3.7805163-1.5871671,8.8806582-5.2070973,10.8775652-7.8463487.2139105-.303091.2139105-.5706324.3389471-.5706324.1428113,0,1.7118972,1.2482201,1.7118972,1.4088062,0,.1069553-.1250365.1961357-.3211723.2497666-.4455959.1247301-.606182.2494601-.9629039.5706324-.9273543.8559486-1.9258077,1.7118972-2.9775856,2.5497645-.0539373.6598129-.0717121,1.8724833-.0717121,3.2457399,0,2.4605841.0717121,5.4207013.1605861,6.4908669l-1.7829964.0533244Z"/>
          <path class="cls-2" d="m268.4181748,94.4313913c1.8191589.1961357,1.8369337.1961357,1.8369337.3389471,0,.0714057-.0355496.1783609-.1066488.303091-.1250365.2319918-.1428113.3567219-.1605861.6420381-.1250365,3.2809831.0355496,7.3112659-3.0670725,10.5744742-.5350828-.3386406-1.1412648-.6242633-1.7118972-.8381738,2.7459003-1.9258077,3.2454335-5.5635127,3.2454335-8.2919446,0-.8381738-.0539373-1.6049419-.0894869-2.1933491-.0177748-.2139105-.088874-.3744967-.088874-.4636771,0-.0533244.0177748-.0714057.088874-.0714057h.0533244Zm3.7449667-.5706324c1.7829964.0714057,1.9258077.0891805,1.9258077.2319918,0,.0714057-.0355496.1602797-.1066488.2675414-.1961357.3208658-.3211723.5347763-.3211723,6.2588751,0,1.2485265.0177748,2.4075661.0177748,3.1207034,1.8013841-1.0343095,4.6006088-3.4060196,6.312506-5.4565574.2856227.3744967.6245697.7667681.9451291,1.0876339-1.8540956,2.0330695-4.2794365,4.2619682-6.7758767,5.9738654-.517308.3744967-.6067949.6953625-.7845429.6953625-.2678479,0-1.3913379-1.3193193-1.3913379-1.3193193,0-.1072617.1783609-.1605861.1961357-.517308.0177748-1.6227167.0539373-3.5129749.0539373-5.2426469,0-1.8724833-.0361625-3.5843805-.1428113-4.6720145-.0177748-.1247301-.0894869-.2675414-.0894869-.3389471,0-.0533244.0355496-.0891805.1250365-.0891805h.0355496Z"/>
        </g>
        <g>
          <g>
            <path class="cls-2" d="m190.0319195,33.5832659c-.09374-.2960938-.280874-.7170589-.4209651-1.0131526-1.0131526.5143591-2.1667422.9820213-3.2421576,1.3095923-.3272251.0933941-.3898337.1712224-.5299248.2960938-.1248713.1089597-.2182654.1556568-.2805281.1556568-.0626086,0-.187134-.0155657-.5454905-1.231418v-.0622627c0-.140437.1712224-.1245254.2805281-.140437.2338311-.0311314.3739221-.046697.7326245-.1400911v-7.2636367c-.2026997.2026997-.4053994.4206192-.6236648.6233189,0,0-.1245254-.6544502-.4832278-1.137678,1.371855-1.0754153,2.4939673-2.8682354,2.8056268-3.787994.0781743-.2179195.0626086-.4050535.2182654-.4050535h.0311314c.3587024.046697.7481902.1400911,1.0757612.2338311.0778284.0311314.1245254.0778284.1245254.1560027,0,.046697-.0311314.1245254-.1089597.1867881-.0781743.0622627-.140437.140437-.187134.2026997.8415843.9353242,1.7457771,1.7146458,2.9460638,2.4317046-.4365308.4365308-.7014932.9975869-.7014932.9975869-1.0754153-.8260186-1.9640425-1.6368174-2.7433641-2.5873614-.4832278.7948872-1.1065467,1.6987342-1.8862141,2.5873614h1.5434233c0-.2649624,0-.8260186-.0311314-1.1068926-.0314773-.1867881-.0626086-.2960938-.0626086-.3739222,0-.0626086.0311314-.09374.1248713-.09374h.046697c1.044284.09374,1.0598496.2026997,1.0598496.2649624,0,.0781743-.046697.1715684-.0933941.280874-.046697.1556568-.0622627.2338311-.0778284.4676621v.5610562h1.8236055v4.9097604h-3.7720824v2.603273c.6233189-.187134,1.4337718-.4676621,2.1041336-.8104529-.2182654-.4209651-.3583565-.6703618-.6388846-1.0290642l.8882813-.4361849c.5143591.7793216,1.1224583,1.8703026,1.5742088,2.7744954l-.950544.5766219Zm-.2026997-7.6690361h-2.7744954v1.0287183h2.7744954v-1.0287183Zm0,1.9017798h-2.7744954v1.184721h2.7744954v-1.184721Zm8.9160197-5.0657631c-1.7928201-.0778284-3.647557-.09374-4.6762753-.09374h-.8419302v2.2912676h5.0505433c-.2649624,2.9149324-.7793216,4.8011466-1.7302115,6.3286583.6233189.7481902,1.4341177,1.5275118,2.4002274,2.0885679-.5143591.5147051-.7011473,1.0757612-.7011473,1.0757612-.9820213-.7796675-1.7613428-1.5434233-2.3694419-2.322399-.6859275.7637559-1.4963804,1.5116002-2.6344043,2.322399,0,0-.2179195-.5299248-.6700159-1.0134985,1.184721-.6700159,1.9951739-1.4182061,2.6496241-2.2130934-.8571499-1.6056861-1.2625494-3.3047662-1.4963804-5.2528971h-.4987935c-.0155657,3.600514-.2023538,6.06335-1.5742088,8.479489,0,0-.3427908-.5925334-.8882813-.9664556,1.3403777-2.0885679,1.3559434-4.8634093,1.3559434-7.9806955v-3.8499108h1.1380239c1.3715091,0,3.7253853-.0159116,5.4867282-.09374v1.2002866Zm-4.0062593,3.2110262c.187134,1.6364715.4676621,2.9457179,1.1380239,4.3798356.5766219-1.0754153,1.0598496-2.4939673,1.2158523-4.3798356h-2.3538763Z"/>
            <path class="cls-2" d="m207.0977818,25.5091763c-.1560027-.3587024-.3120053-.6077532-.4987935-.9508899-1.6056861.2338311-3.2110262.3894878-4.7229723.4987935-.1715684.0155657-.327571.0781743-.6080991.1715684-.1712224.0622627-.2805281.1400911-.3427908.1400911-.09374,0-.1248713-.0933941-.3742681-1.1999407-.0155657-.0470429-.0155657-.0781743-.0155657-.1093056,0-.046697.0311314-.0622627.0781743-.0622627.046697,0,.1245254.0155657.2179195.0155657.1093056,0,.2338311.0155657.3898337.0155657.140437,0,.3116594-.0155657.4987935-.0155657.7014932-1.0287183,1.3559434-2.4472703,1.4029863-2.8678895.0311314-.2653083.0311314-.3587024.1245254-.3587024.0311314,0,.0622627,0,.0933941.0155657.8263645.1715684,1.2473296.2805281,1.2473296.4365308,0,.0622627-.0470429.1400911-.1560027.2179195-.2493967.1874799-.3427908.327571-.3898337.4209651-.2649624.5766219-.6544502,1.3874207-1.1065467,2.0577825.8415843-.0311314,2.0730023-.1248713,3.1328519-.280874-.2649624-.4206192-.5921875-.8415843-.9194127-1.2155064l.7948872-.5458364c.7948872.8886272,1.4808147,1.9017798,2.0885679,3.0086724l-.9349783.6077532Zm-1.0913269,5.7983876h-3.3044203c.0155657,1.184721.0311314,2.3535304.0778284,3.1331978h-1.2469837c.0781743-1.512292.09374-4.8478436.09374-6.9052802v-1.7302115h5.4396852v6.8271059c0,1.3874207-.4987935,1.7146458-2.0885679,1.7146458-.2026997,0-.4209651,0-.6547961-.0155657,0,0-.0155657-.5454905-.2960938-1.1221124.4209651.0311314.7481902.0622627,1.0131526.0622627.7793216,0,.9664556-.187134.9664556-.7170589v-1.2469837Zm0-4.5358383h-3.3199859v1.278115h3.3199859v-1.278115Zm0,2.1978736h-3.3199859v1.418552h3.3199859v-1.418552Zm2.2912676-3.8032137c0-.3742681.0155657-.9664556.0155657-1.558989,0-.9975869-.0155657-2.0574366-.0778284-2.322399-.046697-.187134-.0933941-.3116594-.0933941-.3898337,0-.0622627.046697-.0933941.1400911-.0933941h.0311314c1.2784609.1093056,1.3095923.2182654,1.3095923.2960938,0,.0622627-.046697.1715684-.1093056.2805281-.1400911.2805281-.1400911.6859275-.1400911,1.6990801,1.4963804-.3272251,2.6184928-.7948872,3.1484176-1.2469837.0781743-.0778284.1093056-.1556568.187134-.1556568.1089597,0,1.0598496.6233189,1.0598496.8571499,0,.0622627-.046697.1093056-.1556568.1245254-.2805281.0159116-.4365308.0781743-.4987935.1093056-.9820213.4832278-2.2445706.9508899-3.740951,1.3248121,0,.4209651,0,.7481902.0155657,1.0287183.0155657.5610562.2026997.6547961,1.6520372.6547961,1.6679488,0,1.8706485-.09374,2.1511766-2.0730023.5143591.3583565.9975869.5766219.9975869.5766219-.4053994,2.462836-.9975869,2.5406644-3.1487635,2.5406644-2.1663963,0-2.7433641-.2649624-2.7433641-1.5742088v-.0778284Zm.0781743,7.2169396c0-.3742681.0155657-1.1068926.0155657-1.8706485,0-1.278115-.0155657-2.7122327-.0781743-2.9771951-.046697-.187134-.0933941-.3116594-.0933941-.3898337,0-.0622627.046697-.0933941.140437-.0933941h.0311314c1.3092464.1093056,1.3403777.2182654,1.3403777.2960938,0,.0622627-.046697.1715684-.1089597.280874-.1093056.2179195-.1093056.4206192-.1248713.6544502s-.0155657,1.0131526-.0311314,1.5275118c1.5430774-.3894878,2.7589298-.9194127,3.3355516-1.3870748.0781743-.0626086.1093056-.1715684.187134-.1715684.0155657,0,.046697.0155657.09374.046697.2960938.187134.950544.6388846.950544.7948872,0,.0626086-.0622627.1248713-.1712224.140437-.2182654.0311314-.4365308.0933941-.4987935.1400911-.9664556.5610562-2.3227449,1.0757612-3.881388,1.4963804,0,.5769678,0,1.1224583.0155657,1.418552.0155657.5610562.187134.6547961,1.7302115.6547961,1.8080399,0,1.9329112-.0159116,2.2601363-2.3850076.5299248.4520964,1.0131526.6236648,1.0131526.6236648-.4050535,2.6966671-.8571499,2.8523238-3.2888546,2.8523238-2.0730023,0-2.8367581-.1715684-2.8367581-1.5897745v-.0622627Z"/>
            <path class="cls-2" d="m216.9622701,29.2812587c.0155657-.2805281,0-.3583565.0933941-.3583565.0311314,0,.0622627.0152198.0933941.0152198.8107988.140437.9353242.2186113.9353242.3120053,0,.046697-.0311314.1245254-.0933941.2493967-.09374.1712224-.1560027.3583565-.1715684.4987935-.1245254.8886272-.4676621,2.509533-.7948872,3.5226856,0,0-.4365308-.2805281-.9353242-.4365308.4676621-1.184721.8574958-3.2732889.8730615-3.8032137Zm1.4649032,5.159503c.0626086-1.4652491.0626086-3.3981602.0626086-4.878975v-1.4808147c-.3587024.0311314-.7170589.0622627-1.044284.0781743-.1560027.0152198-.3431367.0152198-.6080991.1400911-.1556568.0622627-.2493967.1248713-.3272251.1248713-.187134,0-.3587024-.7326245-.4053994-1.0134985v-.0933941c0-.0622627.0155657-.0778284.0781743-.0778284.046697,0,.1089597.0155657.2023538.0155657.140437,0,.2805281.0155657.4520964.0155657.4832278-.4987935.9820213-1.1224583,1.4341177-1.7302115-.5766219-.8104529-1.2625494-1.5430774-2.0263052-2.1511766l.6388846-.5766219c.1715684.1400911.327571.2649624.4832278.4053994.5769678-.8263645.9508899-1.6368174,1.044284-2.0730023.0626086-.280874.0470429-.3587024.140437-.3587024.0155657,0,.046697.0155657.0778284.0155657.3431367.0622627.7326245.1556568,1.0287183.2493967.09374.0311314.140437.0778284.140437.1400911,0,.0626086-.046697.140437-.1560027.2186113-.2493967.1867881-.2960938.3272251-.3583565.4517505-.2493967.4832278-.7637559,1.2784609-1.2469837,1.9796082.2649624.2805281.5299248.5614021.7948872.8886272.5921875-.8730615,1.0287183-1.6368174,1.1068926-1.9640425.0622627-.2493967.0778284-.3120053.1556568-.3120053.046697,0,1.2158523.280874,1.2158523.5147051,0,.0622627-.046697.1245254-.1400911.2026997-.2497426.1867881-.3742681.3272251-.4365308.4361849-.7326245,1.1535896-1.6990801,2.4317046-2.7900611,3.647557.7167129-.0155657,1.5119461-.046697,2.275702-.1093056-.2649624-.7167129-.5299248-1.1688094-.5299248-1.1688094l.8104529-.3116594s.7014932,1.3092464,1.1532437,2.7589298l-.950544.2960938c-.0626086-.2960938-.140437-.5610562-.2182654-.8260186-.3431367.0463511-.6703618.0778284-.9820213.1089597v1.4652491c0,1.4808147,0,3.4759886.0622627,4.972369h-1.1380239Zm2.2134393-1.7924742c-.1089597-1.231418-.3116594-2.3694419-.7011473-3.5074659l.8727156-.2338311c.3898337,1.1380239.6547961,2.3383106.8260186,3.5385972l-.9975869.2026997Zm4.4268785-6.297527c-1.184721,0-2.3379647.0311314-3.5849483.0622627v-1.1221124c1.4182061.0622627,2.7433641.0933941,4.0993075.0933941.5769678,0,1.1691553,0,1.7613428-.0155657v-1.1688094c-.9820213,0-3.0705892,0-4.8630634.0622627v-1.044284c1.7924742.0622627,3.8966078.0622627,4.8630634.0622627v-1.0754153h-.8104529c-1.231418,0-3.5382513,0-4.5669696.0622627v-1.044284c1.1532437.0622627,3.9592164.0622627,5.4555968.0622627h.9975869v4.0526105c.4987935-.0155657,1.0131526-.0311314,1.5430774-.046697v1.1221124c-1.3407236-.046697-2.5877073-.0622627-3.7876481-.0622627v.7170589c.2023538.5614021.4673162,1.231418.7793216,1.8239514.7170589-.6859275,1.137678-1.325158,1.3715091-1.9799541.0311314-.0778284.0622627-.1867881.140437-.1867881,0,0,.0155657.0155657.0311314.0155657.5921875.2649624,1.1065467.6077532,1.1065467.7170589,0,.046697-.046697.0933941-.1556568.1400911-.1715684.0778284-.327571.2338311-.3898337.3116594-.4520964.5769678-.9664556,1.231418-1.6053401,1.8083858.6855816,1.044284,1.6520372,2.0263052,2.6651898,2.5873614-.4987935.5610562-.6544502,1.1691553-.6544502,1.1691553-1.5430774-1.2625494-2.7122327-2.8682354-3.2888546-4.4113128v3.4137259c0,1.6053401-.6547961,1.9481309-1.9951739,1.9481309-.2493967,0-.5143591-.0152198-.8107988-.0311314,0,0-.0778284-.6855816-.3739221-1.2936807.4520964.0470429.8104529.0781743,1.090981.0781743.7948872,0,.9820213-.2182654.9820213-.9041929v-5.9232589Zm-.1715684,4.0373907c-.5299248.6388846-1.3092464,1.3870748-1.6987342,1.7302115-.140437.1245254-.3431367.3113135-.4365308.4987935-.0933941.2023538-.1715684.3113135-.2649624.3113135-.0781743,0-.140437,0-.7326245-1.0754153-.0311314-.0622627-.046697-.1089597-.046697-.1400911,0-.0781743.0778284-.1093056.2182654-.1715684.7011473-.3272251,1.5897745-1.1380239,2.5406644-2.1823079l.4206192,1.0290642Zm-1.4182061-.9823672c-.4676621-.7637559-.9820213-1.4804688-1.558989-2.0885679l.7796675-.5454905c.5454905.5610562,1.1221124,1.2625494,1.6053401,1.9640425l-.8260186.6700159Z"/>
            <path class="cls-2" d="m237.0675903,32.3362822c0-.2026997.0155657-.5454905.0155657-.8260186h-3.7098197c.0155657.4365308.0155657.9194127.0311314,1.184721h-1.1691553c.0626086-1.4029863.0626086-6.4376181.0626086-9.1965478v-1.8395171h5.876216v1.7613428c0,2.6188387,0,7.435205.0622627,8.9160197h-1.1688094Zm-2.3538763-9.663864h-1.3715091v3.0861549h1.3715091v-3.0861549Zm0,4.0993075h-1.3715091c0,1.184721,0,2.64997.0155657,3.7253853h1.3559434v-3.7253853Zm2.416139-4.0993075h-1.4341177v3.0861549h1.4341177v-3.0861549Zm-.0311314,7.8246928c.0155657-1.0601956.0311314-2.5250987.0311314-3.7253853h-1.4341177v3.7253853h1.4029863Zm4.7229723-7.8094731c-1.231418,0-2.2912676.0314773-3.3044203.0781743v-1.2469837c1.1688094.046697,2.4939673.0778284,3.8032137.0778284,1.1532437,0,2.3068333-.0155657,3.3822486-.0778284v1.2469837c-.8571499-.046697-1.7769085-.0622627-2.7277984-.0781743v9.8046469c0,1.6676029-.7167129,1.9325653-2.4784017,1.9325653-.2649624,0-.5454905,0-.8415843-.0152198,0,0-.0778284-.6080991-.3739221-1.2158523.5454905.046697.9820213.0622627,1.3092464.0622627,1.2002866,0,1.231418-.2649624,1.231418-.8886272v-9.6797756Z"/>
            <path class="cls-2" d="m251.373831,33.2716064v-.7326245c0-2.1356109,1.4652491-3.8810421,3.600514-4.785235,1.7146458-.7014932,2.5877073-1.6679488,2.5877073-2.64997,0-1.184721-.8886272-1.9484768-2.322399-1.9484768-1.2784609,0-2.4005733,1.0134985-2.462836,2.556576h-1.2940266c.0781743-2.416139,1.7616887-3.7720824,3.8035596-3.7720824,2.3535304,0,3.6472111,1.3403777,3.6472111,3.1484176,0,1.5586431-1.0598496,2.7433641-3.3199859,3.7565167-1.6053401.6859275-2.6966671,1.8706485-2.8211925,3.1954605h6.2816154v1.231418h-7.7001674Z"/>
            <path class="cls-2" d="m272.430041,30.543808c-1.2469837-.0622627-2.6029271-.0778284-3.928085-.0778284-1.3403777,0-2.6340584.0155657-3.7876481.0778284v-1.1221124c.5143591.0311314.9820213.0622627,1.5430774.0778284.0155657-1.2625494.0155657-2.8678895.0155657-4.3331386v-1.6990801c-.4361849,0-.8727156.0155657-1.3092464.046697v-1.1224583c.4209651.0311314.8574958.0470429,1.2936807.0781743-.0155657-.6236648-.046697-1.0598496-.0622627-1.2002866-.046697-.187134-.0933941-.3272251-.0933941-.3898337,0-.0622627.0311314-.0933941.1245254-.0933941h.0311314c1.2625494.1089597,1.3407236.187134,1.3407236.2805281,0,.0781743-.0626086.1715684-.1248713.2960938-.1089597.2026997-.1089597.4676621-.1089597.7170589,0,.09374,0,.2338311-.0155657.4209651.4050535,0,.8571499.0155657,1.3092464.0155657.4365308,0,.8882813-.0155657,1.2936807-.0155657-.0155657-.6392305-.0311314-1.090981-.046697-1.231418-.046697-.187134-.0933941-.3272251-.0933941-.3898337,0-.0622627.0311314-.0933941.1245254-.0933941h.0311314c1.2625494.1089597,1.3407236.187134,1.3407236.2805281,0,.0781743-.0626086.1715684-.1248713.2960938-.1089597.2026997-.1089597.4676621-.1089597.7170589v.3739222c.4517505-.0152198.8260186-.0311314,1.278115-.0622627v1.1224583c-.4520964-.0155657-.8419302-.0311314-1.2936807-.046697-.0159116.903847-.0159116,2.1196993-.0159116,3.366683,0,.9041929,0,1.8391712.0159116,2.6655357.4987935-.0155657.903847-.046697,1.3715091-.0778284v1.1221124Zm-5.5956879.5299248c.0622627-.2649624.0622627-.3894878.1712224-.3894878.046697,0,1.2469837.3427908,1.2469837.5766219,0,.0622627-.046697.1400911-.1556568.2026997-.2493967.1712224-.3742681.3427908-.4520964.4832278-.4365308.7326245-1.0598496,1.6053401-1.9951739,2.4157931,0,0-.3116594-.4828819-.8260186-.8727156,1.137678-.7793216,1.8703026-1.8862141,2.0107396-2.416139Zm.5143591-7.6375588c0,.3739221-.0155657.8104529-.0155657,1.278115h2.6496241c0-.4520964-.0155657-.8730615-.0155657-1.278115h-2.6184928Zm2.6340584,2.2290049h-2.6496241v1.3559434h2.6496241v-1.3559434Zm-2.6496241,2.3068333c0,.5299248,0,1.0598496.0155657,1.5586431.4050535,0,.8571499.0155657,1.3092464.0155657s.9041929-.0155657,1.3092464-.0155657c0-.4832278.0155657-1.0131526.0155657-1.5586431h-2.6496241Zm2.4939673,2.7433641c.4517505.7014932.9664556,1.3559434,1.6676029,1.9796082-.4987935.3427908-.8260186.7481902-.8260186.7481902-.6703618-.7481902-1.184721-1.4808147-1.6835144-2.2601363l.8419302-.4676621Zm6.8893686-1.7302115h-2.6811014c-.2490508,2.6966671-.9194127,4.0059134-2.1975277,5.4555968,0,0-.2649624-.6080991-.7793216-1.0134985,1.3715091-1.2936807,1.9014339-2.8990209,1.9014339-5.5178595v-6.5154465h4.878975v11.1917217c0,1.325158-.4209651,1.7769085-1.9951739,1.7769085-.2338311,0-.4832278-.0155657-.7793216-.0311314,0,0-.0470429-.6077532-.3742681-1.1532437.4676621.0311314.8260186.0622627,1.1068926.0622627.7637559,0,.9194127-.1715684.9194127-.7326245v-3.5226856Zm0-6.6091864h-2.6496241v2.2290049h2.6496241v-2.2290049Zm0,3.1798948h-2.6496241v2.4784017h2.6496241v-2.4784017Z"/>
            <path class="cls-2" d="m280.1277871,33.9108369l13.638992-13.6545577.6392305.6388846-13.638992,13.6545577-.6392305-.6388846Z"/>
          </g>
          <g>
            <path class="cls-2" d="m187.3667298,51.2302468c.0255969-1.0716104.0383953-3.1124436.0383953-4.5154299-.4593604,1.2500968-1.1608536,2.3978061-2.0792285,3.4057701,0,0-.1912849-.4721589-.5354593-.7910823.8799796-.8799796,1.5178265-1.7983545,2.0408332-2.9592081-.4977558.0127984-1.3012906.0255969-1.8623468.0511938v-.8547286c.8163333.0255969,1.7475067.0508479,2.4362014.0508479.0127984-.4334176.0127984-.8287858.0127984-1.0712645h-1.3009447c-.446562,0-.9055765,0-1.33934.0127984v-.9055765c.5994515.0380494,1.2244999.0511938,1.8239514.0636463-.1784864-.4974099-.4081666-.9692228-.7142916-1.4157848l.7907364-.2168818c.3317219.5230067.5742005,1.033215.8163333,1.645465h.7782838c.2805281-.4590145.5354593-1.0456676.5866531-1.364591.0255969-.2424787.0255969-.3064709.1020417-.3064709.0127984,0,.0380494.0131443.0636463.0131443.2552771.0380494.9439718.1528895.9439718.2933265,0,.0508479-.0383953.1016958-.1020417.165688l-.140437.1400911c-.0380494.0511938-.0636463.0892432-.0892432.140437-.0764448.1912849-.2424787.5610562-.446562.9055765.586999-.0124525,1.1608536-.0380494,1.7603051-.0636463v.9055765c-.3953682-.0127984-.7907364-.0255969-1.1733061-.0255969-.5102083,0-1.0076182.0127984-1.4925755.0127984v1.0844088c.7654854-.0131443,1.6326666-.0255969,2.538243-.0639922v.8547286c-.6375009-.0255969-1.4157848-.0511938-1.976841-.0511938.5994515.9055765,1.1224583,1.5178265,1.8495483,2.092027-.3701172.306125-.5486036.7142916-.5486036.7142916-.752687-.7270901-1.3137431-1.5306249-1.8495483-2.5001936.0127984,1.4413817.0383953,3.4441654.0764448,4.5538253h-1.0076182Zm3.3293253-9.2093463c-.8803255-.0511938-1.8495483-.0636463-2.819117-.0636463-.9564244,0-1.9003962.0124525-2.7167295.0636463v-.9055765c.6378468.0508479,1.5942712.0764448,2.2833119.0892432,0-.280874-.0127984-.5230067-.0511938-.7270901-.0383953-.1660339-.0764448-.2805281-.0764448-.3445203,0-.0380494.0127984-.0636463.0892432-.0636463h.0511938c1.0968614.0892432,1.1221124.140437,1.1221124.2296802,0,.0636463-.0508479.140437-.0892432.2421328-.0636463.1784864-.1020417.2933265-.1020417.6634437.7654854,0,1.5562218-.0383953,2.3089087-.0892432v.9055765Zm3.2653331,9.2093463c.0636463-1.7219098.0764448-4.2349018.0764448-5.7783252v-1.033215h-1.7983545c-.0255969,3.3677207-.3445203,4.7831596-1.6326666,6.7603464,0,0-.306125-.4462161-.7014932-.752687,1.1477092-1.5558759,1.4538342-2.9588622,1.4538342-5.4971053v-4.043617c1.8114989-.1784864,3.3293253-.61225,3.5206102-.752687.0508479-.0380494.0892432-.0636463.1400911-.0636463.0255969,0,.0511938.0127984.0892432.0255969.2168818.1148401.5230067.2933265.7910823.471813.0764448.0383953.1020417.1020417.1020417.1528895,0,.0639922-.0511938.1148401-.1532354.1148401h-.0127984c-.0764448,0-.1400911-.0124525-.1912849-.0124525-.0764448,0-.1276386.0124525-.2040833.0380494-.8799796.306125-2.117278.5866531-3.2013409.7398885v2.0024379c.9564244,0,2.869619,0,4.0176742-.0508479v.9183749c-.4081666-.0127984-.8163333-.0255969-1.3521385-.0383953v1.033215c0,1.5306249.0127984,4.0180201.0767907,5.7655267h-1.0204166Z"/>
            <path class="cls-2" d="m201.0240547,42.8244353c-.1276386-.4721589-.280874-.8035348-.5105542-1.1352567h-.892778c-.3825697.4209651-.8671812.9055765-1.4413817,1.2753478,0,0-.2293343-.4081666-.6502994-.6502994,1.1224583-.6634437,1.7727576-1.5562218,1.8875978-1.95159.0639922-.2168818.0255969-.306125.1276386-.306125h.0383953c.9308275.140437,1.0076182.2168818,1.0076182.306125,0,.0511938-.0383953.1020417-.1148401.1660339-.2168818.1784864-.3573188.4206192-.3573188.4206192h.6634437c.8035348,0,1.7855561-.0124525,2.5254446-.0508479v.8415843c-.5866531-.025251-1.2881462-.0380494-1.9259931-.0380494.1528895.2552771.306125.5358052.446562.8675271l-.8035348.2549312Zm7.665577,5.1276799c-1.3389941-.0383953-2.7551248-.0511938-4.1069174-.0639922,1.0204166.8419302,2.538243,1.479777,4.4258408,1.785902-.4590145.446562-.6250484.9311734-.6250484.9311734-1.9640425-.5230067-3.481869-1.2628953-4.7319658-2.6022353,0,.7654854,0,1.95159.0636463,3.2272837h-1.058466c.0380494-.8419302.0636463-1.9135405.0636463-2.819117v-.3953682c-1.173652,1.33934-2.7167295,2.1048254-4.5918747,2.6022353,0,0-.1912849-.4849573-.5738546-.8803255,1.6070697-.306125,3.175744-.9564244,4.2601528-1.8495483-1.3012906.0127984-2.7170754.0383953-3.9796247.0639922v-.9311734c1.6070697.0508479,3.2269378.0764448,4.8596043.0892432,0-.4209651-.0636463-.446562-.0892432-.5614021l-.1784864.1276386s-.1784864-.446562-.5230067-.7779379c1.0968614-.471813,1.2117015-1.2500968,1.2117015-2.1812702,0-.1912849-.0127984-.3825697-.0127984-.5866531h3.9668263v2.1428749c0,.2168818.0767907.3697713.4721589.3697713.4846114,0,.5738546-.1400911.6886947-1.4157848.3825697.2805281.7779379.4081666.7779379.4081666-.2549312,1.6838603-.5866531,1.785902-1.5434233,1.785902-.5738546,0-1.2497509-.0511938-1.2497509-.9311734v-1.5946171h-2.2833119v.0639922c0,1.4029863-.4081666,1.9899853-1.0840629,2.4234029.9564244.0892432,1.0204166.0892432,1.0204166.1912849,0,.0511938-.0511938.140437-.1020417.2424787-.0511938.1020417-.0767907.1532354-.1020417.2933265,1.670716-.0127984,3.3545763-.0383953,5.0252923-.0892432v.9311734Zm-6.2117428-2.4873952c-1.1733061.306125-2.9464097.61225-3.5330628.7014932-.140437.0255969-.306125.1020417-.4337635.2040833-.1020417.0892432-.1784864.140437-.2424787.140437-.1528895,0-.4081666-.9567703-.4081666-1.0588119,0-.0764448.0639922-.0764448.2424787-.0764448.3189234,0,1.033215-.0636463,1.7475067-.1660339v-1.2881462c-.5102083.0127984-1.0460135.0255969-1.5562218.0511938v-.9055765c.6890406.0636463,1.3649369.0892432,2.0408332.0892432.6890406,0,1.3649369-.0255969,2.0408332-.0892432v.9055765c-.5610562-.0383953-1.0840629-.0511938-1.6582634-.0511938v1.1608536c.6378468-.1020417,1.1864505-.2424787,1.7603051-.3953682v.7779379Zm6.1480965-3.7246935c-.7014932-.0380494-1.5942712-.0508479-2.3853535-.0508479.1660339.2549312.3189234.5486036.4593604.8803255l-.8163333.2549312c-.1276386-.4721589-.2805281-.8035348-.4974099-1.1352567h-.8675271c-.2933265.3829157-.6502994.8035348-1.0712645,1.1608536,0,0-.2933265-.3697713-.7014932-.61225.7907364-.4721589,1.33934-1.3901879,1.4666327-1.8751452.0511938-.2168818.0255969-.306125.1276386-.306125h.0383953c.2549312.0383953.5994515.1020417.8543827.165688.0892432.0131443.1276386.0639922.1276386.1276386,0,.0511938-.0383953.1148401-.1148401.1788323-.1912849.1528895-.3441744.4206192-.3441744.4206192h.7651395c.9183749,0,2.092027-.0124525,2.9592081-.0508479v.8415843Zm-3.1760899,4.4005898c-.446562-.4462161-.9692228-.8287858-1.4541801-1.1221124l.5230067-.5358052c.4974099.2677296,1.0204166.61225,1.5178265,1.0076182l-.5866531.6502994Z"/>
            <path class="cls-2" d="m213.5585754,40.6303667c1.1096598.2172277,1.1096598.3317219,1.1096598.3957141,0,.0636463-.0511938.1400911-.1276386.2040833-.1912849.165688-.2805281.3697713-.306125.4337635-.8291317,1.8236055-1.95159,3.0737023-3.4057701,4.4386392,0,0-.1528895-.5486036-.5482577-.9692228,1.5686743-1.0460135,2.9464097-3.2272837,3.1376946-4.0816664.0636463-.2680755,0-.421311.1148401-.421311h.0255969Zm5.8035762,4.3749929c-.1276386,1.8498942-.3317219,3.6990966-.5486036,4.8471518-.2040833,1.0460135-.6250484,1.3649369-1.9643884,1.3649369-.306125,0-.6502994-.0127984-1.0456676-.0383953,0,0-.0511938-.5230067-.3445203-1.058466.5738546.0508479.9948197.0892432,1.3137431.0892432.8419302,0,.9820213-.2040833,1.0968614-.752687.1532354-.7142916.3445203-2.5638399.4209651-3.5714581,0,0-1.3137431,0-2.8699649.0127984-.6375009,2.6911326-1.6198681,4.0688679-4.6046731,5.3317632,0,0-.1144942-.5230067-.5354593-1.0079641,2.6018894-.7523411,3.7371461-2.2317722,4.1581112-4.3237991-.7014932.0127984-1.4922296.0255969-2.1428749.0380494v-.9820213c1.6070697.0508479,3.8263893.0508479,5.3445616.0508479h1.7219098Zm-1.505028-4.4130424c.7014932,1.5558759,1.9640425,3.3926258,3.9028341,4.208959-.3441744.4337635-.4846114,1.0460135-.4846114,1.0460135-2.2065212-1.2881462-3.2781316-2.8315696-4.2857497-4.9996954l.8675271-.2552771Z"/>
            <path class="cls-2" d="m227.2536039,42.9136785c-.7142916-.0383953-1.4285832-.0636463-2.1300764-.0636463-.6886947,0-1.3901879.025251-2.0916811.0636463v-.8799796c.7270901.0508479,1.4157848.0892432,2.1044795.0892432.7014932,0,1.3905338-.0383953,2.117278-.0892432v.8799796Zm-.306125,1.4669786c-.6375009-.0383953-1.198903-.0636463-1.7475067-.0636463-.5482577,0-1.0840629.025251-1.6835144.0636463v-.8547286c.5994515.0508479,1.1352567.0892432,1.6835144.0892432.5486036,0,1.1100057-.0383953,1.7475067-.0892432v.8547286Zm0,1.5814728c-.6375009-.0380494-1.198903-.0636463-1.7475067-.0636463-.5482577,0-1.0840629.0255969-1.6835144.0636463v-.8543827c.5994515.0508479,1.1352567.0892432,1.6835144.0892432.5486036,0,1.1100057-.0383953,1.7475067-.0892432v.8543827Zm-.1020417-4.5534794c-.5866531-.0383953-1.1224583-.0636463-1.6579175-.0636463-.5230067,0-1.033215.025251-1.5818187.0636463v-.8547286c.5358052.0511938,1.0588119.0895891,1.5818187.0895891.5354593,0,1.0840629-.0383953,1.6579175-.0895891v.8547286Zm-.9183749,9.5151253c.0127984-.1784864.0127984-.3825697.0127984-.5991056h-1.4285832c.0127984.2933265.0127984.5738546.0255969.8287858h-.9311734c.0383953-.9820213.0383953-2.5506956.0383953-3.4950133v-.7779379h3.1760899v.8035348c0,.9567703,0,2.5129921.0380494,3.2397362h-.9311734Zm.0383953-3.2777857h-1.4669786v1.9131946h1.4541801c.0127984-.4846114.0127984-.9695687.0127984-1.3265416v-.5866531Zm6.9260344,1.8367499c.4337635.4081666.9823672.7270901,1.6070697.9311734-.2933265.3953682-.471813.8163333-.471813.8163333-1.6582634-.7654854-2.6018894-1.95159-3.1888883-3.7883399h-.4334176c-.1916308.2296802-.4081666.4462161-.6250484.6502994v1.7219098c.4081666-.1016958.9436259-.2165359,1.3901879-.3950223v.8163333c-.9055765.2677296-1.7855561.4974099-2.4617983.6375009-.165688.0383953-.3441744.0892432-.471813.2040833-.1020417.0892432-.1788323.140437-.2296802.140437-.1912849,0-.4337635-1.0460135-.4337635-1.0460135,0-.0639922.0255969-.0764448.1276386-.0764448h.2040833c.2805281,0,.6250484-.0383953,1.0204166-.1148401v-1.2628953c-.471813.2936724-.9948197.5358052-1.5814728.7398885,0,0-.1916308-.4462161-.4721589-.7651395,1.0844088-.2424787,1.95159-.6890406,2.538243-1.2376443-.7014932,0-1.4538342.0255969-2.1300764.0511938v-.7907364c.6250484.0380494,1.3009447.0511938,1.9643884.0764448,0-.2293343.0127984-.5738546.0127984-.8291317-.4846114.0127984-.9823672.0255969-1.4541801.0511938v-.7782838c.471813.0255969.9820213.0511938,1.4669786.0639922v-.6634437c-.5742005.0127984-1.173652.0383953-1.7347082.0511938v-.7910823c.5482577.0255969,1.1477092.0511938,1.7219098.0639922-.0127984-.2168818-.0255969-.3829157-.0511938-.4721589-.0380494-.1528895-.0636463-.2549312-.0636463-.3189234,0-.0508479.0255969-.0760989.0892432-.0760989h.0383953c.9183749.0760989.9436259.165688.9436259.2421328,0,.0511938-.025251.1276386-.0764448.2296802-.0636463.1272926-.0892432.2677296-.1020417.4206192h1.6710619c0-.2549312-.0255969-.4462161-.0511938-.5482577-.0380494-.165688-.0764448-.2805281-.0764448-.3317219,0-.0508479.0127984-.0636463.0764448-.0636463h.0639922c.9183749.1272926.9436259.1912849.9436259.2677296,0,.0511938-.025251.1276386-.0764448.2296802-.0636463.140437-.0892432.2805281-.1020417.4337635.5742005-.0255969,1.2244999-.0383953,1.7987004-.0767907v.7910823c-.5742005-.0255969-1.2244999-.0383953-1.7987004-.0511938v.6634437c.4846114-.0127984,1.033215-.0255969,1.5178265-.0639922v.8038807c-.4846114-.0131443-1.033215-.0383953-1.5178265-.0511938v.8035348c.6506453-.0127984,1.3905338-.0383953,2.0280348-.0764448v.7907364c-.9439718-.0380494-1.9003962-.0511938-2.844368-.0636463.1784864.4974099.3825697.9436259.6378468,1.3265416.471813-.3573188.8419302-.7270901.9311734-.9695687.0255969-.0636463.0508479-.1528895.1148401-.1528895.0380494,0,.3569729.140437.7651395.4206192.0383953.0383953.0511938.0639922.0511938.1023876,0,.0636463-.0511938.1148401-.140437.1528895-.165688.0636463-.2805281.140437-.3953682.2552771-.2040833.2040833-.4846114.4590145-.8803255.7651395l.140437.140437Zm-5.5994928-6.7859433c1.1224583-.140437,1.9003962-.4462161,2.2065212-.7395426.0639922-.0511938.1020417-.1023876.1660339-.1023876.025251,0,.0636463.0131443.1020417.0255969.7523411.3573188.8035348.3825697.8035348.4593604,0,.0636463-.0764448.1272926-.165688.140437-.2296802.0380494-.3317219.0892432-.4721589.165688-.5230067.2805281-1.1352567.4974099-2.2193196.7907364,0,0-.140437-.3573188-.4209651-.7398885Zm7.1429162-.8543827c-1.2628953-.0511938-2.3978061-.0639922-3.5206102-.0639922-1.1221124,0-2.2193196.0127984-3.4054242.0639922v-.8291317c.9948197.0383953,1.95159.0764448,2.9336112.0764448-.0127984-.2168818-.0255969-.3953682-.0636463-.61225-.0383953-.1660339-.0767907-.2805281-.0767907-.3445203,0-.0380494.0127984-.0636463.0895891-.0636463h.0508479c.9823672.0764448,1.0204166.1528895,1.0204166.2421328,0,.0511938-.0380494.140437-.0892432.2296802-.0892432.1532354-.0892432.3064709-.0892432.5486036,1.0076182,0,2.0536316-.0255969,3.150493-.0764448v.8291317Zm-2.7167295,2.7803758h-1.6838603v.7014932h1.6838603v-.7014932Zm-.0127984,1.3268875h-1.6710619v.8543827h1.6710619v-.8543827Zm.1784864-4.0816664c.7654854.4081666,1.5178265.6630978,2.5126462.9055765-.306125.4081666-.471813.7395426-.471813.7395426-.9311734-.306125-1.7983545-.6758963-2.6914785-1.1733061l.6506453-.471813Z"/>
            <path class="cls-2" d="m237.4159155,51.2302468c.0508479-2.092027.0892432-3.9415753.0892432-5.3061663,0-.4974099,0-.9311734-.0127984-1.2884921-.3825697.6250484-.7907364,1.2244999-1.2372984,1.7603051,0,0-.1528895-.5994515-.471813-1.058466,1.1861046-1.4161307,2.1300764-3.1760899,2.5890909-4.8471518.0639922-.2168818,0-.4209651.1148401-.4209651h.0255969c1.0840629.2296802,1.0968614.3569729,1.0968614.3953682,0,.0639922-.0636463.140437-.1272926.2040833-.1276386.1148401-.2296802.2805281-.280874.4337635-.2168818.5866531-.5354593,1.3521385-.9436259,2.1428749.3697713.0511938.4206192.0764448.4206192.1528895,0,.0639922-.0508479.1532354-.1148401.2552771-.0892432.140437-.1272926.5994515-.1272926,2.5126462,0,1.198903.0255969,2.8955618.0892432,5.0640336h-1.1096598Zm9.8468472-.4209651c-1.3901879-.0383953-2.8315696-.0511938-4.2345559-.0511938-1.4033323,0-2.7807217.0127984-4.0688679.0511938v-1.0076182c1.1224583.0508479,2.3213613.0636463,3.5586596.0764448v-3.125242c-.9695687,0-1.9135405.0255969-2.7807217.0639922v-.9820213c.8547286.0508479,1.811153.0892432,2.7807217.0892432v-2.5257905c-1.0972073,0-2.1812702.0255969-3.2653331.0511938v-.9823672c1.2753478.0511938,2.5254446.0767907,3.8007924.0767907,1.2756937,0,2.5766384-.0255969,3.9543737-.0767907v.9823672c-1.198903-.0383953-2.3597566-.0511938-3.4950133-.0511938v2.5257905c.9948197,0,2.0152363-.0383953,2.9464097-.0892432v.9820213c-.9439718-.0383953-1.95159-.0639922-2.9464097-.0639922v3.125242c1.2500968-.0127984,2.5254446-.0383953,3.7499445-.0764448v1.0076182Zm-3.4310211-8.3802145c-1.0204166-.6758963-2.1556733-1.2500968-3.0996451-1.6198681l.5358052-.7398885c.9692228.3953682,2.0408332.9183749,3.1632915,1.5690202l-.5994515.7907364Z"/>
            <path class="cls-2" d="m259.7720325,46.4979351c-1.8751452.2168818-3.7755414.4209651-5.6634851.6250484v2.0280348c0,.5994515.4209651.6250484,2.1940686.6250484.5738546,0,1.1224583-.0255969,1.4413817-.0511938.6502994-.0636463.9055765-.1148401,1.1733061-2.2449165.446562.3573188.9439718.5614021.9439718.5614021-.3829157,1.9259931-.7654854,2.5766384-1.7475067,2.6402847-.5614021.0380494-1.1861046.0636463-1.8239514.0636463-.6250484,0-1.2628953-.0255969-1.8239514-.0636463-.9823672-.0636463-1.33934-.6886947-1.3521385-1.4541801v-2.0024379c-1.4922296.165688-2.9720066.3189234-4.4261867.4974099l-.1020417-.9820213c1.479777-.1023876,3.0104019-.2296802,4.5282284-.3825697v-1.7350541c-1.0204166.1784864-2.1044795.3189234-3.2016868.4209651,0,0-.0508479-.5102083-.306125-.9308275,2.8955618-.0895891,5.8803668-.7270901,6.887985-1.2628953.0636463-.0383953.1148401-.0895891.1784864-.0895891.0892432,0,1.0204166.61225,1.0204166.7402344,0,.0760989-.0636463.1400911-.165688.1400911h-.0127984c-.1276386-.0127984-.1912849-.0255969-.2424787-.0255969-.0636463,0-.1020417.0127984-.2040833.0511938-.8799796.2933265-1.8875978.5482577-2.9592081.7651395v1.8239514c1.8879437-.2165359,3.762743-.471813,5.5614434-.7395426l.1020417.9820213Zm-1.3265416-2.8187711c.0508479-.5230067.0508479-1.0079641.0508479-1.2372984v-.1532354h-8.4310624v.140437c0,.2296802,0,.7014932.0508479,1.2500968h-1.1096598c.0511938-.4721589.0511938-1.198903.0511938-1.7094572v-.5738546h4.6171257v-.2296802c0-.2549312-.0124525-.4974099-.0508479-.6886947-.0383953-.1660339-.0764448-.2805281-.0764448-.3445203,0-.0380494.025251-.0636463.1020417-.0636463h.0380494c1.2117015.0892432,1.2117015.2040833,1.2117015.2421328,0,.0639922-.0508479.1532354-.1020417.2552771-.1020417.2552771-.1020417.6250484-.1020417.8291317h4.8087565v.306125c0,.4846114,0,1.4029863.0511938,1.9771869h-1.1096598Z"/>
            <path class="cls-2" d="m268.8744945,50.2734765v-2.0408332h-4.5790762v-.9567703l4.655521-6.0841043h.9948197v6.0332564h1.4157848v1.0076182h-1.4157848v2.0408332h-1.0712645Zm0-7.3342011l-3.3165269,4.2857497h3.3165269v-4.2857497Z"/>
            <path class="cls-2" d="m287.0472493,45.8472898c-1.9003962-.0508479-4.0052216-.0764448-6.0841043-.0764448h-1.2372984c-.1020417.306125-.2805281.8163333-.3825697,1.1224583h5.5355006c-.1016958,1.3012906-.2165359,2.0408332-.4590145,3.010056-.2677296,1.0335609-.6886947,1.3268875-2.0536316,1.3268875-.4209651,0-.9183749-.0255969-1.5306249-.0639922,0,0-.0255969-.4846114-.2933265-1.0456676.7398885.0764448,1.2881462.1272926,1.6835144.1272926.8803255,0,1.0716104-.2040833,1.1992489-.6630978.1912849-.6886947.2933265-1.2117015.3317219-1.8114989h-4.7195132c-.140437.3829157-.1912849.5614021-.3701172.9695687l-1.0076182-.2424787c.5102083-.9564244.8035348-1.8239514,1.0716104-2.7167295-1.0968614.0127984-2.1684717.0380494-3.1632915.0636463v-1.058466c1.7855561.0636463,3.7371461.0892432,5.7015345.0892432,1.976841,0,3.9540278-.0255969,5.7779793-.0892432v1.058466Zm-9.2601942-1.8875978v-3.3801732h6.9772282v3.3801732h-6.9772282Zm6.0332564-2.5129921h-5.0892845v1.6458109h5.0892845v-1.6458109Z"/>
            <path class="cls-2" d="m290.1814848,51.2302468c.0508479-1.8367499.0892432-4.1200617.0892432-6.1224996-.4081666,1.198903-.8547286,2.2193196-1.4413817,3.2269378,0,0-.1788323-.5614021-.5102083-.9695687.7142916-1.058466,1.3517926-2.4234029,1.8623468-4.1197158-.586999,0-1.1608536.0127984-1.7094572.0511938v-.9187208c.5742005.0511938,1.173652.0767907,1.7987004.0892432-.0255969-1.0712645-.0383953-1.8367499-.0892432-2.0152363-.0383953-.1528895-.0895891-.2549312-.0895891-.3189234,0-.0508479.0383953-.0764448.1148401-.0764448h.0255969c1.0588119.0892432,1.1096598.165688,1.1096598.2424787,0,.0636463-.0383953.140437-.1020417.2421328-.1020417.1784864-.1148401.3317219-.140437,1.9135405.5230067-.0127984,1.0460135-.0383953,1.5434233-.0767907v.9187208c-.4974099-.0255969-1.0204166-.0511938-1.5434233-.0511938.4593604,1.0840629.9695687,1.9387915,1.5181724,2.7042769-.306125.3441744-.5358052.7779379-.5358052.7779379-.4081666-.7270901-.7014932-1.33934-.9823672-1.9771869,0,1.9899853.0255969,4.4261867.0895891,6.4798183h-1.0076182Zm5.2037787,0c.0255969-1.3012906.0511938-2.7170754.0639922-4.2093049-.6250484,1.4794311-1.6070697,2.5510415-3.0104019,3.4694164,0,0-.1912849-.4721589-.5738546-.8419302,1.2500968-.7142916,2.2833119-1.6326666,2.8571665-2.8571665h-1.7731036v-4.0944648h2.5129921c0-.2165359,0-.5486036-.0127984-.7395426-1.0460135,0-2.1300764.025251-3.1632915.0508479v-.892778c.5102083.0124525,1.0460135.0380494,1.5690202.0508479.5354593.0127984,1.0712645.0127984,1.5814728.0255969-.0127984-.3953682-.0255969-.6378468-.0383953-.7398885-.025251-.1528895-.0636463-.2549312-.0636463-.3189234,0-.0508479.0255969-.0764448.1020417-.0764448h.0255969c1.0712645.0508479,1.0712645.1788323,1.0712645.2168818,0,.0511938-.0380494.140437-.0764448.2421328-.0892432.2172277-.0892432.3064709-.0892432.6762422,1.058466,0,2.0664301-.0255969,3.1760899-.0764448v.892778c-1.1224583-.0383953-2.1300764-.0508479-3.2016868-.0508479v.7395426h2.6022353v4.0944648h-1.8879437c.6506453,1.1861046,1.6582634,2.1300764,2.7423264,2.6914785-.3953682.3953682-.5738546.9055765-.5738546.9055765-1.2244999-.893124-2.2321181-1.9896394-2.8699649-3.3801732.0127984,1.4541801.0383953,2.8699649.0636463,4.2221034h-1.033215Zm.0767907-7.780763h-1.6710619v.8543827h1.6710619v-.8543827Zm0,1.5814728h-1.6710619v1.0079641h1.6710619v-1.0079641Zm2.6402847-1.5814728h-1.7731036v.8543827h1.7731036v-.8543827Zm0,1.5814728h-1.7731036v1.0079641h1.7731036v-1.0079641Z"/>
          </g>
          <g>
            <path class="cls-2" d="m21.2130023,34.9980174h3.4081376c1.101935,0,2.5150539.1841985,2.5150539,1.501962v11.8528295s-3.8337478,1.4071371-10.7593326,1.4071371C9.4549975,49.7599461.2013481,45.9485255.2013481,35.3919976c0-10.5500159,9.6536764-14.6568053,16.7839263-14.6568053,3.2188224,0,7.2316521.1897803,7.2316521,1.9959489v3.5239593c-2.7090205-2.2103821-3.8086298-2.6202431-7.9247222-2.6202431-4.1328378,0-11.5240355,2.7044348-11.5240355,11.5180542,0,8.7680349,9.910438,14.0037378,18.1616939,10.6900253v-6.7279623c0-1.4111928-.1116355-4.1169572-1.7168603-4.1169572Z"/>
            <path class="cls-2" d="m72.9704577,49.041758h8.733149c-2.4057442-.9037821-3.4081376-3.8076994-4.2170295-5.9236565-.8130783-2.1010723-7.1367619-17.4779263-7.8256458-19.5887667-.7181881-2.1052587-1.706162-2.1052587-2.5299386-2.1052587h-5.0003383c2.4010927.8079616,1.0782125,2.5150538.6781854,3.7178601-.3939801,1.1973561-8.8280392,22.1080727-8.8280392,22.1080727-2.9197324-.8033101-10.2709275-11.557991-10.2709275-11.557991,9.7462408-2.8043757,8.2591635-14.2679418-1.2935759-14.2679418h-10.9532992c2.2159639.4995687,2.0159504,2.8197256,2.0159504,4.6258943v18.9840747c0,2.6057576-.8070313,3.3187639-2.1108405,4.0077129h8.0298456c-2.2057306-.9986722-1.6177839-3.3137125-1.6177839-4.4161126v-20.4818504h4.3328513c2.3215524,0,4.017016,2.8150741,4.017016,4.7254359,0,3.0946279-2.4201637,4.3077332-4.8152095,5.2063986-2.4206289.9023866-1.1079819,2.9141506,0,4.5161194,1.1014699,1.6122021,4.3119197,6.1422106,6.2371662,8.3540534,1.9019892,2.2108472,3.6123374,2.0959557,4.5119332,2.0959557h7.2311869c-2.7992592-.8930837-1.2977622-3.0932325-.9033169-4.2012144.4107255-1.1135637,2.2117776-5.8348132,2.2117776-5.8348132h10.8500364s1.3121818,3.4081375,2.5150539,6.4371796c1.2177568,2.9992726.2883916,3.4039512-.9982071,3.5988481Zm-11.2593665-13.2506636l4.1160924-10.7490991,4.4277414,10.7490991h-8.5438339Z"/>
            <path class="cls-2" d="m160.9685047,49.041758h8.7587321c-2.4266758-.9037821-3.4230223-3.8076994-4.2212158-5.9236565-.7986587-2.1010723-7.1386225-17.4779263-7.835879-19.5887667-.7102806-2.1052587-1.6977893-2.1052587-2.521566-2.1052587h-5.0133625c2.4248152.8079616,1.101935,2.5150538.6930701,3.7178601-.4000271,1.1973561-8.8429239,22.1080727-8.8429239,22.1080727-.5600379,1.3126469-1.3838146,1.3321831-1.9019892,1.7917491h7.2358384c-2.814609-.8930837-1.3084606-3.0932325-.9079684-4.2012144.3981665-1.1135637,2.2201502-5.8348132,2.2201502-5.8348132h10.8458501s1.3228802,3.4081375,2.5234265,6.4371796c1.1986858,2.9992726.2907173,3.4039512-1.0321629,3.5988481Zm-11.2375045-13.2506636l4.1160924-10.7490991,4.417043,10.7490991h-8.5331355Z"/>
            <path class="cls-2" d="m130.0631578,49.5557462c1.0023934-.9079684,1.9103618-1.6169188,1.9103618-4.8217868v-18.9886608c0-1.5014969-.1158218-3.223939-1.9103618-3.8216538h7.7200572c-.7981935.7126063-1.7526767,1.60569-1.7526767,3.6272221v19.1830926c0,1.7127393-.3497911,4.2287234,1.8661728,4.8217868h-7.8335533Z"/>
            <path class="cls-2" d="m88.4356902,27.8468361s-.0990765,15.1660767-.0990765,16.8871234c0,1.7127393.2041999,4.2287234,2.4141168,4.8217868h-7.3409618c1.0237902-.9079684,1.807099-1.6169188,1.807099-4.8217868,0-3.2080586.2148983-17.4960018.2148983-18.9886608,0-1.5014969-.2148983-3.223939-2.0219973-3.8216538h5.6450331l16.8685832,21.1944567v-17.2672144c0-1.1130985.2041999-3.214636-2.1066542-4.0179462h7.5307421c-.8930837.6884187-2.222476.998207-2.222476,3.9123576v24.9277325s-2.0959558.3846772-5.5040933-3.7272288c-3.4272086-4.111906-15.1852135-19.0989662-15.1852135-19.0989662Z"/>
            <path class="cls-2" d="m136.4496365,70.945565c-22.094053-18.6250457-30.5513694-40.5436724-.3283943-70.4522069.9479711-.9475059,1.8452411-.384212,1.1014699.4637523-13.2450822,15.1470049-28.021896,39.3701046-.3032763,69.0656015.4297965.4488676.2697857,1.4368414-.4697992.9228531Z"/>
          </g>
        </g>
      </g>
    </g>
  </g>
</svg>