<?xml version="1.0" encoding="UTF-8"?>
<svg id="_レイヤー_2" data-name="レイヤー 2" xmlns="http://www.w3.org/2000/svg" viewBox="0 0 433.1519787 155.4913944">
  <defs>
    <style>
      .cls-1 {
        fill: #5a8190;
        stroke-width: 0px;
      }
    </style>
  </defs>
  <g id="_フレーム" data-name="フレーム">
    <g>
      <g>
        <path class="cls-1" d="m32.973756,155.4913944c.0307617-.5776367.0307617-1.246582.0307617-1.9765625h-14.5668945c.0302734.7299805.0302734,1.3989258.0605469,1.9765625h-2.5844727c.121582-3.5883789.121582-11.0390625.121582-16.421875v-6.2646484h6.78125c.8515625-1.2163086,1.4296875-2.4633789,1.6118164-3.2539062.0913086-.5473633.0307617-.6992188.2431641-.6992188h.1220703c2.5239258.3950195,2.6152344.6386719,2.6152344.7905273,0,.121582-.0913086.2739258-.2739258.4257812-.4863281.3955078-.6079102.6083984-.7294922.8515625-.3041992.5776367-.699707,1.246582-1.0952148,1.8852539h10.1269531v6.234375c0,5.3828125,0,12.8334961.121582,16.4521484h-2.5849609Zm.121582-14.9013672h-14.7490234c.0302734,1.2470703.0302734,2.6459961.0302734,4.0449219h14.71875v-4.0449219Zm0-5.6259766h-14.71875v3.527832h14.71875v-3.527832Zm-14.71875,11.769043c0,1.581543,0,3.1625977.0307617,4.6225586h14.6274414c.0302734-1.4291992.0302734-3.0107422.0605469-4.6225586h-14.71875Z"/>
        <path class="cls-1" d="m69.1876232,137.4577029c-1.3686523-.0302734-3.527832-.0605469-5.7475586-.0913086,1.003418,3.6801758,3.0410156,6.8427734,6.4165039,8.9106445-1.0336914,1.0336914-1.4291992,2.3110352-1.4291992,2.3110352-2.949707-2.5239258-5.5043945-5.7172852-6.8120117-10.6132812-1.2773438,5.1088867-3.4970703,7.9677734-7.8154297,10.3398438,0,0-.3652344-1.0947266-1.2773438-2.0678711,4.0141602-1.7944336,6.1430664-4.5922852,7.0551758-8.9106445h-4.1660156c-2.28125,4.5615234-5.4438477,8.0893555-11.6474609,11.1303711,0,0-.3041992-1.1860352-1.2773438-2.1591797,2.6152344-.9121094,4.6225586-2.3110352,6.112793-3.7099609-1.5512695-2.0986328-3.4667969-3.5581055-3.4667969-3.5581055l1.5205078-1.2163086s1.9155273,1.5205078,3.4970703,3.3452148c.6083984-.5170898,1.246582-1.2470703,1.6723633-2.0375977-1.5507812-1.7333984-3.6796875-3.1020508-3.6796875-3.1020508l1.4296875-1.3378906s1.7026367,1.0947266,3.4057617,2.6455078c.8515625-1.2163086,1.2773438-2.3720703,1.6420898-3.6186523h-5.8388672c-1.246582,1.9155273-2.9799805,3.8618164-4.9570312,5.3217773,0,0-.3950195-1.2470703-1.1860352-2.1289062,3.1323242-1.7939453,5.4741211-5.7172852,5.8388672-7.359375.0913086-.5170898-.0302734-.6992188.2739258-.6992188.0913086,0,.1518555,0,.2739258.0302734,2.25.3041992,2.2807617.6083984,2.2807617.6992188,0,.0913086-.0913086.2436523-.3041992.3955078-.2739258.2128906-.4560547.4560547-.5170898.6083984-.1518555.3950195-.3647461.7905273-.5776367,1.1860352h4.652832c.3344727,0,.5776367-.0913086.8208008-.2739258.0610352-.0605469.1523438-.0913086.2128906-.0913086.0913086,0,.1826172.0307617.2739258.0913086,1.6723633.9125977,1.8852539,1.0947266,1.8852539,1.3383789,0,.3344727-.6386719.6689453-.7299805.9121094-.2124023.5170898-.4863281,1.0947266-.6992188,1.581543h3.5581055c.121582-1.1860352.1518555-2.3720703.1518555-3.3759766,0-1.0947266-.0302734-1.9462891-.0908203-2.25-.0610352-.2436523-.0913086-.456543-.0913086-.578125,0-.1821289.0605469-.2431641.2431641-.2431641.4863281,0,2.0375977.2739258,2.5239258.3955078.1523438.0605469.2431641.121582.2431641.2431641s-.0908203.2734375-.2124023.4560547c-.2739258.3955078-.3652344.7299805-.3652344,1.1254883-.0302734.7905273-.0605469,2.4628906-.2431641,4.2270508,2.6762695-.0307617,5.4741211-.0610352,7.1464844-.1523438v2.2807617Zm-22.0478516,10.3398438c.6386719.121582,1.3686523.2734375,1.9765625.4863281.2436523.0610352.3955078.1826172.3955078.3349609,0,.0908203-.0913086.2431641-.2431641.3950195-.4257812.4257812-.4868164.4868164-.6386719.8515625-.7905273,2.0073242-1.7944336,3.6191406-3.4667969,5.6259766,0,0-.9428711-.8515625-2.0678711-1.3989258,1.9765625-1.7333984,3.3144531-4.1357422,3.6489258-5.5649414.1523438-.5473633.0610352-.7299805.2739258-.7299805h.121582Zm4.9570312,7.4506836c.0302734-.7602539.0610352-1.5205078.0610352-2.2202148,0-1.4594727-.0913086-2.8583984-.2436523-4.3486328l2.1289062-.0913086c.2734375,1.9160156.4257812,3.8012695.4257812,5.9604492v.6083984l-2.3720703.0913086Zm7.0551758-.0302734c-.2734375-2.3115234-.7602539-4.3491211-1.5810547-6.4169922l2.1591797-.3041992c.8208008,1.9462891,1.3984375,3.9838867,1.7636719,6.3862305l-2.3417969.3349609Zm8.0283203.2734375c-1.1860352-2.6455078-2.25-4.5917969-3.8012695-6.8725586l2.0375977-.7607422c1.6118164,2.1289062,2.828125,4.2578125,3.9536133,6.5996094l-2.1899414,1.0336914Zm-.5473633-20.8920898s-1.246582-2.0986328-3.2231445-3.8012695l1.4897461-1.0644531c1.7641602,1.4902344,3.3452148,3.527832,3.3452148,3.527832l-1.6118164,1.3378906Z"/>
        <path class="cls-1" d="m83.1260998,149.9425662c4.6606445,0,6.9799805-3.1601562,6.9799805-6.3432617,0-2.8647461-1.9326172-5.7519531-5.7978516-6.2294922-.8867188,6.4116211-3.796875,14.0961914-6.7978516,14.0961914-1.659668,0-3.7744141-2.6147461-3.7744141-6.2524414,0-4.4560547,3.0922852-9.4350586,9.3671875-9.4350586,5.6386719,0,8.8212891,3.6831055,8.8212891,7.9345703,0,3.796875-2.659668,7.6621094-7.9116211,8.2304688-.2045898-.6142578-.5913086-1.3417969-1.1142578-2.0009766h.2275391Zm-7.6621094-4.8198242c0,2.3642578,1.0688477,4.2744141,2.0688477,4.2744141.4321289,0,.8642578-.2958984,1.2734375-.909668,1.6826172-2.5917969,3.2509766-7.1391602,3.7514648-11.2084961-4.6381836.3183594-7.09375,4.2285156-7.09375,7.84375Z"/>
        <path class="cls-1" d="m99.0001232,146.7028201c.1523438-.5473633.121582-.7910156.3041992-.7910156.0302734,0,.0913086,0,.1523438.0307617.6079102.1821289,2.2197266.7905273,2.2197266,1.125,0,.121582-.0913086.2431641-.2734375.4257812-.4257812.3344727-.578125.6083984-.7299805.9428711-.699707,1.5205078-1.824707,3.1928711-3.1323242,4.9262695,0,0-.8515625-.9423828-1.9160156-1.5507812,1.703125-1.7333984,3.1323242-4.1967773,3.3754883-5.1088867Zm1.0039062-1.6420898v-10.3095703h8.3325195c0-.5473633-.0307617-1.3681641-.0307617-1.8549805-3.953125.0302734-7.8764648.0610352-11.4648438.1523438v-2.28125c3.5883789.1523438,7.480957.2436523,11.4042969.2436523-.0307617-.578125-.0610352-1.0039062-.0913086-1.1860352-.0913086-.3955078-.1826172-.6689453-.1826172-.7910156,0-.121582.0307617-.1518555.1826172-.1518555h.1518555c2.3720703.2431641,2.6459961.3344727,2.6459961.5776367,0,.121582-.0913086.3041992-.2128906.578125-.1523438.3037109-.2128906.6386719-.2431641.9731445,3.8618164-.0307617,7.7241211-.121582,11.2822266-.2436523v2.28125c-3.5581055-.1220703-7.4204102-.1523438-11.3129883-.1523438v1.8549805h8.5151367v10.3095703h-18.9760742Zm8.3325195-8.3935547h-6.234375v2.2202148h6.234375v-2.2202148Zm-6.234375,3.9838867v2.4936523h6.1733398c.0302734-.6689453.0302734-1.6118164.0610352-2.4936523h-6.234375Zm1.0644531,10.9780273c0-.6992188.0302734-1.5205078.0302734-2.2807617,0-.9121094-.0302734-1.7636719-.0913086-2.1894531-.0605469-.3647461-.1821289-.6083984-.1821289-.7602539,0-.0913086.0605469-.1518555.2128906-.1518555h.121582c1.7333984.1518555,2.6455078.2431641,2.6455078.5166016,0,.1523438-.121582.3344727-.2431641.578125-.1523438.3647461-.2431641.6689453-.2431641,2.4023438,0,.4863281.0302734,1.0341797.0302734,1.581543.0302734,1.0336914.0302734,1.2768555,4.1967773,1.2768555,1.0336914,0,2.0981445-.0605469,3.0410156-.121582,1.6118164-.121582,1.824707-.6689453,2.2807617-4.2270508,1.003418.8212891,2.0981445,1.2773438,2.0981445,1.2773438-.7602539,3.8623047-1.3681641,4.9570312-3.4970703,5.0786133-1.2470703.0610352-2.4936523.0913086-3.7407227.0913086-4.9873047,0-6.659668,0-6.659668-2.9501953v-.121582Zm7.9677734-1.0639648c-1.3081055-1.5209961-2.4941406-2.5546875-3.9838867-3.5888672l1.3989258-1.3681641c1.4594727.9121094,2.6455078,1.8549805,4.1660156,3.3452148l-1.5810547,1.6118164Zm5.7475586-13.8979492h-6.4169922v2.2202148h6.4169922v-2.2202148Zm0,3.9838867h-6.4169922c.0307617.8515625.0307617,1.7939453.0307617,2.4936523h6.3862305v-2.4936523Zm4.1357422,12.1640625c-1.2163086-2.25-2.6152344-4.1054688-4.3183594-5.8691406l1.7333984-1.246582c1.7944336,1.8852539,3.1323242,3.5576172,4.5009766,5.6259766l-1.9160156,1.4897461Z"/>
        <path class="cls-1" d="m145.0850842,149.0558475c-.8183594-.9321289-1.909668-1.7280273-3.0917969-2.409668-.8413086,2.7509766-2.387207,4.8422852-6.0024414,6.0927734-.4091797-.5454102-.9775391-1.1137695-1.5234375-1.4775391,3.6152344-.7958984,5.2294922-2.8876953,5.9570312-5.3886719-1.7280273-.7729492-3.5698242-1.2958984-5.2294922-1.5458984-.5454102,1.3642578-1.1137695,2.6831055-1.6367188,3.6376953-1.0229492,1.8642578-2.5463867,2.7963867-3.8652344,2.7963867-.1816406,0-2.6142578,0-2.6142578-3.3417969,0-3.7744141,3.8876953-4.7973633,6.5019531-4.7973633.1821289,0,.3637695.0229492.5458984.0229492.7958984-1.887207,1.5458984-3.8422852,2.137207-5.2749023-2.8422852.3183594-4.2973633.5683594-5.206543.909668-.1137695.0454102-.1816406.0678711-.2275391.0678711-.2270508,0-.5683594-1.8413086-.6137695-2.137207v-.0224609c0-.0454102.0229492-.0683594.0683594-.0683594.1137695,0,.3637695.0908203.6591797.0908203.1591797,0,.3183594.0229492.5458984.0229492,1.3867188,0,3.9785156-.2045898,5.3427734-.5458984.2729492-.0454102.3408203-.1816406.4545898-.1816406.25,0,1.6826172,1.2729492,1.6826172,1.3867188,0,.1367188-.2958984.2045898-.5229492.5004883-.8183594,1-1.7050781,3.1601562-2.6147461,5.4335938,1.5688477.2275391,3.2514648.7045898,4.956543,1.3642578.1362305-.9321289.1816406-1.887207.2045898-2.8422852v-.0454102c0-.2045898-.0908203-.3637695-.0908203-.4545898,0-.0683594.0224609-.0908203.1362305-.0908203h.0908203c.2275391.0224609,2.0688477.2275391,2.0688477.4091797,0,.0683594-.0454102.1362305-.0908203.2275391-.1362305.25-.1816406.5229492-.25.9091797-.1591797.9321289-.2729492,1.7734375-.4545898,2.6147461,1.2729492.5908203,2.4780273,1.3183594,3.6147461,2.137207l-.9321289,2.0004883Zm-11.890625-4.8652344c-2.2280273,0-4.4560547,1.0004883-4.4560547,3.137207,0,.3637695.0678711,1.6601562,1.0683594,1.6601562,1.2504883,0,2.2734375-1.5917969,3.6606445-4.7973633h-.2729492Z"/>
        <path class="cls-1" d="m153.8580334,152.9889529c-1.4780273-1.7729492-3.296875-3.5693359-4.9111328-5.0014648l1.1821289-1.0913086c1.7280273,1.3183594,3.7290039,3.137207,5.2749023,4.546875l-1.5458984,1.5458984Z"/>
        <path class="cls-1" d="m182.8155529,132.310242c0-.1420898,0-.1987305.1137695-.1987305.0566406,0,.0849609,0,.1416016.0283203,2.8696289.7954102,3.097168.9946289,3.097168,1.1933594,0,.1137695-.1137695.2553711-.3125.3691406-.3696289.2275391-.5117188.4262695-.7670898.9663086-3.3242188,7.4438477-6.9609375,13.3818359-14.6606445,18.6948242-.7670898-.5966797-1.7045898-1.2216797-2.4716797-1.7045898,10.4272461-5.597168,14.859375-17.2744141,14.859375-19.1210938v-.2275391Z"/>
        <path class="cls-1" d="m197.2520764,133.872742c2.8979492.3125,2.9262695.3125,2.9262695.5400391,0,.1137695-.0566406.2841797-.1704102.4829102-.1987305.3696289-.2270508.5683594-.2558594,1.0229492-.1987305,5.2275391.0571289,11.6489258-4.8867188,16.8481445-.8520508-.5395508-1.8183594-.9946289-2.7275391-1.3354492,4.3754883-3.0683594,5.1708984-8.8642578,5.1708984-13.2114258,0-1.3354492-.0849609-2.5571289-.1420898-3.4946289-.0283203-.3408203-.1420898-.5966797-.1420898-.7387695,0-.0849609.0288086-.1137695.1420898-.1137695h.0854492Zm5.9663086-.9091797c2.8413086.1137695,3.0683594.1420898,3.0683594.3696289,0,.1137695-.0566406.2553711-.1704102.4262695-.3125.5112305-.5112305.8520508-.5112305,9.972168,0,1.9892578.0283203,3.8359375.0283203,4.972168,2.8696289-1.6479492,7.3305664-5.4267578,10.0581055-8.6938477.4545898.5966797.9941406,1.2216797,1.5053711,1.7329102-2.9545898,3.2392578-6.8183594,6.7905273-10.7963867,9.5180664-.8237305.5966797-.9658203,1.1079102-1.25,1.1079102-.4262695,0-2.2163086-2.1020508-2.2163086-2.1020508,0-.1708984.2841797-.2558594.3125-.8242188.0288086-2.5854492.0854492-5.597168.0854492-8.3530273,0-2.9833984-.0566406-5.7109375-.2270508-7.4438477-.0288086-.1987305-.1420898-.4262695-.1420898-.5400391,0-.0849609.0566406-.1420898.1987305-.1420898h.0566406Z"/>
        <path class="cls-1" d="m241.7769787,141.2316287c-.8525391-.0566406-2.6992188-.0854492-5-.0854492-1.2783203,0-2.6708984,0-4.1201172.0288086-.1132812,5.9946289-1.875,10.3417969-7.1591797,13.3818359-.6259766-.5400391-1.6767578-1.3920898-2.4443359-1.8466797,5.6826172-2.2163086,7.1318359-6.6767578,7.1318359-10.796875v-.7099609c-4.4609375.0849609-8.949707.2270508-10.4555664.3691406l-.0283203-2.5c.8520508.0566406,2.7563477.0849609,5.0854492.0849609,5.9667969,0,14.8310547-.1704102,16.9619141-.3974609l.0283203,2.4716797Zm-4.5458984-6.0517578c-.8525391-.1137695-2.6708984-.1420898-4.7158203-.1420898-3.4101562,0-7.4726562.1137695-8.9501953.3125l-.0566406-2.4716797c.8242188.0849609,2.3867188.1137695,4.2050781.1137695,3.5234375,0,7.9550781-.1420898,9.4609375-.3413086l.0566406,2.5288086Zm3.3525391,2.4716797c-.6533203-.9375-1.5341797-1.9316406-2.3007812-2.7558594l1.25-.8808594c.7958984.7670898,1.7333984,1.7333984,2.4150391,2.6142578l-1.3642578,1.0224609Zm2.1591797-1.4204102c-.6816406-.9091797-1.4765625-1.9321289-2.3291016-2.6708984l1.25-.9091797c.7666016.7104492,1.7617188,1.6762695,2.4433594,2.5571289l-1.3642578,1.0229492Z"/>
        <path class="cls-1" d="m257.7760021,153.306824c.1992188-1.3354492.2841797-4.9155273.2841797-8.1826172,0-1.0795898,0-2.159668-.0283203-3.0688477-2.3300781,1.7050781-4.9433594,3.3525391-7.8701172,4.8583984-.3408203-.5112305-1.0517578-1.2783203-1.5058594-1.7329102,4.9716797-2.0170898,11.5634766-6.762207,14.2060547-10.2280273.3125-.3979492.3691406-.7958984.5683594-.7958984.0283203,0,.0849609.0283203.1416016.0571289,1.9609375,1.4770508,2.1591797,1.6762695,2.1591797,1.875,0,.1420898-.1132812.2270508-.3691406.3125-.5966797.1704102-.9658203.3408203-1.4208984.7670898-1.1933594,1.1367188-2.4716797,2.2446289-3.8349609,3.3242188-.0566406,1.1367188-.0859375,2.7841797-.0859375,4.5175781,0,3.2670898.0859375,6.847168.1992188,8.2109375l-2.4433594.0854492Z"/>
        <path class="cls-1" d="m279.3443615,143.1066287c-.4541016-1.7045898-1.4775391-4.0058594-2.3300781-5.3129883l1.9892578-.7387695c.8525391,1.3071289,1.9033203,3.4379883,2.5283203,5.0859375l-2.1875.9658203Zm12.9277344-5.5117188c.0849609-.4262695,0-.9091797.2265625-.9091797.0292969,0,.0859375,0,.1142578.0283203,2.5566406.9091797,2.6708984,1.1079102,2.6708984,1.2216797s-.1142578.2558594-.2558594.3696289c-.2558594.2270508-.4267578.4257812-.625.9941406-2.3867188,6.4780273-5.3984375,10.5693359-12.4443359,13.8369141-.4550781-.4262695-1.3642578-1.1933594-1.9609375-1.5629883,7.0458984-2.2158203,11.4785156-8.3813477,12.2744141-13.9785156Zm-7.4160156,4.2617188c-.2558594-1.7329102-1.0507812-4.0913086-1.7041016-5.3129883l1.9882812-.4829102c.7675781,1.25,1.5625,3.5229492,1.9892578,5.1992188l-2.2734375.5966797Z"/>
        <path class="cls-1" d="m303.383424,151.7438358c8.0976562-2.4150391,14.0078125-9.1201172,15.6552734-14.7739258-3.3808594.0849609-6.7050781.1704102-8.6376953.2841797-1.6757812,2.2158203-3.75,4.2900391-6.6191406,6.4492188-.5966797-.5112305-1.4775391-1.1933594-2.1025391-1.5908203,4.2050781-2.472168,8.0117188-6.847168,9.1484375-10.4555664.1699219-.5966797.0283203-.9663086.2841797-.9663086.0283203,0,.0849609,0,.1416016.0288086.7958984.2553711,1.9609375.625,2.6425781.8803711.2841797.0854492.4257812.1992188.4257812.3413086,0,.1132812-.1416016.2553711-.3974609.3691406-.3974609.1987305-.6533203.4545898-.9375.9658203-.3125.5683594-.6533203,1.1367188-.9941406,1.7050781,2.1308594-.0283203,5.3984375-.1137695,7.3583984-.2558594.625-.0566406.6816406-.3125.8525391-.3125.1699219,0,2.4150391,1.5625,2.4150391,1.9321289,0,.3125-.625.4829102-1.0517578,1.4204102-3.2099609,7.159668-7.3300781,12.1884766-16.0527344,15.9960938-.5390625-.625-1.4765625-1.4208984-2.1308594-2.0175781Z"/>
        <path class="cls-1" d="m348.2486584,152.5109256c-2.0449219-2.4150391-5.3125-5.3696289-8.2675781-7.6992188-2.5859375,2.9545898-5.7958984,5.7675781-9.8300781,8.324707-.5683594-.5400391-1.5917969-1.4208984-2.2167969-1.8754883,7.359375-3.5229492,12.984375-10.1713867,15.0585938-15.3706055-3.4375.0283203-9.2050781.2270508-11.5634766.5966797l-.0849609-2.7563477c.9941406.1137695,2.6982422.1708984,4.6025391.1708984,2.5,0,5.3691406-.0854492,7.5-.2558594.5400391-.0283203.5683594-.3125.7675781-.3125s2.4716797,1.5058594,2.4716797,1.7612305c0,.2558594-.5966797.4545898-.9941406,1.2216797-1.1367188,2.2734375-2.5859375,4.574707-4.3183594,6.7905273,3.0400391,2.1879883,6.5908203,5.0576172,8.9775391,7.4726562l-2.1025391,1.9316406Z"/>
        <path class="cls-1" d="m364.9010021,140.2086795c1.7333984.9663086,3.3808594,1.9887695,5.0576172,3.1821289,1.7617188-2.1875,3.0400391-4.5175781,3.6933594-6.5629883-2.1875.0566406-5.7958984.0849609-9.2910156.2270508-1.7041016,2.0458984-3.75,4.1484375-6.2216797,6.1655273-.625-.5683594-1.4492188-1.1933594-2.1591797-1.6196289,3.8349609-2.3012695,7.3867188-6.3071289,9.0058594-9.9155273.2841797-.5966797.0576172-1.0512695.3134766-1.0512695.0566406,0,.0849609,0,.1416016.0283203.4541016.1420898,2.9267578.8808594,2.9267578,1.1933594,0,.1137695-.1142578.2558594-.3701172.4262695-.3408203.2558594-.4257812.3691406-.8515625.9941406-.3417969.5117188-.6826172,1.0229492-1.0800781,1.5629883,2.6142578-.0283203,5.0576172-.0854492,7.8701172-.2275391.5966797-.0283203.625-.3125.8242188-.3125.2558594,0,2.5,1.7333984,2.5,1.9887695,0,.3125-.7099609.4833984-1.25,1.6479492-3.0966797,6.7338867-8.3535156,12.8422852-17.2744141,16.1665039-.5400391-.6821289-1.3359375-1.5341797-1.9609375-2.0742188,4.6318359-1.1362305,8.5527344-3.7216797,11.5068359-6.7905273-1.4482422-1.3066406-3.2099609-2.5854492-5.1142578-3.6933594l1.7333984-1.3354492Z"/>
        <path class="cls-1" d="m392.9469006,153.5621951c.2265625-1.6479492.3408203-6.1367188.3408203-10.1713867,0-1.2783203,0-2.5288086-.0283203-3.6083984-2.8701172,2.0742188-6.0234375,4.0629883-9.6601562,5.9667969-.3974609-.5683594-1.2216797-1.4492188-1.7617188-1.9887695,6.0234375-2.5288086,14.1494141-8.2963867,17.3310547-12.5014648.3408203-.4829102.3408203-.9091797.5400391-.9091797.2275391,0,2.7275391,1.9887695,2.7275391,2.2446289,0,.1704102-.1992188.3125-.5117188.3979492-.7099609.1987305-.9658203.3974609-1.5341797.9091797-1.4775391,1.3637695-3.0683594,2.7275391-4.7441406,4.0625-.0859375,1.0512695-.1142578,2.9833984-.1142578,5.1713867,0,3.9204102.1142578,8.6367188.2558594,10.3417969l-2.8408203.0849609Z"/>
        <path class="cls-1" d="m413.2066662,133.872742c2.8984375.3125,2.9267578.3125,2.9267578.5400391,0,.1137695-.0566406.2841797-.1699219.4829102-.1992188.3696289-.2275391.5683594-.2558594,1.0229492-.1992188,5.2275391.0566406,11.6489258-4.8867188,16.8481445-.8525391-.5395508-1.8183594-.9946289-2.7275391-1.3354492,4.375-3.0683594,5.1708984-8.8642578,5.1708984-13.2114258,0-1.3354492-.0859375-2.5571289-.1425781-3.4946289-.0283203-.3408203-.1416016-.5966797-.1416016-.7387695,0-.0849609.0283203-.1137695.1416016-.1137695h.0849609Zm5.9667969-.9091797c2.8408203.1137695,3.0683594.1420898,3.0683594.3696289,0,.1137695-.0566406.2553711-.1699219.4262695-.3125.5112305-.5117188.8520508-.5117188,9.972168,0,1.9892578.0283203,3.8359375.0283203,4.972168,2.8701172-1.6479492,7.3300781-5.4267578,10.0576172-8.6938477.4550781.5966797.9951172,1.2216797,1.5058594,1.7329102-2.9541016,3.2392578-6.8183594,6.7905273-10.7958984,9.5180664-.8242188.5966797-.9667969,1.1079102-1.25,1.1079102-.4267578,0-2.2167969-2.1020508-2.2167969-2.1020508,0-.1708984.2841797-.2558594.3125-.8242188.0283203-2.5854492.0859375-5.597168.0859375-8.3530273,0-2.9833984-.0576172-5.7109375-.2275391-7.4438477-.0283203-.1987305-.1425781-.4262695-.1425781-.5400391,0-.0849609.0566406-.1420898.1992188-.1420898h.0566406Z"/>
      </g>
      <g>
        <g>
          <path class="cls-1" d="m267.9669201,47.4064334c-.1328125-.4179688-.3964844-1.0117188-.5947266-1.4301758-1.4296875.7260742-3.0585938,1.3862305-4.5761719,1.8481445-.4619141.1323242-.5507812.2421875-.7480469.4179688-.1767578.1542969-.3085938.2202148-.3964844.2202148s-.2636719-.0219727-.7695312-1.7382812v-.0878906c0-.1977539.2412109-.1762695.3955078-.1977539.3300781-.0439453.5283203-.0664062,1.0341797-.1982422v-10.253418c-.2861328.2856445-.5722656.5942383-.8798828.8798828,0,0-.1757812-.9238281-.6826172-1.605957,1.9365234-1.5185547,3.5205078-4.0488281,3.9609375-5.3466797.1103516-.3081055.0878906-.5722656.3076172-.5722656h.0439453c.5068359.065918,1.0566406.1982422,1.5185547.3300781.1103516.0439453.1757812.1098633.1757812.2197266,0,.0664062-.0439453.1762695-.1533203.2641602-.1103516.0883789-.1982422.1982422-.2646484.2861328,1.1884766,1.3203125,2.4648438,2.4204102,4.1591797,3.4326172-.6162109.6157227-.9902344,1.4082031-.9902344,1.4082031-1.5185547-1.1665039-2.7724609-2.3105469-3.8730469-3.652832-.6816406,1.1220703-1.5615234,2.3984375-2.6621094,3.652832h2.1787109c0-.3740234,0-1.1665039-.0439453-1.5620117-.0449219-.2646484-.0888672-.418457-.0888672-.5283203,0-.0878906.0439453-.1318359.1767578-.1318359h.0654297c1.4746094.1318359,1.4960938.2856445,1.4960938.3740234,0,.1098633-.0654297.2416992-.1318359.3959961-.0654297.2197266-.0878906.3295898-.109375.659668v.7924805h2.5742188v6.9311523h-5.3251953v3.6743164c.8798828-.2641602,2.0244141-.6601562,2.9707031-1.144043-.3085938-.5942383-.5058594-.9462891-.9023438-1.4521484l1.2539062-.6162109c.7265625,1.1000977,1.5849609,2.6401367,2.2226562,3.9165039l-1.3417969.8139648Zm-.2861328-10.8251953h-3.9169922v1.4521484h3.9169922v-1.4521484Zm0,2.684082h-3.9169922v1.6723633h3.9169922v-1.6723633Zm12.5859375-7.1508789c-2.53125-.1103516-5.1494141-.1318359-6.6015625-.1318359h-1.1884766v3.234375h7.1298828c-.3740234,4.1142578-1.1005859,6.7768555-2.4423828,8.9331055.8798828,1.0561523,2.0244141,2.15625,3.3876953,2.9487305-.7255859.7255859-.9892578,1.5180664-.9892578,1.5180664-1.3867188-1.1000977-2.4863281-2.1782227-3.3447266-3.2788086-.96875,1.078125-2.1123047,2.1347656-3.71875,3.2788086,0,0-.3076172-.7485352-.9462891-1.4301758,1.6728516-.9462891,2.8164062-2.0024414,3.7402344-3.1245117-1.2099609-2.2666016-1.7822266-4.6645508-2.1123047-7.4150391h-.7041016c-.0214844,5.0825195-.2851562,8.559082-2.2216797,11.9697266,0,0-.484375-.8364258-1.2539062-1.3642578,1.8916016-2.9487305,1.9140625-6.8652344,1.9140625-11.265625v-5.4350586h1.6064453c1.9355469,0,5.2587891-.0219727,7.7451172-.1318359v1.6943359Zm-5.6552734,4.5327148c.2636719,2.3100586.6601562,4.1586914,1.6064453,6.1826172.8134766-1.5180664,1.4960938-3.5205078,1.7158203-6.1826172h-3.3222656Z"/>
          <path class="cls-1" d="m292.0567639,36.0089725c-.2197266-.5058594-.4404297-.8583984-.7041016-1.3422852-2.2666016.3300781-4.5322266.550293-6.6669922.7041016-.2421875.0219727-.4619141.1098633-.8583984.2421875-.2412109.0878906-.3955078.1977539-.4833984.1977539-.1328125,0-.1767578-.1318359-.5283203-1.6943359-.0224609-.065918-.0224609-.1098633-.0224609-.1538086,0-.065918.0439453-.0878906.1103516-.0878906s.1757812.0219727.3076172.0219727c.1542969,0,.3300781.0219727.5507812.0219727.1982422,0,.4394531-.0219727.7041016-.0219727.9902344-1.4521484,1.9140625-3.4545898,1.9804688-4.0488281.0439453-.3740234.0439453-.5058594.1757812-.5058594.0439453,0,.0878906,0,.1318359.0219727,1.1660156.2421875,1.7607422.3959961,1.7607422.6162109,0,.0878906-.0664062.1977539-.2207031.3081055-.3515625.2636719-.4833984.4619141-.5498047.59375-.3740234.8144531-.9238281,1.9584961-1.5625,2.9042969,1.1884766-.0439453,2.9267578-.1757812,4.4228516-.3955078-.3740234-.5942383-.8359375-1.1884766-1.2978516-1.7167969l1.1220703-.7695312c1.1220703,1.2539062,2.0898438,2.684082,2.9482422,4.2460938l-1.3203125.8583984Zm-1.5400391,8.1850586h-4.6650391c.0224609,1.6723633.0439453,3.3227539.1103516,4.4228516h-1.7607422c.1103516-2.1342773.1328125-6.8432617.1328125-9.7475586v-2.4423828h7.6787109v9.6376953c0,1.9580078-.7041016,2.4199219-2.9482422,2.4199219-.2861328,0-.5947266,0-.9248047-.0219727,0,0-.0214844-.7700195-.4179688-1.5839844.5947266.0439453,1.0566406.0878906,1.4306641.0878906,1.0996094,0,1.3642578-.2641602,1.3642578-1.012207v-1.7602539Zm0-6.402832h-4.6865234v1.8041992h4.6865234v-1.8041992Zm0,3.1025391h-4.6865234v2.0019531h4.6865234v-2.0019531Zm3.234375-5.3691406c0-.527832.0214844-1.3642578.0214844-2.2001953,0-1.4082031-.0214844-2.9042969-.109375-3.2783203-.0664062-.2641602-.1318359-.4399414-.1318359-.5498047,0-.0883789.0654297-.1323242.1972656-.1323242h.0439453c1.8046875.1538086,1.8486328.3081055,1.8486328.4179688,0,.0883789-.0654297.2421875-.1542969.3959961-.1972656.3964844-.1972656.9682617-.1972656,2.3984375,2.1123047-.4619141,3.6962891-1.1220703,4.4443359-1.7602539.1103516-.1098633.1542969-.2202148.2636719-.2202148.1542969,0,1.4960938.8803711,1.4960938,1.2104492,0,.0878906-.0654297.1538086-.2197266.1762695-.3955078.0214844-.6162109.1098633-.7041016.1538086-1.3857422.6821289-3.1679688,1.3422852-5.2802734,1.8701172,0,.5942383,0,1.0561523.0214844,1.4521484.0224609.7924805.2861328.9243164,2.3320312.9243164,2.3544922,0,2.640625-.1318359,3.0371094-2.9267578.7255859.5063477,1.4082031.8144531,1.4082031.8144531-.5722656,3.4765625-1.4082031,3.5864258-4.4453125,3.5864258-3.0576172,0-3.8720703-.3740234-3.8720703-2.222168v-.1103516Zm.1103516,10.1875c0-.527832.0214844-1.5620117.0214844-2.6401367,0-1.8041992-.0214844-3.8286133-.1103516-4.2026367-.0654297-.2641602-.1318359-.4399414-.1318359-.5498047,0-.0883789.0664062-.1323242.1982422-.1323242h.0439453c1.8486328.1538086,1.8925781.3081055,1.8925781.4179688,0,.0883789-.0664062.2421875-.1542969.3959961-.1542969.3081055-.1542969.5942383-.1757812.9243164-.0224609.3300781-.0224609,1.4301758-.0439453,2.15625,2.1777344-.550293,3.8945312-1.2983398,4.7080078-1.9584961.1103516-.0878906.1542969-.2416992.2646484-.2416992.0214844,0,.0654297.0219727.1318359.065918.4179688.2641602,1.3417969.9023438,1.3417969,1.1220703,0,.0878906-.0878906.1762695-.2412109.1982422-.3085938.0439453-.6162109.1318359-.7041016.1982422-1.3642578.7919922-3.2792969,1.5180664-5.4794922,2.1123047,0,.8139648,0,1.5839844.0224609,2.0019531.0214844.7919922.2636719.9243164,2.4423828.9243164,2.5517578,0,2.7285156-.0219727,3.1904297-3.3666992.7480469.6381836,1.4296875.8798828,1.4296875.8798828-.5712891,3.8066406-1.2099609,4.0268555-4.6425781,4.0268555-2.9257812,0-4.0039062-.2416992-4.0039062-2.2441406v-.0883789Z"/>
          <path class="cls-1" d="m305.9815685,41.3336795c.0224609-.3959961,0-.5063477.1318359-.5063477.0439453,0,.0878906.0224609.1318359.0224609,1.1445312.1977539,1.3203125.3076172,1.3203125.4399414,0,.065918-.0439453.1762695-.1318359.3520508-.1318359.2421875-.2197266.5058594-.2421875.7041016-.1757812,1.2539062-.6601562,3.5424805-1.1220703,4.9726562,0,0-.6162109-.3959961-1.3203125-.6162109.6601562-1.671875,1.2109375-4.6206055,1.2324219-5.3686523Zm2.0683594,7.2832031c.0878906-2.0683594.0878906-4.796875.0878906-6.887207v-2.090332c-.5058594.0439453-1.0117188.0883789-1.4736328.1098633-.2207031.0224609-.484375.0224609-.8583984.1982422-.2197266.0878906-.3525391.1757812-.4619141.1757812-.2646484,0-.5068359-1.0341797-.5722656-1.4296875v-.1323242c0-.0878906.0214844-.1098633.1103516-.1098633.0654297,0,.1533203.0219727.2851562.0219727.1982422,0,.3964844.0219727.6386719.0219727.6816406-.7041016,1.3857422-1.5839844,2.0244141-2.4423828-.8144531-1.144043-1.7822266-2.1782227-2.8603516-3.0361328l.9013672-.8144531c.2421875.1982422.4628906.3740234.6826172.5722656.8144531-1.1660156,1.3417969-2.3105469,1.4736328-2.9267578.0888672-.3959961.0664062-.5058594.1982422-.5058594.0224609,0,.0664062.0219727.1103516.0219727.484375.0878906,1.0341797.2202148,1.4521484.3520508.1318359.0439453.1982422.1098633.1982422.1982422,0,.0878906-.0664062.1977539-.2207031.3076172-.3515625.2641602-.4179688.4624023-.5058594.6381836-.3515625.6821289-1.078125,1.8041992-1.7597656,2.7944336.3740234.3959961.7480469.7919922,1.1220703,1.2543945.8359375-1.2324219,1.4521484-2.3105469,1.5625-2.7724609.0878906-.3520508.109375-.4399414.2197266-.4399414.0654297,0,1.7158203.3959961,1.7158203.7260742,0,.0878906-.0654297.1757812-.1972656.2856445-.3525391.2641602-.5283203.4624023-.6162109.6162109-1.0341797,1.628418-2.3984375,3.4326172-3.9384766,5.1489258,1.0117188-.0219727,2.1337891-.065918,3.2119141-.1538086-.3740234-1.0126953-.7480469-1.6503906-.7480469-1.6503906l1.1445312-.4404297s.9902344,1.8486328,1.6279297,3.8945312l-1.3417969.418457c-.0888672-.418457-.1982422-.7924805-.3085938-1.1665039-.484375.0664062-.9462891.1103516-1.3857422.1542969v2.0683594c0,2.090332,0,4.9067383.0878906,7.019043h-1.6064453Zm3.1240234-2.5307617c-.1533203-1.7382812-.4394531-3.3442383-.9892578-4.9501953l1.2314453-.3300781c.5507812,1.605957.9248047,3.300293,1.1660156,4.9946289l-1.4082031.2856445Zm6.2490234-8.8891602c-1.671875,0-3.2998047.0444336-5.0605469.0883789v-1.5844727c2.0019531.0878906,3.8730469.1323242,5.7871094.1323242.8144531,0,1.6503906,0,2.4863281-.0224609v-1.6503906c-1.3867188,0-4.3349609,0-6.8652344.0883789v-1.4741211c2.5302734.0878906,5.5009766.0878906,6.8652344.0878906v-1.5185547h-1.1445312c-1.7382812,0-4.9941406,0-6.4462891.0883789v-1.4741211c1.6279297.0878906,5.5888672.0878906,7.7011719.0878906h1.4082031v5.7207031c.7041016-.0219727,1.4296875-.0439453,2.1777344-.065918v1.5844727c-1.8925781-.0664062-3.6523438-.0883789-5.3466797-.0883789v1.012207c.2861328.7919922.6601562,1.7382812,1.1005859,2.5742188,1.0117188-.9677734,1.6054688-1.8701172,1.9355469-2.7939453.0439453-.1103516.0878906-.2641602.1982422-.2641602,0,0,.0224609.0219727.0439453.0219727.8359375.3740234,1.5625.8579102,1.5625,1.012207,0,.065918-.0664062.1318359-.2197266.1977539-.2421875.1103516-.4628906.3300781-.5507812.4404297-.6376953.8139648-1.3642578,1.7382812-2.265625,2.5522461.9677734,1.4741211,2.3320312,2.8603516,3.7617188,3.6523438-.7041016.7924805-.9238281,1.6503906-.9238281,1.6503906-2.1777344-1.7822266-3.828125-4.0488281-4.6425781-6.2270508v4.8188477c0,2.2661133-.9238281,2.7504883-2.8164062,2.7504883-.3515625,0-.7255859-.0224609-1.1445312-.0439453,0,0-.109375-.9682617-.5273438-1.8266602.6376953.065918,1.1435547.1098633,1.5400391.1098633,1.1220703,0,1.3857422-.3076172,1.3857422-1.2758789v-8.3613281Zm-.2421875,5.6987305c-.7480469.9023438-1.8476562,1.9584961-2.3974609,2.4423828-.1982422.1762695-.484375.4404297-.6162109.7041016-.1318359.2861328-.2421875.4404297-.3740234.4404297-.1103516,0-.1982422,0-1.0341797-1.5185547-.0439453-.0878906-.0664062-.1538086-.0664062-.1977539,0-.1098633.1103516-.1542969.3085938-.2421875.9892578-.4619141,2.2441406-1.605957,3.5859375-3.0805664l.59375,1.4521484Zm-2.0019531-1.3857422c-.6601562-1.078125-1.3857422-2.0908203-2.2001953-2.9487305l1.1005859-.7700195c.7695312.7919922,1.5839844,1.7822266,2.265625,2.7724609l-1.1660156.9462891Z"/>
          <path class="cls-1" d="m334.3624279,45.6461795c0-.2856445.0224609-.7700195.0224609-1.1660156h-5.2373047c.0224609.6162109.0224609,1.2983398.0439453,1.6723633h-1.6503906c.0888672-1.9804688.0888672-9.0874023.0888672-12.9819336v-2.5961914h8.2949219v2.4863281c0,3.6962891,0,10.4951172.0878906,12.5854492h-1.6503906Zm-3.3222656-13.6420898h-1.9365234v4.3569336h1.9365234v-4.3569336Zm0,5.7871094h-1.9365234c0,1.6723633,0,3.7402344.0224609,5.2587891h1.9140625v-5.2587891Zm3.4101562-5.7871094h-2.0244141v4.3569336h2.0244141v-4.3569336Zm-.0439453,11.0458984c.0224609-1.4960938.0439453-3.5644531.0439453-5.2587891h-2.0244141v5.2587891h1.9804688Zm6.6669922-11.0234375c-1.7382812,0-3.234375.0439453-4.6640625.1098633v-1.7602539c1.6494141.065918,3.5205078.1098633,5.3681641.1098633,1.6279297,0,3.2568359-.0219727,4.7744141-.1098633v1.7602539c-1.2099609-.065918-2.5078125-.0883789-3.8505859-.1098633v13.8398438c0,2.3544922-1.0117188,2.7285156-3.4980469,2.7285156-.3740234,0-.7705078,0-1.1884766-.0224609,0,0-.109375-.8579102-.5273438-1.7158203.7695312.065918,1.3857422.0878906,1.8476562.0878906,1.6943359,0,1.7382812-.3740234,1.7382812-1.2539062v-13.6640625Z"/>
          <path class="cls-1" d="m354.5577404,46.966492v-1.0341797c0-3.0141602,2.0683594-5.4790039,5.0820312-6.7548828,2.4208984-.9902344,3.6533203-2.3544922,3.6533203-3.7407227,0-1.671875-1.2548828-2.75-3.2783203-2.75-1.8046875,0-3.3886719,1.4296875-3.4765625,3.6083984h-1.8271484c.1103516-3.4106445,2.4873047-5.3251953,5.3691406-5.3251953,3.3222656,0,5.1484375,1.8925781,5.1484375,4.4448242,0,2.2006836-1.4960938,3.8725586-4.6865234,5.3027344-2.265625.9682617-3.8066406,2.640625-3.9824219,4.5107422h8.8671875v1.7382812h-10.8691406Z"/>
          <path class="cls-1" d="m384.2803967,43.1159061c-1.7597656-.0878906-3.6738281-.1098633-5.5449219-.1098633-1.8916016,0-3.7177734.0219727-5.3466797.1098633v-1.5844727c.7265625.0444336,1.3867188.0883789,2.1787109.1103516.0214844-1.7822266.0214844-4.0488281.0214844-6.1171875v-2.3979492c-.6152344,0-1.2314453.0219727-1.8476562.065918v-1.5839844c.59375.0439453,1.2099609.0654297,1.8261719.1098633-.0224609-.8803711-.0664062-1.496582-.0878906-1.6943359-.0664062-.2641602-.1318359-.4624023-.1318359-.550293s.0439453-.1318359.1757812-.1318359h.0439453c1.7822266.1542969,1.8925781.2641602,1.8925781.3959961,0,.1098633-.0888672.2421875-.1767578.4179688-.1533203.2861328-.1533203.6601562-.1533203,1.012207,0,.1318359,0,.3300781-.0224609.5942383.5722656,0,1.2099609.0219727,1.8486328.0219727.6162109,0,1.2539062-.0219727,1.8261719-.0219727-.0224609-.9023438-.0439453-1.5405273-.0664062-1.7382812-.0654297-.2641602-.1318359-.4624023-.1318359-.550293s.0439453-.1318359.1757812-.1318359h.0439453c1.7822266.1542969,1.8925781.2641602,1.8925781.3959961,0,.1098633-.0878906.2421875-.1757812.4179688-.1542969.2861328-.1542969.6601562-.1542969,1.012207v.5283203c.6376953-.0224609,1.1660156-.0439453,1.8046875-.0878906v1.5839844c-.6386719-.0219727-1.1884766-.0439453-1.8261719-.065918-.0224609,1.2758789-.0224609,2.9921875-.0224609,4.7524414,0,1.2763672,0,2.5966797.0224609,3.7626953.7041016-.0219727,1.2753906-.065918,1.9355469-.1103516v1.5844727Zm-7.8984375.7480469c.0878906-.3740234.0878906-.550293.2412109-.550293.0664062,0,1.7607422.484375,1.7607422.8144531,0,.0878906-.0664062.1982422-.2197266.2861328-.3525391.2421875-.5283203.4838867-.6386719.6821289-.6162109,1.0336914-1.4960938,2.2661133-2.8164062,3.4106445,0,0-.4394531-.6826172-1.1660156-1.2324219,1.6064453-1.1000977,2.640625-2.6625977,2.8388672-3.4106445Zm.7255859-10.7817383c0,.5283203-.0214844,1.1445312-.0214844,1.8046875h3.7402344c0-.6381836-.0224609-1.2324219-.0224609-1.8046875h-3.6962891Zm3.71875,3.1464844h-3.7402344v1.9145508h3.7402344v-1.9145508Zm-3.7402344,3.2568359c0,.7480469,0,1.4960938.0214844,2.2001953.5722656,0,1.2099609.0219727,1.8486328.0219727.6376953,0,1.2763672-.0219727,1.8476562-.0219727,0-.6821289.0224609-1.4301758.0224609-2.2001953h-3.7402344Zm3.5205078,3.8725586c.6376953.9897461,1.3642578,1.9140625,2.3535156,2.7944336-.7041016.4838867-1.1660156,1.0561523-1.1660156,1.0561523-.9462891-1.0561523-1.671875-2.090332-2.3759766-3.190918l1.1884766-.659668Zm9.7246094-2.4423828h-3.7841797c-.3515625,3.8061523-1.2978516,5.6547852-3.1025391,7.7011719,0,0-.3740234-.8583984-1.0996094-1.4301758,1.9355469-1.8261719,2.6835938-4.0927734,2.6835938-7.7890625v-9.1972656h6.8876953v15.7978516c0,1.8701172-.5947266,2.5087891-2.8164062,2.5087891-.3300781,0-.6826172-.0224609-1.1005859-.0444336,0,0-.0664062-.8579102-.5283203-1.628418.6601562.0444336,1.1660156.0883789,1.5625.0883789,1.078125,0,1.2978516-.2421875,1.2978516-1.0341797v-4.9726562Zm0-9.3295898h-3.7402344v3.1464844h3.7402344v-3.1464844Zm0,4.4887695h-3.7402344v3.4985352h3.7402344v-3.4985352Z"/>
          <path class="cls-1" d="m395.1466076,47.8683475l19.2529297-19.2744141.9023438.9023438-19.2529297,19.2744141-.9023438-.9023438Z"/>
        </g>
        <g>
          <path class="cls-1" d="m264.2042248,72.3165897c.0361328-1.512207.0546875-4.3930664.0546875-6.3735352-.6484375,1.7641602-1.6386719,3.3852539-2.9355469,4.8071289,0,0-.2695312-.6660156-.7558594-1.1162109,1.2421875-1.2421875,2.1425781-2.5385742,2.8808594-4.1772461-.7021484.0180664-1.8369141.0361328-2.6289062.0722656v-1.206543c1.1523438.0361328,2.4667969.0722656,3.4394531.0722656.0175781-.6123047.0175781-1.1704102.0175781-1.5126953h-1.8359375c-.6308594,0-1.2783203,0-1.890625.0180664v-1.2783203c.8457031.0541992,1.7285156.0717773,2.5742188.0898438-.2519531-.7021484-.5761719-1.3681641-1.0078125-1.9985352l1.1162109-.3061523c.4677734.7382812.8105469,1.4584961,1.1523438,2.3227539h1.0986328c.3955078-.6484375.7558594-1.4765625.828125-1.9267578.0361328-.3417969.0361328-.4316406.1435547-.4316406.0185547,0,.0537109.0175781.0898438.0175781.3603516.0541992,1.3330078.2163086,1.3330078.4140625,0,.0722656-.0546875.1445312-.1445312.234375l-.1982422.1982422c-.0537109.0717773-.0898438.1259766-.1259766.1977539-.1074219.2700195-.3417969.7924805-.6298828,1.2783203.828125-.0180664,1.6386719-.0541992,2.484375-.0898438v1.2783203c-.5576172-.0180664-1.1162109-.0361328-1.65625-.0361328-.7197266,0-1.421875.0180664-2.1064453.0180664v1.5302734c1.0800781-.0175781,2.3046875-.0356445,3.5830078-.0898438v1.206543c-.9003906-.0361328-1.9990234-.0722656-2.7910156-.0722656.8466797,1.2788086,1.5849609,2.1430664,2.6113281,2.953125-.5224609.4321289-.7744141,1.0083008-.7744141,1.0083008-1.0625-1.0263672-1.8544922-2.1606445-2.6113281-3.5292969.0185547,2.034668.0546875,4.8613281.1083984,6.4277344h-1.4228516Zm4.7001953-12.9995117c-1.2431641-.0717773-2.6113281-.090332-3.9794922-.090332-1.3505859,0-2.6826172.0185547-3.8349609.090332v-1.2783203c.9003906.0717773,2.25.1079102,3.2226562.1259766,0-.3959961-.0175781-.7382812-.0722656-1.0263672-.0537109-.2338867-.1074219-.3959961-.1074219-.4858398,0-.0541992.0175781-.090332.1259766-.090332h.0722656c1.5478516.1259766,1.5839844.1977539,1.5839844.3242188,0,.0898438-.0722656.1977539-.1259766.3422852-.0898438.2519531-.1445312.4140625-.1445312.9360352,1.0810547,0,2.1972656-.0541992,3.2597656-.1259766v1.2783203Zm4.609375,12.9995117c.0898438-2.4306641.1074219-5.9775391.1074219-8.15625v-1.4580078h-2.5380859c-.0361328,4.7529297-.4863281,6.7519531-2.3046875,9.5424805,0,0-.4326172-.6303711-.9902344-1.0620117,1.6201172-2.1967773,2.0517578-4.1777344,2.0517578-7.7607422v-5.7075195c2.5576172-.2519531,4.7001953-.8642578,4.9697266-1.0620117.0722656-.0541992.1259766-.090332.1982422-.090332.0361328,0,.0722656.0180664.1259766.0361328.3056641.1616211.7382812.4140625,1.1162109.6660156.1083984.0541992.1445312.144043.1445312.2163086,0,.0898438-.0722656.1621094-.2167969.1621094h-.0175781c-.1083984,0-.1982422-.0185547-.2705078-.0185547-.1074219,0-.1796875.0185547-.2880859.0541992-1.2421875.4321289-2.9882812.8286133-4.5185547,1.0444336v2.8271484c1.3496094,0,4.0507812,0,5.6708984-.0722656v1.2963867c-.5761719-.0180664-1.1523438-.0361328-1.9082031-.0541992v1.4584961c0,2.1606445.0175781,5.671875.1083984,8.1381836h-1.4404297Z"/>
          <path class="cls-1" d="m283.4835217,60.4513553c-.1806641-.6660156-.3964844-1.1342773-.7207031-1.6025391h-1.2607422c-.5400391.5942383-1.2236328,1.2783203-2.0341797,1.8007812,0,0-.3242188-.5761719-.9179688-.918457,1.5839844-.9360352,2.5019531-2.1967773,2.6640625-2.7548828.0908203-.3061523.0361328-.4321289.1806641-.4321289h.0537109c1.3144531.1982422,1.4228516.3061523,1.4228516.4321289,0,.0717773-.0546875.144043-.1621094.2338867-.3066406.2524414-.5048828.5947266-.5048828.5947266h.9365234c1.1347656,0,2.5205078-.0185547,3.5654297-.0722656v1.1884766c-.828125-.0361328-1.8183594-.0541992-2.71875-.0541992.2158203.3598633.4316406.7563477.6298828,1.2241211l-1.1337891.3603516Zm10.8203125,7.2382812c-1.8896484-.0541992-3.8886719-.0722656-5.796875-.0898438,1.4404297,1.1879883,3.5830078,2.0883789,6.2470703,2.5205078-.6474609.6298828-.8818359,1.3144531-.8818359,1.3144531-2.7724609-.7382812-4.9150391-1.7827148-6.6796875-3.6733398,0,1.0805664,0,2.7548828.0898438,4.5551758h-1.4941406c.0537109-1.1879883.0898438-2.7001953.0898438-3.9790039v-.5581055c-1.6572266,1.890625-3.8349609,2.9707031-6.4824219,3.6728516,0,0-.2695312-.6835938-.8095703-1.2421875,2.2685547-.4321289,4.4824219-1.3505859,6.0136719-2.6103516-1.8369141.0175781-3.8359375.0537109-5.6181641.0898438v-1.3144531c2.2685547.0722656,4.5556641.1079102,6.8603516.1259766,0-.5942383-.0898438-.6298828-.1259766-.7919922l-.2519531.1796875s-.2519531-.6298828-.7382812-1.0981445c1.5478516-.6665039,1.7099609-1.7646484,1.7099609-3.0791016,0-.2700195-.0175781-.5400391-.0175781-.828125h5.5996094v3.0249023c0,.3061523.1083984.5224609.6660156.5224609.6845703,0,.8105469-.1982422.9726562-1.9990234.5400391.3964844,1.0976562.5761719,1.0976562.5761719-.359375,2.3769531-.828125,2.5209961-2.1787109,2.5209961-.8095703,0-1.7636719-.0722656-1.7636719-1.3144531v-2.2504883h-3.2236328v.0898438c0,1.9804688-.5761719,2.8085938-1.5302734,3.4208984,1.3505859.1259766,1.4404297.1259766,1.4404297.2700195,0,.0722656-.0722656.1982422-.1435547.3422852-.0722656.144043-.1083984.2158203-.1445312.4140625,2.3583984-.0180664,4.7353516-.0537109,7.09375-.1259766v1.3144531Zm-8.7685547-3.5112305c-1.65625.4321289-4.1591797.8642578-4.9873047.9902344-.1982422.0361328-.4316406.144043-.6123047.2880859-.1435547.1264648-.2519531.1982422-.3417969.1982422-.2158203,0-.5761719-1.3505859-.5761719-1.4946289,0-.1079102.0898438-.1079102.3417969-.1079102.4501953,0,1.4589844-.090332,2.4667969-.2338867v-1.8188477c-.7197266.0180664-1.4765625.0361328-2.1962891.0722656v-1.2788086c.9726562.090332,1.9267578.1264648,2.8808594.1264648.9726562,0,1.9267578-.0361328,2.8808594-.1264648v1.2788086c-.7919922-.0541992-1.5302734-.0722656-2.3408203-.0722656v1.6386719c.9003906-.144043,1.6748047-.3422852,2.484375-.5581055v1.0981445Zm8.6787109-5.2573242c-.9902344-.0541992-2.25-.0722656-3.3671875-.0722656.234375.3603516.4501953.7744141.6484375,1.2421875l-1.1523438.3603516c-.1796875-.6660156-.3955078-1.1342773-.7021484-1.6025391h-1.2246094c-.4140625.5400391-.9179688,1.1342773-1.5117188,1.6386719,0,0-.4140625-.5224609-.9902344-.8642578,1.1162109-.6660156,1.890625-1.9628906,2.0703125-2.6469727.0722656-.3061523.0361328-.4321289.1796875-.4321289h.0546875c.359375.0541992.8457031.144043,1.2060547.234375.1259766.0175781.1796875.0898438.1796875.1796875,0,.0722656-.0537109.1621094-.1621094.2519531-.2695312.2163086-.4853516.5947266-.4853516.5947266h1.0800781c1.2958984,0,2.953125-.0185547,4.1767578-.0722656v1.1884766Zm-4.4833984,6.2119141c-.6298828-.6303711-1.3681641-1.1708984-2.0527344-1.5849609l.7382812-.7558594c.7021484.3779297,1.4404297.8642578,2.1425781,1.4223633l-.828125.918457Z"/>
          <path class="cls-1" d="m301.176881,57.3546756c1.5664062.3056641,1.5664062.4677734,1.5664062.5576172,0,.090332-.0722656.1982422-.1796875.2880859-.2705078.234375-.3964844.5224609-.4326172.6123047-1.1699219,2.5751953-2.7548828,4.3393555-4.8076172,6.2661133,0,0-.2158203-.7744141-.7734375-1.3686523,2.2138672-1.4765625,4.1591797-4.5551758,4.4287109-5.7617188.0898438-.3779297,0-.59375.1621094-.59375h.0361328Zm8.1923828,6.1757812c-.1796875,2.6103516-.4677734,5.2216797-.7744141,6.8417969-.2880859,1.4765625-.8818359,1.9267578-2.7724609,1.9267578-.4326172,0-.9179688-.0180664-1.4765625-.0541992,0,0-.0722656-.7382812-.4863281-1.4946289.8105469.0722656,1.4042969.1259766,1.8544922.1259766,1.1884766,0,1.3867188-.2880859,1.5488281-1.0620117.2158203-1.0083008.4863281-3.6191406.59375-5.0415039,0,0-1.8544922,0-4.0507812.0180664-.9003906,3.7993164-2.2871094,5.7436523-6.5,7.5258789,0,0-.1621094-.737793-.7558594-1.421875,3.6728516-1.0625,5.2753906-3.1513672,5.8691406-6.1040039-.9902344.0180664-2.1064453.0356445-3.0244141.0541992v-1.3867188c2.2685547.0722656,5.4013672.0722656,7.5439453.0722656h2.4306641Zm-2.1240234-6.2299805c.9902344,2.1967773,2.7724609,4.7895508,5.5087891,5.9418945-.4853516.6123047-.6835938,1.4765625-.6835938,1.4765625-3.1152344-1.8188477-4.6279297-3.9975586-6.0498047-7.0585938l1.2246094-.3598633Z"/>
          <path class="cls-1" d="m320.5089123,60.5773319c-1.0078125-.0537109-2.0166016-.0898438-3.0068359-.0898438-.9716797,0-1.9619141.0361328-2.9521484.0898438v-1.2421875c1.0263672.0717773,1.9980469.1259766,2.9707031.1259766.9902344,0,1.9628906-.0541992,2.9882812-.1259766v1.2421875Zm-.4316406,2.0708008c-.9003906-.0541992-1.6923828-.090332-2.4667969-.090332s-1.5302734.0361328-2.3769531.090332v-1.206543c.8466797.0722656,1.6025391.1259766,2.3769531.1259766s1.5664062-.0537109,2.4667969-.1259766v1.206543Zm0,2.2324219c-.9003906-.0541992-1.6923828-.0898438-2.4667969-.0898438s-1.5302734.0356445-2.3769531.0898438v-1.206543c.8466797.0722656,1.6025391.1264648,2.3769531.1264648s1.5664062-.0541992,2.4667969-.1264648v1.206543Zm-.1445312-6.4277344c-.828125-.0541992-1.5839844-.090332-2.3398438-.090332-.7382812,0-1.4589844.0361328-2.2333984.090332v-1.206543c.7568359.0722656,1.4951172.1259766,2.2333984.1259766.7558594,0,1.5302734-.0537109,2.3398438-.1259766v1.206543Zm-1.2958984,13.4321289c.0175781-.2519531.0175781-.5400391.0175781-.8466797h-2.0166016c.0185547.4140625.0185547.8105469.0361328,1.1708984h-1.3144531c.0546875-1.3867188.0546875-3.6015625.0546875-4.9335938v-1.0986328h4.4833984v1.1347656c0,1.3500977,0,3.546875.0537109,4.5732422h-1.3144531Zm.0537109-4.6274414h-2.0703125v2.7006836h2.0527344c.0175781-.684082.0175781-1.3681641.0175781-1.8725586v-.828125Zm9.7773438,2.5927734c.6123047.5761719,1.3867188,1.0258789,2.2685547,1.3139648-.4140625.5585938-.6660156,1.1523438-.6660156,1.1523438-2.3408203-1.0800781-3.6728516-2.7543945-4.5019531-5.347168h-.6113281c-.2705078.3237305-.5761719.6303711-.8828125.918457v2.4306641c.5761719-.1445312,1.3320312-.3066406,1.9628906-.5585938v1.1523438c-1.2783203.378418-2.5205078.7021484-3.4755859.9003906-.2333984.0541992-.4853516.1259766-.6660156.2880859-.1435547.1259766-.2519531.1982422-.3242188.1982422-.2695312,0-.6123047-1.4765625-.6123047-1.4765625,0-.0898438.0361328-.1079102.1806641-.1079102h.2880859c.3955078,0,.8818359-.0541992,1.4404297-.1621094v-1.7827148c-.6660156.4140625-1.4042969.7563477-2.2324219,1.0444336,0,0-.2705078-.6303711-.6669922-1.0805664,1.53125-.3417969,2.7548828-.972168,3.5830078-1.7460938-.9902344,0-2.0517578.0361328-3.0068359.0717773v-1.1162109c.8828125.0541992,1.8369141.0717773,2.7734375.1079102,0-.3242188.0175781-.8100586.0175781-1.1704102-.6835938.0180664-1.3867188.0361328-2.0527344.0722656v-1.0981445c.6660156.0356445,1.3867188.0717773,2.0712891.0898438v-.9365234c-.8105469.0180664-1.6572266.0541992-2.4492188.0722656v-1.1162109c.7744141.0356445,1.6201172.0717773,2.4306641.0898438-.0175781-.3061523-.0361328-.5400391-.0722656-.6660156-.0537109-.2163086-.0898438-.3603516-.0898438-.4501953,0-.0722656.0361328-.1083984.1259766-.1083984h.0546875c1.2958984.1083984,1.3320312.234375,1.3320312.3422852,0,.0717773-.0361328.1801758-.1083984.3242188-.0898438.1801758-.1259766.3779297-.1435547.5942383h2.3583984c0-.3603516-.0361328-.6303711-.0722656-.7744141-.0537109-.234375-.1074219-.3959961-.1074219-.4682617,0-.0717773.0175781-.0898438.1074219-.0898438h.0908203c1.2958984.1801758,1.3320312.2700195,1.3320312.3779297,0,.0722656-.0361328.1801758-.1083984.3242188-.0898438.1977539-.1259766.3959961-.1435547.6123047.8105469-.0361328,1.7285156-.0541992,2.5390625-.1079102v1.1162109c-.8105469-.0361328-1.7285156-.0541992-2.5390625-.0722656v.9365234c.6835938-.0180664,1.4580078-.0361328,2.1425781-.0898438v1.1337891c-.6845703-.0175781-1.4589844-.0537109-2.1425781-.0717773v1.1342773c.9179688-.0180664,1.9628906-.0537109,2.8623047-.1079102v1.1162109c-1.3320312-.0541992-2.6826172-.0717773-4.0146484-.0898438.2519531.7021484.5400391,1.3325195.9003906,1.8725586.6660156-.5043945,1.1884766-1.0263672,1.3144531-1.3686523.0361328-.0898438.0712891-.2158203.1621094-.2158203.0537109,0,.5039062.1977539,1.0800781.5942383.0537109.0537109.0722656.0898438.0722656.1435547,0,.090332-.0722656.1621094-.1982422.2163086-.234375.090332-.3964844.1982422-.5585938.3598633-.2880859.2880859-.6835938.6484375-1.2421875,1.0805664l.1982422.1982422Zm-7.9042969-9.5791016c1.5839844-.1977539,2.6826172-.6303711,3.1142578-1.0444336.0908203-.0717773.1445312-.1435547.234375-.1435547.0361328,0,.0898438.0175781.1445312.0356445,1.0615234.5043945,1.1337891.5405273,1.1337891.6484375,0,.0898438-.1074219.1801758-.2333984.1977539-.3242188.0541992-.46875.1259766-.6669922.234375-.7382812.3959961-1.6025391.7021484-3.1328125,1.1162109,0,0-.1982422-.5039062-.59375-1.0444336Zm10.0830078-1.206543c-1.7832031-.0717773-3.3847656-.0898438-4.9697266-.0898438-1.5839844,0-3.1328125.0180664-4.8076172.0898438v-1.1699219c1.4042969.0537109,2.7548828.1079102,4.1416016.1079102-.0185547-.3061523-.0361328-.5581055-.0898438-.8642578-.0546875-.2338867-.1083984-.3959961-.1083984-.4858398,0-.0541992.0175781-.090332.1259766-.090332h.0722656c1.3867188.1079102,1.4404297.2163086,1.4404297.3422852,0,.0717773-.0537109.1977539-.1259766.3242188-.1259766.2158203-.1259766.4316406-.1259766.7739258,1.421875,0,2.8984375-.0361328,4.4472656-.1079102v1.1699219Zm-3.8349609,3.9257812h-2.3769531v.9902344h2.3769531v-.9902344Zm-.0185547,1.8720703h-2.3583984v1.206543h2.3583984v-1.206543Zm.2519531-5.7617188c1.0810547.5761719,2.1425781.9365234,3.546875,1.2783203-.4316406.5761719-.6660156,1.0444336-.6660156,1.0444336-1.3144531-.4321289-2.5380859-.9541016-3.7988281-1.65625l.9179688-.6665039Z"/>
          <path class="cls-1" d="m334.8546154,72.3165897c.0712891-2.9526367.1259766-5.5634766.1259766-7.4902344,0-.7021484,0-1.3139648-.0185547-1.8183594-.5400391.8823242-1.1162109,1.7285156-1.7460938,2.4848633,0,0-.2158203-.8461914-.6660156-1.4946289,1.6738281-1.9985352,3.0068359-4.4833984,3.6542969-6.8417969.0908203-.3061523,0-.5942383.1621094-.5942383h.0361328c1.5302734.3242188,1.5488281.5043945,1.5488281.5581055,0,.0898438-.0898438.1982422-.1796875.2880859-.1806641.1621094-.3242188.3964844-.3964844.6123047-.3066406.828125-.7558594,1.9082031-1.3320312,3.0249023.5214844.0717773.59375.1079102.59375.2163086,0,.0898438-.0722656.2158203-.1621094.3598633-.1259766.1977539-.1796875.8461914-.1796875,3.546875,0,1.6928711.0361328,4.0874023.1259766,7.1479492h-1.5664062Zm13.8994141-.59375c-1.9619141-.0541992-3.9970703-.0722656-5.9775391-.0722656s-3.9248047.0180664-5.7431641.0722656v-1.4228516c1.5839844.0722656,3.2763672.090332,5.0234375.1083984v-4.4111328c-1.3691406,0-2.7011719.0356445-3.9257812.0898438v-1.3867188c1.2070312.0722656,2.5566406.1259766,3.9257812.1259766v-3.5644531c-1.5488281,0-3.0791016.0356445-4.609375.0717773v-1.3862305c1.7998047.0717773,3.5644531.1079102,5.3652344.1079102s3.6367188-.0361328,5.5820312-.1079102v1.3862305c-1.6923828-.0541992-3.3310547-.0717773-4.9335938-.0717773v3.5644531c1.4042969,0,2.8447266-.0537109,4.1591797-.1259766v1.3867188c-1.3330078-.0541992-2.7548828-.0898438-4.1591797-.0898438v4.4111328c1.7646484-.0180664,3.5644531-.0541992,5.2929688-.1083984v1.4228516Zm-4.8427734-11.8295898c-1.4404297-.9545898-3.0429688-1.7646484-4.3759766-2.2866211l.7568359-1.0444336c1.3681641.5581055,2.8808594,1.2963867,4.4648438,2.2143555l-.8457031,1.1166992Z"/>
          <path class="cls-1" d="m366.4122326,65.6369022c-2.6464844.3061523-5.3291016.5942383-7.9941406.8823242v2.862793c0,.8461914.59375.8823242,3.0966797.8823242.8105469,0,1.5849609-.0361328,2.0351562-.0717773.9179688-.090332,1.2783203-.1621094,1.65625-3.1689453.6298828.5039062,1.3320312.7919922,1.3320312.7919922-.5400391,2.71875-1.0800781,3.6367188-2.4667969,3.7270508-.7919922.0541992-1.6738281.090332-2.5742188.090332-.8828125,0-1.7832031-.0361328-2.5751953-.090332-1.3867188-.090332-1.890625-.972168-1.9082031-2.0527344v-2.8266602c-2.1064453.2338867-4.1953125.4501953-6.2480469.7021484l-.1445312-1.3867188c2.0888672-.1435547,4.25-.3237305,6.3925781-.5400391v-2.4482422c-1.4404297.2519531-2.9707031.449707-4.5195312.59375,0,0-.0722656-.7202148-.4326172-1.3144531,4.0878906-.1259766,8.3007812-1.0263672,9.7236328-1.7822266.0898438-.0541992.1621094-.1259766.2519531-.1259766.1259766,0,1.4404297.8642578,1.4404297,1.0439453,0,.1083984-.0898438.1982422-.234375.1982422h-.0175781c-.1806641-.0180664-.2705078-.0361328-.3427734-.0361328-.0898438,0-.1435547.0180664-.2880859.0722656-1.2421875.4140625-2.6640625.7744141-4.1767578,1.0800781v2.5751953c2.6650391-.3066406,5.3115234-.6665039,7.8505859-1.0449219l.1435547,1.3867188Zm-1.8720703-3.9794922c.0712891-.737793.0712891-1.421875.0712891-1.7460938v-.2163086h-11.9013672v.1982422c0,.3237305,0,.9902344.0722656,1.7641602h-1.5664062c.0722656-.6660156.0722656-1.6923828.0722656-2.4121094v-.8105469h6.5175781v-.3242188c0-.3598633-.0175781-.7021484-.0722656-.972168-.0537109-.2338867-.1074219-.3959961-.1074219-.4858398,0-.0541992.0351562-.090332.1435547-.090332h.0537109c1.7109375.1259766,1.7109375.2880859,1.7109375.3422852,0,.0898438-.0722656.2158203-.1445312.3598633-.1435547.3598633-.1435547.8823242-.1435547,1.1704102h6.7880859v.4321289c0,.684082,0,1.9804688.0722656,2.7905273h-1.5664062Z"/>
          <path class="cls-1" d="m379.261842,70.966492v-2.8808594h-6.4638672v-1.3500977l6.5712891-8.5888672h1.4042969v8.5166016h1.9990234v1.4223633h-1.9990234v2.8808594h-1.5117188Zm0-10.3530273l-4.6816406,6.0498047h4.6816406v-6.0498047Z"/>
          <path class="cls-1" d="m404.9141857,64.7189334c-2.6826172-.0722656-5.6533203-.1083984-8.5878906-.1083984h-1.7470703c-.1435547.4321289-.3955078,1.1523438-.5400391,1.5844727h7.8144531c-.1435547,1.8364258-.3056641,2.8808594-.6484375,4.2495117-.3779297,1.4580078-.9716797,1.8720703-2.8984375,1.8720703-.5947266,0-1.296875-.0356445-2.1611328-.0898438,0,0-.0361328-.684082-.4140625-1.4765625,1.0449219.1083984,1.8183594.1801758,2.3769531.1801758,1.2421875,0,1.5126953-.2880859,1.6923828-.9360352.2705078-.9726562.4140625-1.7109375.46875-2.5566406h-6.6621094c-.1982422.5400391-.2705078.7919922-.5224609,1.3681641l-1.4228516-.3417969c.7207031-1.3505859,1.1347656-2.5751953,1.5126953-3.8354492-1.5478516.0180664-3.0605469.0541992-4.4648438.090332v-1.4946289c2.5205078.0898438,5.2753906.1259766,8.0478516.1259766,2.7910156,0,5.5820312-.0361328,8.15625-.1259766v1.4946289Zm-13.0712891-2.6650391v-4.7714844h9.8486328v4.7714844h-9.8486328Zm8.5166016-3.546875h-7.1845703v2.3222656h7.1845703v-2.3222656Z"/>
          <path class="cls-1" d="m409.3389904,72.3165897c.0712891-2.5927734.1259766-5.8154297.1259766-8.6425781-.5761719,1.6928711-1.2070312,3.1333008-2.0351562,4.5556641,0,0-.2519531-.7919922-.7197266-1.3681641,1.0078125-1.4946289,1.9082031-3.4213867,2.6289062-5.815918-.8291016,0-1.6386719.0180664-2.4130859.0717773v-1.2958984c.8105469.0717773,1.65625.1074219,2.5390625.1259766-.0361328-1.5126953-.0546875-2.5927734-.1259766-2.8452148-.0546875-.2158203-.1269531-.3598633-.1269531-.449707,0-.0722656.0546875-.1083984.1621094-.1083984h.0361328c1.4951172.1259766,1.5664062.234375,1.5664062.3422852,0,.0898438-.0537109.1977539-.1435547.3422852-.1445312.2519531-.1621094.4677734-.1982422,2.7001953.7382812-.0175781,1.4765625-.0537109,2.1787109-.1074219v1.2958984c-.7021484-.0361328-1.4404297-.0717773-2.1787109-.0717773.6484375,1.5302734,1.3681641,2.7368164,2.1425781,3.8168945-.4316406.4863281-.7558594,1.0986328-.7558594,1.0986328-.5761719-1.0263672-.9902344-1.890625-1.3867188-2.7910156,0,2.8085938.0361328,6.2480469.1259766,9.1464844h-1.421875Zm7.3457031,0c.0361328-1.8359375.0722656-3.8349609.0898438-5.9414062-.8818359,2.0888672-2.2685547,3.6010742-4.2490234,4.8974609,0,0-.2705078-.6660156-.8105469-1.1884766,1.7646484-1.0083008,3.2236328-2.3046875,4.0332031-4.0332031h-2.5029297v-5.7797852h3.5478516c0-.3061523,0-.7739258-.0185547-1.0444336-1.4765625,0-3.0068359.0361328-4.4648438.0722656v-1.2602539c.7197266.0180664,1.4765625.0541992,2.2148438.0717773.7558594.0180664,1.5117188.0180664,2.2324219.0361328-.0185547-.5581055-.0361328-.9003906-.0546875-1.0444336-.0351562-.2158203-.0898438-.3598633-.0898438-.449707,0-.0722656.0361328-.1083984.1445312-.1083984h.0361328c1.5117188.0722656,1.5117188.2519531,1.5117188.3061523,0,.0717773-.0537109.1977539-.1074219.3422852-.1259766.3056641-.1259766.4316406-.1259766.9541016,1.4941406,0,2.9169922-.0361328,4.4833984-.1079102v1.2602539c-1.5849609-.0537109-3.0068359-.0722656-4.5195312-.0722656v1.0444336h3.6728516v5.7797852h-2.6650391c.9189453,1.6748047,2.3408203,3.0068359,3.8710938,3.7993164-.5576172.5581055-.8095703,1.2783203-.8095703,1.2783203-1.7285156-1.2602539-3.1513672-2.809082-4.0517578-4.7714844.0185547,2.0527344.0546875,4.0512695.0898438,5.9594727h-1.4580078Zm.1083984-10.9829102h-2.359375v1.206543h2.359375v-1.206543Zm0,2.2329102h-2.359375v1.421875h2.359375v-1.421875Zm3.7265625-2.2329102h-2.5029297v1.206543h2.5029297v-1.206543Zm0,2.2329102h-2.5029297v1.421875h2.5029297v-1.421875Z"/>
        </g>
        <g>
          <path class="cls-1" d="m29.6602491,49.4035313h4.8109591c1.5555019,0,3.5502738.2600163,3.5502738,2.1201838v16.7315658s-5.4117545,1.986328-15.1879753,1.986328c-9.770968,0-22.8335067-5.3802372-22.8335067-20.2819315,0-14.8925018,13.6272206-20.6896845,23.6923486-20.6896845,4.5437201,0,10.2082682.2678956,10.2082682,2.8175003v4.9744541c-3.8240789-3.1201961-5.3762977-3.6987598-11.1866126-3.6987598-5.8339527,0-16.2674372,3.8176056-16.2674372,16.2589938,0,12.3770407,13.9896677,19.7678083,25.6372183,15.0901405v-9.4972551c0-1.992053-.1575857-5.8115356-2.4235362-5.8115356Z"/>
          <path class="cls-1" d="m102.721561,69.2278078h12.3277955c-3.3959711-1.2757873-4.8109591-5.3749844-5.9527986-8.3618893-1.1477489-2.9658935-10.0743204-24.6720055-11.0467553-27.6516878-1.0138011-2.971803-2.4084343-2.971803-3.5712852-2.971803h-7.0585247c3.3894051,1.1405262,1.5220149,3.5502737.9573329,5.2481663-.5561461,1.6901991-12.4617433,31.2079638-12.4617433,31.2079638-4.1215218-1.1339602-14.498538-16.3153691-14.498538-16.3153691,13.7578854-3.9586832,11.658713-20.1407611-1.8260239-20.1407611h-15.4617804c3.1280755.7051958,2.8457345,3.9803512,2.8457345,6.5299559v26.7980987c0,3.678312-1.1392131,4.6847984-2.9796823,5.6573253h11.3350058c-3.1136302-1.4097351-2.283679-4.6776678-2.283679-6.2338262v-28.9123731h6.1162937c3.2771253,0,5.6704576,3.9737852,5.6704576,6.6704698,0,4.3684059-3.416326,6.0808368-6.7971951,7.3494014-3.4169826,1.2738174-1.5640378,4.1136424,0,6.3749967,1.5548453,2.2757996,6.0867464,8.6704024,8.8044426,11.7926605,2.6848658,3.1208528,5.0992096,2.9586708,6.3690874,2.9586708h10.2076116c-3.9514606-1.2606853-1.8319334-4.3664361-1.2751307-5.9304738.5797839-1.571917,3.122166-8.2364774,3.122166-8.2364774h15.3160137s1.8522882,4.810959,3.5502738,9.0867833c1.718997,4.2338015.4070963,4.8050495-1.4090785,5.0801678Zm-15.8938278-18.7047617l5.8103149-15.1735296,6.2502416,15.1735296h-12.0605564Z"/>
          <path class="cls-1" d="m226.9404335,69.2278078h12.3639089c-3.4255185-1.2757873-4.8319705-5.3749844-5.9587081-8.3618893-1.1273941-2.9658935-10.0769469-24.6720055-11.0612007-27.6516878-1.0026388-2.971803-2.3966154-2.971803-3.5594663-2.971803h-7.0769097c3.422892,1.1405262,1.5555019,3.5502737.9783444,5.2481663-.564682,1.6901991-12.4827547,31.2079638-12.4827547,31.2079638-.7905548,1.8529448-1.9534057,1.8805223-2.6848658,2.5292499h10.2141777c-3.9731287-1.2606853-1.8470353-4.3664361-1.2816968-5.9304738.5620555-1.571917,3.133985-8.2364774,3.133985-8.2364774h15.3101042s1.8673902,4.810959,3.5620927,9.0867833c1.6920761,4.2338015.4103793,4.8050495-1.4570108,5.0801678Zm-15.8629673-18.7047617l5.8103149-15.1735296,6.2351396,15.1735296h-12.0454545Z"/>
          <path class="cls-1" d="m183.3141545,69.9533584c1.414988-1.2816967,2.6966847-2.2824578,2.6966847-6.8064797v-26.8045726c0-2.1195272-.1634951-4.5509427-2.6966847-5.3946826h10.8977055c-1.1267375,1.0059218-2.474095,2.2666071-2.474095,5.1202209v27.0790343c0,2.4177189-.4937684,5.9693058,2.6343071,6.8064797h-11.0579176Z"/>
          <path class="cls-1" d="m124.5524288,39.3088563s-.1398573,21.4085768-.1398573,23.8380225c0,2.4177189.2882505,5.9693058,3.4077901,6.8064797h-10.3625709c1.4451919-1.2816967,2.550918-2.2824578,2.550918-6.8064797,0-4.5285258.3033524-24.697521.3033524-26.8045726,0-2.1195272-.3033524-4.5509427-2.8542704-5.3946826h7.9685819l23.811851,29.9182949v-24.3745626c0-1.5712604.2882505-4.5378105-2.9737729-5.6717707h10.6304665c-1.2606853.9717783-3.137268,1.4090785-3.137268,5.5227209v35.1882221s-2.9586709.5430139-7.76963-5.2613914c-4.83788-5.8044053-21.4355905-26.9602807-21.4355905-26.9602807Z"/>
          <path class="cls-1" d="m192.329368,100.1474282c-31.1881735-26.2912901-43.126601-57.2318301-.4635645-99.4509992,1.338165-1.3375083,2.6047598-.5423573,1.5548453.6546371-18.6968829,21.3816549-39.5559724,55.5752108-.4281077,97.493654.6067048.6336257.380832,2.0282588-.663173,1.3027082Z"/>
        </g>
      </g>
    </g>
  </g>
</svg>