<?xml version="1.0" encoding="UTF-8"?>
<svg id="_レイヤー_2" data-name="レイヤー 2" xmlns="http://www.w3.org/2000/svg" xmlns:xlink="http://www.w3.org/1999/xlink" viewBox="0 0 325 110">
  <defs>
    <style>
      .cls-1 {
        fill: none;
      }

      .cls-1, .cls-2 {
        stroke-width: 0px;
      }

      .cls-3 {
        clip-path: url(#clippath);
      }

      .cls-2 {
        fill: #5a8190;
      }
    </style>
    <clipPath id="clippath">
      <rect class="cls-1" width="325" height="110"/>
    </clipPath>
  </defs>
  <g id="top">
    <g class="cls-3">
      <g>
        <g>
          <path class="cls-2" d="m36.4242974,40.6097932h3.5012452c1.1454228,0,2.5952366.1875248,2.5952366,1.4566701v11.4274432s-3.9317576,1.3576097-11.0540383,1.3576097c-7.114117,0-16.6525319-3.6772964-16.6525319-13.8688964,0-10.1581181,9.929608-14.1432765,17.2813065-14.1432765,3.2939861,0,7.4298372.1868897,7.4298372,1.9266943v3.4035514c-2.7959979-2.140599-3.9227608-2.5205493-8.1667398-2.5205493-4.2424795,0-11.8325926,2.6213777-11.8325926,11.0947465,0,8.4835737,10.1875155,13.5222906,18.6439848,10.3342101v-6.4963823c0-1.3613993-.0829703-3.9718208-1.7457077-3.9718208Z"/>
          <path class="cls-2" d="m89.6612178,54.1715999h8.9991031c-2.4926066-.8707756-3.513574-3.6734855-4.3296149-5.7164103-.844364-2.0353031-7.3516984-16.8592899-8.0821032-18.9145999-.7184092-2.0259348-1.7580366-2.0259348-2.5805751-2.0259348h-5.1746453c2.4941061.7767751,1.1347645,2.4305184.7255733,3.5818667-.4131852,1.1738958-9.1089019,21.3328918-9.1089019,21.3328918-3.0059226-.7699473-10.5373858-11.156874-10.5373858-11.156874,10.0435628-2.7136317,8.4841217-13.7578846-1.3235257-13.7578846h-11.2727933c2.264855.4690502,2.0597618,2.7158546,2.0597618,4.4472437v18.3431335c0,2.5213433-.8305357,3.1888744-2.1565604,3.8665678h8.2513761c-2.264855-.9630296-1.6652365-3.1974488-1.6652365-4.2495566v-19.7868046h4.458902c2.3713168,0,4.1276873,2.7182364,4.1276873,4.5680789,0,2.9857887-2.4796113,4.1572813-4.9615552,5.0341122-2.4747797.8614073-1.1324275,2.8036626,0,4.366581,1.1584182,1.5452933,4.4564029,5.9048667,6.4176999,8.0370496,1.9719557,2.1250165,3.7015025,2.0305396,4.6581596,2.0305396h7.4461645c-2.8871274-.8707756-1.350516-2.99738-.9478225-4.0548865.4133474-1.0902162,2.2891796-5.6351337,2.2891796-5.6351337h11.1499991s1.3480168,3.289724,2.5870727,6.2048535c1.2445539,2.919893.3130545,3.2974832-1.0299593,3.4851668Zm-11.5803543-12.7888425l4.2571408-10.3846824,4.5263777,10.3846824h-8.7835185Z"/>
          <path class="cls-2" d="m180.1804431,54.1715999h9.0129291c-2.4836025-.8707756-3.5192386-3.6734855-4.3286152-5.7164103-.829029-2.0353031-7.3493659-16.8592899-8.0692745-18.9145999-.7297384-2.0259348-1.7580366-2.0259348-2.5885722-2.0259348h-5.1641422c2.4861021.7767751,1.1340867,2.4305184.7280724,3.5818667-.4263541,1.1738958-9.101578,21.3328918-9.101578,21.3328918-.5824579,1.2575753-1.4318201,1.2877444-1.9483017,1.7421864h7.4248388c-2.8952956-.8707756-1.3341885-2.99738-.934665-4.0548865.3985238-1.0902162,2.2713526-5.6351337,2.2713526-5.6351337h11.1799929s1.3488499,3.289724,2.5812415,6.2048535c1.2227284,2.919893.2977266,3.2974832-1.0632784,3.4851668Zm-11.5525263-12.7888425l4.223646-10.3846824,4.5638642,10.3846824h-8.7875102Z"/>
          <path class="cls-2" d="m148.374669,54.6762179c1.0364618-.8899886,1.9711268-1.5629184,1.9711268-4.6673405v-18.3245346c0-1.4538333-.0796317-3.1005901-1.9711268-3.7006377h7.9756414c-.8223719.6884907-1.8043533,1.5568846-1.8043533,3.5005689v18.5246034c0,1.6505887-.3773647,4.079678,1.9304748,4.6673405h-8.1017629Z"/>
          <path class="cls-2" d="m105.5701775,33.7194871s-.1016302,14.637891-.1016302,16.2893903c0,1.6505887.2277517,4.079678,2.4942727,4.6673405h-7.5584576c1.0421265-.8899886,1.8711627-1.5629184,1.8711627-4.6673405,0-3.0942176.1935973-16.8818162.1935973-18.3245346,0-1.4538333-.1935973-3.1005901-2.06476-3.7006377h5.799588l17.3577787,20.4714845v-16.6817685c0-1.065287.2172612-3.1012252-2.1588929-3.8773652h7.7518883c-.9339928.6876968-2.2956772.9652526-2.2956772,3.7882869v24.0619256s-2.1412325.3736205-5.6638033-3.6052081c-3.5215711-3.9696191-15.6250664-18.4215732-15.6250664-18.4215732Z"/>
          <path class="cls-2" d="m154.9723043,75.3066459c-22.7385168-17.9711008-31.4275692-39.1286943-.3335471-68.012278.9671599-.8877878,1.8994859-.3574467,1.1324275.470638-13.6417772,14.6039111-28.8226695,37.993542-.3173862,66.643077.4491723.4582528.2700699,1.3831741-.4814941.898563Z"/>
        </g>
        <path class="cls-2" d="m195.4207279,54.4029637c-2.1073131,0-3.8217413-1.6339359-3.8217413-3.6423107s1.7144282-3.6423107,3.8217413-3.6423107,3.8217413,1.6339359,3.8217413,3.6423107-1.7144282,3.6423107-3.8217413,3.6423107Zm0-6.8221058c-1.8397817,0-3.3364408,1.426391-3.3364408,3.1797951s1.4966591,3.1797951,3.3364408,3.1797951,3.3364408-1.426391,3.3364408-3.1797951-1.4966591-3.1797951-3.3364408-3.1797951Z"/>
        <path class="cls-2" d="m196.3425144,52.736733c-.0843589-.0749781-.135069-.1339218-.135069-.4180256v-.471775c0-.2786837-.089809-.6431858-.5286647-.6431858h-1.0516423v1.5329864h-.7592298v-3.9128643h1.9345669c.764917,0,1.26562.4503204,1.26562,1.0612114,0,.257455-.090046.4932296-.2530766.6700605-.1575805.1716367-.2926495.2411947-.6412222.3161728.3992829.0537494.7874285.1662166.7874285.9006408v.396571c0,.3913768.1518934.4932296.2642139.5682077h-.8829246Zm-.6412222-3.3017474h-1.0741538v1.1576441h.9504591c.4217944,0,.6805581-.2088999.6805581-.610891,0-.3538877-.2194279-.5467531-.5568633-.5467531Z"/>
        <path class="cls-2" d="m215.1100371,55.0498047c-.0961914-.3037109-.2880859-.7363281-.4321289-1.0400391-1.0405273.5283203-2.2250977,1.0078125-3.3295898,1.3447266-.3359375.0957031-.3999023.1757812-.5439453.3037109-.1279297.1123047-.2241211.1601562-.2880859.1601562s-.1923828-.015625-.5605469-1.2646484v-.0644531c0-.1435547.1762695-.1279297.2880859-.1435547.2402344-.0322266.3842773-.0478516.7524414-.1445312v-7.4589844c-.2080078.2089844-.4160156.4326172-.6401367.640625,0,0-.1279297-.671875-.4960938-1.1679688,1.4082031-1.1044922,2.5610352-2.9453125,2.8808594-3.8896484.0800781-.2246094.0644531-.4169922.2241211-.4169922h.0322266c.3681641.0488281.7680664.1445312,1.1044922.2402344.0800781.0322266.1279297.0800781.1279297.1601562,0,.0478516-.0317383.1279297-.1118164.1923828-.0800781.0634766-.144043.1435547-.1923828.2080078.8642578.9599609,1.7929688,1.7607422,3.0253906,2.4970703-.4482422.4482422-.7202148,1.0244141-.7202148,1.0244141-1.1044922-.8486328-2.0170898-1.6806641-2.8173828-2.6572266-.4960938.8164062-1.1362305,1.7451172-1.9365234,2.6572266h1.5844727c0-.2724609,0-.8486328-.0322266-1.1367188-.0317383-.1914062-.0639648-.3037109-.0639648-.3837891,0-.0644531.0322266-.0966797.128418-.0966797h.0478516c1.0722656.0966797,1.0883789.2089844,1.0883789.2724609,0,.0800781-.0478516.1757812-.0961914.2880859-.0478516.1601562-.0639648.2402344-.0800781.4804688v.5761719h1.8730469v5.0419922h-3.8735352v2.6728516c.6401367-.1914062,1.4726562-.4804688,2.1606445-.8320312-.2241211-.4326172-.3681641-.6884766-.65625-1.0566406l.9125977-.4482422c.5283203.8007812,1.1523438,1.9208984,1.6166992,2.8496094l-.9765625.5917969Zm-.2080078-7.875h-2.8491211v1.0566406h2.8491211v-1.0566406Zm0,1.953125h-2.8491211v1.2158203h2.8491211v-1.2158203Zm9.1557617-5.2021484c-1.8408203-.0800781-3.7456055-.0966797-4.8022461-.0966797h-.8642578v2.3535156h5.1860352c-.2719727,2.9931641-.800293,4.9296875-1.7763672,6.4980469.6401367.7685547,1.472168,1.5693359,2.4648438,2.1455078-.5283203.5283203-.7202148,1.1044922-.7202148,1.1044922-1.0087891-.8007812-1.8085938-1.5849609-2.4331055-2.3857422-.7041016.7851562-1.5366211,1.5527344-2.7050781,2.3857422,0,0-.2241211-.5449219-.6884766-1.0410156,1.2167969-.6884766,2.0488281-1.4560547,2.7211914-2.2724609-.8803711-1.6484375-1.2963867-3.3935547-1.5366211-5.3945312h-.512207c-.015625,3.6972656-.2080078,6.2265625-1.6166992,8.7080078,0,0-.3520508-.6083984-.9121094-.9931641,1.3764648-2.1445312,1.3925781-4.9941406,1.3925781-8.1953125v-3.953125h1.168457c1.4082031,0,3.8251953-.015625,5.6342773-.0957031v1.2324219Zm-4.1137695,3.296875c.1918945,1.6806641.4804688,3.0253906,1.168457,4.4980469.5922852-1.1044922,1.0883789-2.5615234,1.2485352-4.4980469h-2.4169922Z"/>
        <path class="cls-2" d="m232.6305449,46.7587891c-.1601562-.3681641-.3198242-.6240234-.512207-.9765625-1.6484375.2402344-3.2973633.4003906-4.8500977.5117188-.1757812.0166016-.3359375.0800781-.6240234.1767578-.1757812.0634766-.2880859.1435547-.3520508.1435547-.0961914,0-.1279297-.0957031-.3842773-1.2324219-.0161133-.0478516-.0161133-.0800781-.0161133-.1123047,0-.0478516.0322266-.0634766.0800781-.0634766.0483398,0,.128418.015625.2241211.015625.1123047,0,.2402344.0166016.4003906.0166016.144043,0,.3198242-.0166016.512207-.0166016.7202148-1.0556641,1.3925781-2.5126953,1.4404297-2.9453125.0322266-.2714844.0322266-.3681641.1279297-.3681641.0322266,0,.0639648,0,.0961914.0166016.8481445.1757812,1.2802734.2880859,1.2802734.4482422,0,.0634766-.0478516.1435547-.159668.2236328-.2563477.1923828-.3520508.3359375-.4003906.4326172-.2719727.5917969-.6723633,1.4238281-1.1362305,2.1123047.8642578-.03125,2.1289062-.1279297,3.2172852-.2880859-.2719727-.4316406-.6083984-.8642578-.9443359-1.2480469l.815918-.5605469c.8164062.9121094,1.5209961,1.953125,2.1450195,3.0898438l-.9604492.6240234Zm-1.1201172,5.9541016h-3.3935547c.0161133,1.2167969.0322266,2.4169922.0800781,3.2177734h-1.2807617c.0800781-1.5527344.0961914-4.9785156.0961914-7.0908203v-1.7773438h5.5864258v7.0107422c0,1.4248047-.512207,1.7607422-2.1450195,1.7607422-.2080078,0-.4321289,0-.6723633-.015625,0,0-.0161133-.5605469-.3041992-1.1523438.4326172.03125.7685547.0634766,1.0405273.0634766.800293,0,.9926758-.1914062.9926758-.7363281v-1.2802734Zm0-4.6582031h-3.409668v1.3125h3.409668v-1.3125Zm0,2.2578125h-3.409668v1.4560547h3.409668v-1.4560547Zm2.3525391-3.90625c0-.3837891.0161133-.9921875.0161133-1.6005859,0-1.0244141-.0161133-2.1123047-.0800781-2.3847656-.0478516-.1923828-.0957031-.3203125-.0957031-.4003906,0-.0634766.0478516-.0957031.144043-.0957031h.0317383c1.3125.1123047,1.3447266.2236328,1.3447266.3037109,0,.0644531-.0483398.1757812-.1123047.2880859-.144043.2880859-.144043.7041016-.144043,1.7451172,1.5366211-.3359375,2.6894531-.8164062,3.2333984-1.2802734.0800781-.0800781.1123047-.1601562.1923828-.1601562.1118164,0,1.0883789.6396484,1.0883789.8798828,0,.0644531-.0483398.1123047-.1601562.1279297-.2880859.0166016-.4482422.0800781-.512207.1123047-1.0083008.4960938-2.3051758.9765625-3.8417969,1.3603516,0,.4326172,0,.7685547.0161133,1.0566406.0161133.5761719.2080078.671875,1.6967773.671875,1.7128906,0,1.9208984-.0957031,2.2089844-2.1279297.5283203.3671875,1.0244141.5917969,1.0244141.5917969-.4160156,2.5292969-1.0244141,2.609375-3.2333984,2.609375-2.2250977,0-2.8173828-.2724609-2.8173828-1.6171875v-.0800781Zm.0800781,7.4111328c0-.3837891.0161133-1.1367188.0161133-1.9208984,0-1.3125-.0161133-2.7851562-.0800781-3.0566406-.0478516-.1923828-.0961914-.3203125-.0961914-.4003906,0-.0644531.0483398-.0966797.1445312-.0966797h.0317383c1.3447266.1123047,1.3764648.2246094,1.3764648.3046875,0,.0634766-.0478516.1757812-.1118164.2880859-.1123047.2236328-.1123047.4316406-.1279297.671875-.0161133.2402344-.0161133,1.0410156-.0322266,1.5693359,1.5844727-.4003906,2.8330078-.9443359,3.425293-1.4248047.0800781-.0644531.1123047-.1757812.1923828-.1757812.015625,0,.0478516.015625.0957031.0478516.3041992.1914062.9765625.65625.9765625.8164062,0,.0634766-.0639648.1279297-.1762695.1435547-.2241211.0322266-.4477539.0957031-.512207.1445312-.9921875.5761719-2.3847656,1.1044922-3.9853516,1.5361328,0,.5927734,0,1.1523438.0161133,1.4570312.015625.5761719.1918945.671875,1.7763672.671875,1.8569336,0,1.9848633-.015625,2.3212891-2.4492188.5439453.4648438,1.0400391.640625,1.0400391.640625-.4160156,2.7695312-.8803711,2.9287109-3.3774414,2.9287109-2.128418,0-2.9130859-.1757812-2.9130859-1.6318359v-.0644531Z"/>
        <path class="cls-2" d="m242.7565214,50.6318359c.015625-.2880859,0-.3681641.0957031-.3681641.0322266,0,.0639648.0166016.0961914.0166016.8325195.1435547.9604492.2236328.9604492.3193359,0,.0488281-.0322266.1289062-.0961914.2568359-.0961914.1757812-.1601562.3681641-.1762695.5117188-.1279297.9130859-.4799805,2.5771484-.815918,3.6181641,0,0-.4482422-.2890625-.9604492-.4482422.4799805-1.2167969.8803711-3.3613281.8964844-3.90625Zm1.5043945,5.2988281c.0639648-1.5048828.0639648-3.4902344.0639648-5.0107422v-1.5205078c-.3681641.0322266-.7363281.0644531-1.0722656.0800781-.1601562.0166016-.3520508.0166016-.6245117.1445312-.159668.0634766-.2558594.1279297-.3359375.1279297-.1918945,0-.3681641-.7519531-.4160156-1.0410156v-.0957031c0-.0644531.015625-.0800781.0795898-.0800781.0483398,0,.1123047.015625.2084961.015625.144043,0,.2880859.0166016.4638672.0166016.496582-.5126953,1.0083008-1.1523438,1.4726562-1.7763672-.5922852-.8330078-1.2963867-1.5849609-2.0805664-2.2089844l.65625-.5927734c.1757812.1445312.3359375.2724609.4960938.4160156.5922852-.8476562.9765625-1.6806641,1.0722656-2.1289062.0639648-.2880859.0478516-.3681641.144043-.3681641.0161133,0,.0483398.0166016.0800781.0166016.3520508.0634766.7524414.1601562,1.0566406.2558594.0957031.0322266.144043.0800781.144043.1445312,0,.0634766-.0483398.1435547-.1601562.2236328-.2558594.1923828-.3041992.3359375-.3681641.4638672-.2558594.4970703-.7841797,1.3125-1.2802734,2.0332031.2719727.2880859.5439453.5761719.815918.9121094.6083984-.8964844,1.0566406-1.6806641,1.1367188-2.0166016.0639648-.2558594.0800781-.3203125.1601562-.3203125.0478516,0,1.2485352.2880859,1.2485352.5283203,0,.0644531-.0483398.1279297-.1445312.2080078-.2558594.1923828-.3837891.3359375-.4477539.4482422-.7524414,1.1845703-1.7446289,2.4970703-2.8652344,3.7451172.7363281-.015625,1.5522461-.0478516,2.3369141-.1113281-.2719727-.7363281-.5444336-1.2011719-.5444336-1.2011719l.8325195-.3193359s.7202148,1.3447266,1.1845703,2.8330078l-.9765625.3037109c-.0639648-.3037109-.144043-.5761719-.2241211-.8476562-.3520508.0478516-.6884766.0791016-1.0083008.1113281v1.5048828c0,1.5205078,0,3.5693359.0639648,5.1064453h-1.168457Zm2.2729492-1.8408203c-.1123047-1.2646484-.3203125-2.4335938-.7202148-3.6015625l.8959961-.2402344c.4003906,1.1679688.6723633,2.4003906.8486328,3.6337891l-1.0244141.2080078Zm4.5458984-6.4667969c-1.2167969,0-2.4008789.0322266-3.6816406.0634766v-1.1523438c1.456543.0644531,2.8173828.0966797,4.2099609.0966797.5917969,0,1.2001953,0,1.8085938-.0166016v-1.2001953c-1.0083008,0-3.1533203,0-4.9941406.0644531v-1.0732422c1.8408203.0644531,4.0019531.0644531,4.9941406.0644531v-1.1044922h-.8325195c-1.2641602,0-3.6333008,0-4.6899414.0644531v-1.0732422c1.1845703.0644531,4.065918.0644531,5.6025391.0644531h1.0244141v4.1611328c.512207-.015625,1.0400391-.03125,1.5844727-.0478516v1.1523438c-1.3764648-.0478516-2.6567383-.0634766-3.8896484-.0634766v.7363281c.2084961.5761719.4804688,1.2646484.800293,1.8730469.7363281-.7050781,1.168457-1.3613281,1.4086914-2.0332031.0322266-.0800781.0639648-.1923828.144043-.1923828,0,0,.0161133.0166016.0322266.0166016.6079102.2714844,1.1362305.6240234,1.1362305.7363281,0,.0478516-.0478516.0957031-.1601562.1435547-.1757812.0800781-.3359375.2402344-.3999023.3203125-.4643555.5917969-.9926758,1.2646484-1.6489258,1.8564453.7045898,1.0722656,1.6967773,2.0810547,2.7373047,2.6572266-.512207.5761719-.6723633,1.2001953-.6723633,1.2001953-1.5844727-1.2958984-2.7851562-2.9453125-3.3774414-4.5292969v3.5048828c0,1.6494141-.6723633,2.0009766-2.0488281,2.0009766-.2558594,0-.527832-.015625-.8320312-.0322266,0,0-.0800781-.7041016-.3842773-1.328125.4638672.0478516.8320312.0800781,1.1206055.0800781.815918,0,1.0083008-.2236328,1.0083008-.9287109v-6.0820312Zm-.1762695,4.1455078c-.5439453.65625-1.3442383,1.4248047-1.7446289,1.7763672-.144043.1289062-.3520508.3203125-.4482422.5126953-.0957031.2080078-.1757812.3203125-.2719727.3203125-.0800781,0-.144043,0-.7524414-1.1044922-.0317383-.0644531-.0478516-.1123047-.0478516-.1445312,0-.0800781.0800781-.1113281.2241211-.1757812.7202148-.3359375,1.6323242-1.1689453,2.6088867-2.2412109l.4321289,1.0566406Zm-1.456543-1.0087891c-.4799805-.7841797-1.0083008-1.5205078-1.6005859-2.1445312l.800293-.5605469c.5600586.5761719,1.1523438,1.296875,1.6489258,2.0175781l-.8486328.6875Z"/>
        <path class="cls-2" d="m263.398123,53.7695312c0-.2080078.0161133-.5605469.0161133-.8486328h-3.8095703c.0161133.4482422.0161133.9443359.0317383,1.2167969h-1.2001953c.0639648-1.4404297.0639648-6.6103516.0639648-9.4443359v-1.8886719h6.034668v1.8085938c0,2.6894531,0,7.6357422.0639648,9.15625h-1.2006836Zm-2.4169922-9.9238281h-1.4086914v3.1689453h1.4086914v-3.1689453Zm0,4.2089844h-1.4086914c0,1.2167969,0,2.7216797.0161133,3.8261719h1.3925781v-3.8261719Zm2.480957-4.2089844h-1.4726562v3.1689453h1.4726562v-3.1689453Zm-.0317383,8.0351562c.015625-1.0888672.0317383-2.59375.0317383-3.8261719h-1.4726562v3.8261719h1.440918Zm4.8496094-8.0195312c-1.2641602,0-2.3525391.0322266-3.3930664.0800781v-1.2802734c1.2001953.0478516,2.5610352.0800781,3.9052734.0800781,1.1845703,0,2.3691406-.0166016,3.4736328-.0800781v1.2802734c-.8803711-.0478516-1.824707-.0644531-2.8012695-.0800781v10.0683594c0,1.7128906-.7363281,1.984375-2.5449219,1.984375-.2719727,0-.5600586,0-.8642578-.015625,0,0-.0800781-.6240234-.3842773-1.2490234.5600586.0478516,1.0083008.0644531,1.3447266.0644531,1.2324219,0,1.2641602-.2724609,1.2641602-.9121094v-9.9404297Z"/>
      </g>
      <g>
        <path class="cls-2" d="m27.157959,104.9111328c.0219727-.4179688.0219727-.9023438.0219727-1.4306641h-10.5395508c.0219727.5283203.0219727,1.0126953.0439453,1.4306641h-1.8701172c.0878906-2.5966797.0878906-7.9873047.0878906-11.8818359v-4.5332031h4.9067383c.6162109-.8789062,1.0341797-1.78125,1.1665039-2.3535156.065918-.3964844.0219727-.5058594.1757812-.5058594h.0878906c1.8261719.2851562,1.8925781.4609375,1.8925781.5722656,0,.0878906-.0664062.1972656-.1982422.3066406-.3520508.2871094-.4399414.4414062-.527832.6171875-.2202148.4179688-.5063477.9023438-.7924805,1.3632812h7.3271484v4.5117188c0,3.8945312,0,9.2851562.0878906,11.9033203h-1.8701172Zm.0878906-10.7822266h-10.6713867c.0219727.9023438.0219727,1.9150391.0219727,2.9267578h10.6494141v-2.9267578Zm0-4.0703125h-10.6494141v2.5527344h10.6494141v-2.5527344Zm-10.6494141,8.515625c0,1.1445312,0,2.2880859.0219727,3.34375h10.5834961c.0219727-1.0332031.0219727-2.1777344.0439453-3.34375h-10.6494141Z"/>
        <path class="cls-2" d="m53.3605957,91.8632812c-.9902344-.0214844-2.5522461-.0439453-4.1586914-.0664062.7260742,2.6621094,2.2001953,4.9511719,4.6425781,6.4472656-.7480469.7480469-1.0341797,1.671875-1.0341797,1.671875-2.1342773-1.8261719-3.9824219-4.1367188-4.9287109-7.6787109-.9238281,3.6962891-2.5302734,5.7646484-5.6547852,7.4814453,0,0-.2636719-.7929688-.9238281-1.4960938,2.9042969-1.2988281,4.4443359-3.3232422,5.1044922-6.4472656h-3.0141602c-1.6503906,3.3007812-3.9384766,5.8525391-8.4272461,8.0527344,0,0-.2202148-.8574219-.9243164-1.5625,1.8925781-.6601562,3.3447266-1.671875,4.4228516-2.6835938-1.1220703-1.5185547-2.5083008-2.5742188-2.5083008-2.5742188l1.1000977-.8808594s1.3862305,1.1005859,2.5302734,2.4199219c.4399414-.3730469.9018555-.9013672,1.2099609-1.4736328-1.1220703-1.2539062-2.6621094-2.2441406-2.6621094-2.2441406l1.0341797-.9677734s1.2319336.7910156,2.4643555,1.9140625c.6157227-.8808594.9238281-1.7167969,1.1879883-2.6191406h-4.2246094c-.9023438,1.3867188-2.15625,2.7949219-3.5864258,3.8515625,0,0-.2861328-.9023438-.8583984-1.5410156,2.2666016-1.2978516,3.9609375-4.1367188,4.2246094-5.3242188.0664062-.375-.0219727-.5058594.1982422-.5058594.065918,0,.1098633,0,.1982422.0214844,1.6279297.2207031,1.6499023.4394531,1.6499023.5058594s-.065918.1757812-.2197266.2861328c-.1982422.1542969-.3300781.3300781-.3740234.4404297-.1103516.2851562-.2641602.5722656-.418457.8574219h3.3666992c.2421875,0,.4179688-.0654297.5942383-.1972656.0439453-.0449219.1098633-.0664062.1538086-.0664062.065918,0,.1318359.0214844.1982422.0664062,1.2099609.6601562,1.3642578.7919922,1.3642578.9677734,0,.2421875-.4624023.484375-.5283203.6601562-.1538086.3740234-.3520508.7919922-.5058594,1.1435547h2.5742188c.0878906-.8574219.1098633-1.7158203.1098633-2.4414062,0-.7929688-.0219727-1.4082031-.065918-1.6289062-.0439453-.1757812-.065918-.3300781-.065918-.4179688,0-.1318359.0439453-.1757812.1757812-.1757812.3520508,0,1.4741211.1982422,1.8266602.2861328.1098633.0439453.1757812.0878906.1757812.1757812,0,.0888672-.065918.1982422-.1538086.3300781-.1982422.2861328-.2641602.5283203-.2641602.8144531-.0219727.5712891-.0439453,1.7822266-.1762695,3.0576172,1.9365234-.0214844,3.9609375-.0429688,5.1708984-.109375v1.6503906Zm-15.9521484,7.4804688c.4619141.0878906.9897461.1982422,1.4301758.3525391.1757812.0439453.2861328.1318359.2861328.2421875,0,.0654297-.0664062.1757812-.1762695.2861328-.3081055.3076172-.3520508.3515625-.4619141.6152344-.5722656,1.453125-1.2983398,2.6191406-2.5083008,4.0712891,0,0-.6821289-.6162109-1.496582-1.0126953,1.4301758-1.2539062,2.3984375-2.9921875,2.640625-4.0263672.1098633-.3955078.0439453-.5283203.1977539-.5283203h.0883789Zm3.5864258,5.390625c.0219727-.5488281.0439453-1.0996094.0439453-1.6054688,0-1.0566406-.065918-2.0683594-.1757812-3.1464844l1.5400391-.0664062c.1977539,1.3867188.3081055,2.75.3081055,4.3125v.4404297l-1.7163086.0654297Zm5.1044922-.0214844c-.1977539-1.671875-.5498047-3.1464844-1.144043-4.6425781l1.5625-.2207031c.59375,1.4082031,1.0117188,2.8828125,1.2758789,4.6210938l-1.6943359.2421875Zm5.809082.1982422c-.8583984-1.9150391-1.628418-3.3232422-2.7504883-4.9726562l1.4741211-.5498047c1.1665039,1.5390625,2.0463867,3.0800781,2.8603516,4.7744141l-1.5839844.7480469Zm-.3959961-15.1162109s-.9023438-1.5185547-2.3325195-2.75l1.078125-.7705078c1.2763672,1.078125,2.4204102,2.5517578,2.4204102,2.5517578l-1.1660156.96875Z"/>
        <path class="cls-2" d="m63.217041,100.7324219c3.28125,0,4.9140625-2.2255859,4.9140625-4.4667969,0-2.015625-1.3608398-4.0488281-4.081543-4.3847656-.6245117,4.5136719-2.6733398,9.9238281-4.7861328,9.9238281-1.168457,0-2.6572266-1.8408203-2.6572266-4.4023438,0-3.1367188,2.1767578-6.6425781,6.5947266-6.6425781,3.9697266,0,6.2104492,2.59375,6.2104492,5.5859375,0,2.6738281-1.8725586,5.3945312-5.5703125,5.7949219-.144043-.4316406-.4160156-.9443359-.7841797-1.4082031h.1601562Zm-5.394043-3.3945312c0,1.6660156.7519531,3.0097656,1.456543,3.0097656.3041992,0,.6079102-.2080078.8959961-.640625,1.1845703-1.8242188,2.2890625-5.0253906,2.6411133-7.890625-3.2651367.2246094-4.9936523,2.9765625-4.9936523,5.5214844Z"/>
        <path class="cls-2" d="m74.4841309,98.5527344c.1098633-.3964844.0878906-.5722656.2202148-.5722656.0219727,0,.065918,0,.1098633.0214844.4399414.1318359,1.6064453.5722656,1.6064453.8144531,0,.0878906-.0664062.1757812-.1982422.3076172-.3081055.2421875-.4179688.4404297-.5283203.6826172-.5058594,1.0996094-1.3198242,2.3105469-2.2661133,3.5644531,0,0-.6162109-.6826172-1.3862305-1.1230469,1.2324219-1.2539062,2.2666016-3.0361328,2.4423828-3.6953125Zm.7260742-1.1894531v-7.4589844h6.0288086c0-.3955078-.0219727-.9902344-.0219727-1.3417969-2.8603516.0214844-5.6987305.0439453-8.2949219.1103516v-1.6503906c2.5961914.1103516,5.4125977.1757812,8.2509766.1757812-.0219727-.4179688-.0439453-.7255859-.065918-.8583984-.065918-.2851562-.1318359-.4833984-.1318359-.5722656,0-.0878906.0219727-.109375.1318359-.109375h.1098633c1.7163086.1757812,1.9145508.2421875,1.9145508.4179688,0,.0878906-.0664062.2207031-.1542969.4179688-.1098633.2207031-.1538086.4628906-.1757812.7041016,2.7944336-.0224609,5.5888672-.0878906,8.1630859-.1757812v1.6503906c-2.5742188-.0888672-5.3686523-.1103516-8.1850586-.1103516v1.3417969h6.1606445v7.4589844h-13.7299805Zm6.0288086-6.0722656h-4.5107422v1.6064453h4.5107422v-1.6064453Zm-4.5107422,2.8828125v1.8037109h4.4667969c.0219727-.4833984.0219727-1.1660156.0439453-1.8037109h-4.5107422Zm.7705078,7.9433594c0-.5068359.0219727-1.1005859.0219727-1.6503906,0-.6601562-.0219727-1.2773438-.065918-1.5839844-.0444336-.2646484-.1323242-.4414062-.1323242-.5507812,0-.0664062.0439453-.109375.1542969-.109375h.0878906c1.2539062.109375,1.9140625.1757812,1.9140625.3730469,0,.1103516-.0878906.2421875-.1757812.4179688-.1103516.2646484-.1762695.484375-.1762695,1.7382812,0,.3525391.0219727.7480469.0219727,1.1445312.0219727.7480469.0219727.9238281,3.0366211.9238281.7480469,0,1.5180664-.0429688,2.2001953-.0878906,1.1660156-.0878906,1.3203125-.484375,1.6503906-3.0585938.7260742.5947266,1.5180664.9238281,1.5180664.9238281-.5498047,2.7949219-.9902344,3.5878906-2.5302734,3.6757812-.9023438.0429688-1.8041992.0654297-2.706543.0654297-3.6083984,0-4.8183594,0-4.8183594-2.1337891v-.0878906Zm5.7646484-.7705078c-.9462891-1.1005859-1.8041992-1.8486328-2.8823242-2.5966797l1.012207-.9902344c1.0561523.6601562,1.9140625,1.3417969,3.0141602,2.4199219l-1.144043,1.1669922Zm4.1586914-10.0556641h-4.6425781v1.6064453h4.6425781v-1.6064453Zm0,2.8828125h-4.6425781c.0219727.6152344.0219727,1.2978516.0219727,1.8037109h4.6206055v-1.8037109Zm2.9921875,8.8007812c-.8798828-1.6279297-1.8920898-2.9707031-3.1245117-4.2460938l1.2543945-.9023438c1.2983398,1.3632812,2.2661133,2.5742188,3.2563477,4.0703125l-1.3862305,1.078125Z"/>
        <path class="cls-2" d="m107.4274902,100.1074219c-.5761719-.65625-1.3447266-1.2167969-2.1767578-1.6962891-.5922852,1.9365234-1.6806641,3.4091797-4.2255859,4.2900391-.2885742-.3847656-.6884766-.7851562-1.0727539-1.0410156,2.5449219-.5605469,3.6816406-2.0332031,4.1938477-3.7929688-1.2167969-.5449219-2.5131836-.9121094-3.6816406-1.0888672-.3842773.9599609-.7841797,1.8886719-1.1523438,2.5615234-.7202148,1.3125-1.7929688,1.96875-2.7211914,1.96875-.1279297,0-1.8408203,0-1.8408203-2.3535156,0-2.65625,2.7373047-3.3769531,4.578125-3.3769531.1279297,0,.2558594.015625.3837891.015625.5605469-1.328125,1.0888672-2.7050781,1.5048828-3.7128906-2.0009766.2236328-3.0253906.4003906-3.6655273.6396484-.0800781.0322266-.1279297.0478516-.1601562.0478516-.1601562,0-.3999023-1.296875-.4321289-1.5039062v-.0166016c0-.0322266.0161133-.0478516.0478516-.0478516.0800781,0,.2563477.0644531.4643555.0644531.1123047,0,.2241211.015625.3842773.015625.9760742,0,2.8012695-.1445312,3.7612305-.3847656.1923828-.03125.2402344-.1269531.3203125-.1269531.1762695,0,1.1845703.8964844,1.1845703.9765625,0,.0957031-.2080078.1435547-.3681641.3515625-.5761719.7041016-1.2006836,2.2246094-1.8408203,3.8261719,1.1044922.1591797,2.2890625.4960938,3.4892578.9589844.0961914-.65625.128418-1.328125.144043-2v-.0322266c0-.1435547-.0639648-.2558594-.0639648-.3193359,0-.0488281.0161133-.0644531.0961914-.0644531h.0639648c.1601562.015625,1.456543.1601562,1.456543.2880859,0,.0478516-.0317383.0957031-.0639648.1591797-.0961914.1767578-.1279297.3691406-.1762695.640625-.1118164.65625-.1918945,1.2490234-.3198242,1.8408203.8964844.4169922,1.7446289.9287109,2.5449219,1.5048828l-.65625,1.4082031Zm-8.371582-3.4257812c-1.5683594,0-3.137207.7050781-3.137207,2.2089844,0,.2568359.0483398,1.1689453.7524414,1.1689453.8803711,0,1.6005859-1.1201172,2.5771484-3.3779297h-.1923828Z"/>
        <path class="cls-2" d="m113.5993652,102.8769531c-1.0400391-1.2480469-2.3208008-2.5136719-3.4570312-3.5214844l.8320312-.7685547c1.2167969.9287109,2.625,2.2089844,3.7133789,3.2021484l-1.0883789,1.0878906Z"/>
        <path class="cls-2" d="m133.9846191,88.3183594c0-.1005859,0-.140625.0800781-.140625.0400391,0,.0600586,0,.1000977.0195312,2.0205078.5605469,2.1806641.7011719,2.1806641.8408203,0,.0800781-.0800781.1806641-.2202148.2607422-.2602539.1591797-.3598633.2988281-.5400391.6796875-2.340332,5.2402344-4.9008789,9.421875-10.3222656,13.1621094-.5400391-.4199219-1.2001953-.859375-1.7402344-1.1992188,7.3413086-3.9414062,10.4619141-12.1630859,10.4619141-13.4628906v-.1601562Z"/>
        <path class="cls-2" d="m144.1428223,89.4179688c2.0405273.2207031,2.0605469.2207031,2.0605469.3808594,0,.0800781-.0400391.1992188-.1201172.3398438-.1401367.2597656-.1601562.4003906-.1801758.7197266-.1396484,3.6806641.0400391,8.2021484-3.4404297,11.8623047-.6000977-.3798828-1.2802734-.6992188-1.9204102-.9394531,3.0805664-2.1611328,3.640625-6.2421875,3.640625-9.3027344,0-.9394531-.0600586-1.8007812-.1000977-2.4599609-.0200195-.2402344-.1000977-.4208984-.1000977-.5205078,0-.0605469.0200195-.0800781.1000977-.0800781h.0600586Zm4.2011719-.640625c2.0004883.0800781,2.1601562.1005859,2.1601562.2607422,0,.0800781-.0400391.1806641-.1201172.2998047-.2197266.3603516-.3598633.6005859-.3598633,7.0214844,0,1.4003906.0200195,2.7011719.0200195,3.5009766,2.0205078-1.1601562,5.1611328-3.8212891,7.081543-6.1210938.3198242.4199219.7001953.8603516,1.0600586,1.2197266-2.0805664,2.28125-4.8007812,4.78125-7.6015625,6.7011719-.5800781.4208984-.6801758.78125-.8803711.78125-.2998047,0-1.5600586-1.4804688-1.5600586-1.4804688,0-.1201172.2001953-.1796875.2202148-.5800781.0200195-1.8203125.0595703-3.9414062.0595703-5.8818359,0-2.1005859-.0395508-4.0205078-.159668-5.2412109-.0200195-.1396484-.1000977-.2998047-.1000977-.3798828,0-.0595703.0400391-.1005859.1401367-.1005859h.0400391Z"/>
        <path class="cls-2" d="m175.4855957,94.5996094c-.6000977-.0410156-1.9003906-.0605469-3.5209961-.0605469-.8999023,0-1.8803711,0-2.9003906.0195312-.0800781,4.2216797-1.3203125,7.2822266-5.0410156,9.4228516-.4404297-.3798828-1.1801758-.9804688-1.7207031-1.2998047,4.0009766-1.5605469,5.0214844-4.7011719,5.0214844-7.6015625v-.5009766c-3.140625.0595703-6.3017578.1601562-7.3618164.2607422l-.0200195-1.7607422c.6000977.0400391,1.9404297.0595703,3.5810547.0595703,4.2006836,0,10.4418945-.1191406,11.9423828-.2792969l.0200195,1.7402344Zm-3.2006836-4.2617188c-.6000977-.0800781-1.8803711-.0996094-3.3208008-.0996094-2.4003906,0-5.2612305.0800781-6.3012695.2207031l-.0400391-1.7402344c.5800781.0585938,1.6801758.0791016,2.9604492.0791016,2.480957,0,5.6015625-.0996094,6.6616211-.2392578l.0400391,1.7792969Zm2.3603516,1.7402344c-.4599609-.6601562-1.0800781-1.359375-1.6201172-1.9394531l.8798828-.6210938c.5605469.5410156,1.2202148,1.2207031,1.7006836,1.8408203l-.9604492.7197266Zm1.5205078-1c-.4799805-.6396484-1.0405273-1.359375-1.640625-1.8798828l.8803711-.6396484c.5400391.5,1.2402344,1.1796875,1.7202148,1.7998047l-.9599609.7197266Z"/>
        <path class="cls-2" d="m186.7438965,103.1015625c.1401367-.9404297.2001953-3.4609375.2001953-5.7617188,0-.7597656,0-1.5205078-.0200195-2.1601562-1.640625,1.2001953-3.480957,2.3603516-5.5415039,3.4199219-.2397461-.359375-.7397461-.8994141-1.0600586-1.2197266,3.5009766-1.4208984,8.1416016-4.7607422,10.0019531-7.2021484.2202148-.2792969.2602539-.5595703.4003906-.5595703.0200195,0,.0600586.0205078.1000977.0400391,1.3798828,1.0400391,1.5200195,1.1796875,1.5200195,1.3203125,0,.0996094-.0800781.1601562-.2597656.2207031-.4204102.1191406-.6801758.2392578-1.0004883.5390625-.8398438.8007812-1.7402344,1.5800781-2.7006836,2.3408203-.0395508.7998047-.0595703,1.9599609-.0595703,3.1806641,0,2.3007812.0595703,4.8212891.1396484,5.78125l-1.7202148.0605469Z"/>
        <path class="cls-2" d="m201.9230957,95.9199219c-.3203125-1.2011719-1.0400391-2.8203125-1.6401367-3.7412109l1.3999023-.5205078c.6000977.9208984,1.340332,2.4208984,1.7807617,3.5810547l-1.5405273.6806641Zm9.1020508-3.8808594c.0600586-.3007812,0-.640625.1601562-.640625.0195312,0,.0595703,0,.0795898.0195312,1.8007812.640625,1.8803711.78125,1.8803711.8613281s-.0795898.1796875-.1796875.2597656c-.1801758.1601562-.300293.2998047-.4404297.6992188-1.6801758,4.5615234-3.8007812,7.4423828-8.7617188,9.7421875-.3198242-.2988281-.9599609-.8398438-1.3803711-1.0996094,4.9614258-1.5605469,8.0820312-5.9013672,8.6420898-9.8417969Zm-5.2211914,3c-.1801758-1.2197266-.7402344-2.8808594-1.2001953-3.7402344l1.4003906-.3398438c.5400391.8798828,1.1000977,2.4804688,1.3999023,3.6601562l-1.6000977.4199219Z"/>
        <path class="cls-2" d="m218.8425293,102.0009766c5.7011719-1.7001953,9.8623047-6.4208984,11.0224609-10.4023438-2.3803711.0595703-4.7211914.1201172-6.0810547.2001953-1.1806641,1.5605469-2.640625,3.0205078-4.6611328,4.5410156-.4204102-.3603516-1.0405273-.8398438-1.4804688-1.1210938,2.9604492-1.7402344,5.6411133-4.8203125,6.4414062-7.3613281.1201172-.4199219.0200195-.6796875.2001953-.6796875.0200195,0,.0600586,0,.1000977.0195312.5600586.1806641,1.3798828.4404297,1.8603516.6210938.199707.0595703.2998047.1396484.2998047.2402344,0,.0791016-.1000977.1796875-.2797852.2597656-.2802734.1396484-.4604492.3203125-.6601562.6796875-.2202148.4003906-.4604492.8007812-.7001953,1.2001953,1.5-.0205078,3.8007812-.0800781,5.1811523-.1796875.4399414-.0400391.4799805-.2197266.6000977-.2197266s1.7001953,1.0996094,1.7001953,1.359375c0,.2207031-.4399414.3398438-.7402344,1-2.2602539,5.0410156-5.1611328,8.5820312-11.3022461,11.2636719-.3803711-.4414062-1.0405273-1.0009766-1.5004883-1.4208984Z"/>
        <path class="cls-2" d="m250.4255371,102.5410156c-1.4404297-1.7001953-3.7412109-3.78125-5.8212891-5.421875-1.8203125,2.0810547-4.0810547,4.0615234-6.921875,5.8613281-.3999023-.3789062-1.1201172-1-1.5600586-1.3203125,5.1811523-2.4804688,9.1420898-7.1611328,10.6020508-10.8222656-2.4204102.0205078-6.4814453.1601562-8.1416016.4208984l-.0600586-1.9404297c.7001953.0800781,1.9003906.1191406,3.2407227.1191406,1.7602539,0,3.7807617-.0595703,5.28125-.1796875.3798828-.0195312.3999023-.2197266.5400391-.2197266s1.7402344,1.0595703,1.7402344,1.2402344-.4199219.3203125-.7001953.8603516c-.7998047,1.5996094-1.8203125,3.2207031-3.0405273,4.78125,2.140625,1.5400391,4.6411133,3.5605469,6.3212891,5.2607422l-1.4799805,1.3603516Z"/>
        <path class="cls-2" d="m262.1437988,93.8789062c1.2202148.6796875,2.3803711,1.4003906,3.5605469,2.2402344,1.2402344-1.5400391,2.140625-3.1796875,2.6005859-4.6210938-1.5400391.0410156-4.0805664.0605469-6.5410156.1601562-1.2006836,1.4414062-2.640625,2.9208984-4.3813477,4.3417969-.4399414-.4003906-1.0200195-.8408203-1.5200195-1.140625,2.7006836-1.6210938,5.2011719-4.4414062,6.3413086-6.9814453.2001953-.4199219.0400391-.7402344.2197266-.7402344.0400391,0,.0600586,0,.1000977.0205078.3203125.0996094,2.0605469.6191406,2.0605469.8398438,0,.0800781-.0800781.1796875-.2597656.2998047-.2402344.1806641-.300293.2607422-.6005859.7001953-.2397461.3603516-.4799805.7207031-.7597656,1.0996094,1.840332-.0195312,3.5605469-.0595703,5.5410156-.1591797.4199219-.0205078.4399414-.2197266.5800781-.2197266.1801758,0,1.7602539,1.2197266,1.7602539,1.4003906,0,.21875-.5.3398438-.8798828,1.1601562-2.1806641,4.7402344-5.8813477,9.0410156-12.1625977,11.3818359-.3803711-.4794922-.9404297-1.0800781-1.3803711-1.4599609,3.2607422-.8007812,6.0209961-2.6210938,8.1015625-4.78125-1.0200195-.9199219-2.2602539-1.8203125-3.6005859-2.6005859l1.2202148-.9404297Z"/>
        <path class="cls-2" d="m281.8840332,103.28125c.1601562-1.1601562.2397461-4.3203125.2397461-7.1621094,0-.9003906,0-1.7792969-.0200195-2.5400391-2.0200195,1.4599609-4.2407227,2.8603516-6.8012695,4.2001953-.2802734-.3994141-.8603516-1.0195312-1.2402344-1.3994141,4.2407227-1.7802734,9.9619141-5.8408203,12.2026367-8.8017578.2402344-.3398438.2402344-.640625.3798828-.640625.1601562,0,1.9204102,1.4003906,1.9204102,1.5800781,0,.1210938-.1396484.2207031-.3598633.2802734-.5.1396484-.6801758.2802734-1.0800781.6396484-1.0405273.9609375-2.1606445,1.9208984-3.3408203,2.8613281-.0600586.7402344-.0800781,2.1005859-.0800781,3.640625,0,2.7607422.0800781,6.0820312.1801758,7.28125l-2.0004883.0605469Z"/>
        <path class="cls-2" d="m296.1428223,89.4179688c2.0405273.2207031,2.0605469.2207031,2.0605469.3808594,0,.0800781-.0400391.1992188-.1201172.3398438-.1401367.2597656-.1601562.4003906-.1801758.7197266-.1396484,3.6806641.0400391,8.2021484-3.4404297,11.8623047-.6000977-.3798828-1.2802734-.6992188-1.9204102-.9394531,3.0805664-2.1611328,3.640625-6.2421875,3.640625-9.3027344,0-.9394531-.0600586-1.8007812-.1000977-2.4599609-.0200195-.2402344-.1000977-.4208984-.1000977-.5205078,0-.0605469.0200195-.0800781.1000977-.0800781h.0600586Zm4.2011719-.640625c2.0004883.0800781,2.1601562.1005859,2.1601562.2607422,0,.0800781-.0400391.1806641-.1201172.2998047-.2197266.3603516-.3598633.6005859-.3598633,7.0214844,0,1.4003906.0200195,2.7011719.0200195,3.5009766,2.0205078-1.1601562,5.1611328-3.8212891,7.081543-6.1210938.3198242.4199219.7001953.8603516,1.0600586,1.2197266-2.0805664,2.28125-4.8007812,4.78125-7.6015625,6.7011719-.5800781.4208984-.6801758.78125-.8803711.78125-.2998047,0-1.5600586-1.4804688-1.5600586-1.4804688,0-.1201172.2001953-.1796875.2202148-.5800781.0200195-1.8203125.0595703-3.9414062.0595703-5.8818359,0-2.1005859-.0395508-4.0205078-.159668-5.2412109-.0200195-.1396484-.1000977-.2998047-.1000977-.3798828,0-.0595703.0400391-.1005859.1401367-.1005859h.0400391Z"/>
      </g>
    </g>
  </g>
</svg>